<?xml version="1.0" encoding="UTF-8" standalone="no"?>
<svg
   xmlns:dc="http://purl.org/dc/elements/1.1/"
   xmlns:cc="http://creativecommons.org/ns#"
   xmlns:rdf="http://www.w3.org/1999/02/22-rdf-syntax-ns#"
   xmlns:svg="http://www.w3.org/2000/svg"
   xmlns="http://www.w3.org/2000/svg"
   xmlns:sodipodi="http://sodipodi.sourceforge.net/DTD/sodipodi-0.dtd"
   xmlns:inkscape="http://www.inkscape.org/namespaces/inkscape"
   version="1.1"
   x="0px"
   y="0px"
   viewBox="-429 231 100 125"
   style="enable-background:new -429 231 100 100;"
   xml:space="preserve"
   id="svg2"
   inkscape:version="0.91 r13725"
   sodipodi:docname="clothing.svg"><metadata
     id="metadata14"><rdf:RDF><cc:Work
         rdf:about=""><dc:format>image/svg+xml</dc:format><dc:type
           rdf:resource="http://purl.org/dc/dcmitype/StillImage" /></cc:Work></rdf:RDF></metadata><defs
     id="defs12" /><sodipodi:namedview
     pagecolor="#ffffff"
     bordercolor="#666666"
     borderopacity="1"
     objecttolerance="10"
     gridtolerance="10"
     guidetolerance="10"
     inkscape:pageopacity="0"
     inkscape:pageshadow="2"
     inkscape:window-width="640"
     inkscape:window-height="480"
     id="namedview10"
     showgrid="false"
     inkscape:zoom="1.888"
     inkscape:cx="50"
     inkscape:cy="62.5"
     inkscape:window-x="428"
     inkscape:window-y="91"
     inkscape:window-maximized="0"
     inkscape:current-layer="svg2" /><path
     d="M-370.84003,249.54999v10.47003L-376,254.85999h-31.83002l-13.83997,13.84003l9.58997,9.58997l3.86005-3.84998v31.15002  h32.60999V274.44l3.85999,3.84998l0.90997-0.90997v35.07001h13.37006l2.70996-33.77002l2.72003,33.77002h13.35999v-62.90002  H-370.84003z M-371.75,276.40002l-5.20001-5.20001V304.25H-406.88v-33.04999l-5.20001,5.20001l-7.70001-7.70001l12.5-12.5h8.02002  c2.45001-0.01001,4.90002-0.01001,7.35004-0.01001c2.44995,0,4.89996,0,7.33997,0.01001h8.02002l12.5,12.5l-5.35999,5.35999  l-1.43005,1.42999L-371.75,276.40002z M-340.10999,311.02002h-10.62l-3.32001-41.31  c-0.22003-2.92999-0.45001-5.86005-0.66998-8.79004c-0.25,2.92999-0.5,5.86005-0.75,8.79004l-3.32001,41.31h-10.62v-35.07001  l7.23999-7.25l-7.23999-7.25v-10.47003h29.29999V311.02002z"
     id="path4" /></svg>