<?xml version="1.0" encoding="UTF-8" standalone="no"?>
<svg
   xmlns:dc="http://purl.org/dc/elements/1.1/"
   xmlns:cc="http://creativecommons.org/ns#"
   xmlns:rdf="http://www.w3.org/1999/02/22-rdf-syntax-ns#"
   xmlns:svg="http://www.w3.org/2000/svg"
   xmlns="http://www.w3.org/2000/svg"
   xmlns:sodipodi="http://sodipodi.sourceforge.net/DTD/sodipodi-0.dtd"
   xmlns:inkscape="http://www.inkscape.org/namespaces/inkscape"
   version="1.1"
   x="0px"
   y="0px"
   viewBox="0 0 100 125"
   enable-background="new 0 0 100 100"
   xml:space="preserve"
   id="svg2"
   inkscape:version="0.91 r13725"
   sodipodi:docname="entertain.svg"><metadata
     id="metadata28"><rdf:RDF><cc:Work
         rdf:about=""><dc:format>image/svg+xml</dc:format><dc:type
           rdf:resource="http://purl.org/dc/dcmitype/StillImage" /></cc:Work></rdf:RDF></metadata><defs
     id="defs26" /><sodipodi:namedview
     pagecolor="#ffffff"
     bordercolor="#666666"
     borderopacity="1"
     objecttolerance="10"
     gridtolerance="10"
     guidetolerance="10"
     inkscape:pageopacity="0"
     inkscape:pageshadow="2"
     inkscape:window-width="640"
     inkscape:window-height="480"
     id="namedview24"
     showgrid="false"
     inkscape:zoom="1.888"
     inkscape:cx="50"
     inkscape:cy="62.5"
     inkscape:window-x="0"
     inkscape:window-y="25"
     inkscape:window-maximized="0"
     inkscape:current-layer="svg2" /><g
     id="g4"><path
       d="M89.515,10.464l-10.743,2.14c-0.816,0.164-1.485,0.978-1.485,1.809v11.72c0,0-2.085-0.007-2.187,0h-0.187v0.018   c-2.114,0.247-3.762,2.025-3.762,4.207c0,2.35,1.905,4.256,4.255,4.256c2.352,0,4.257-1.906,4.257-4.256v-4.225V18.56l8.964-1.786   v6.212h-2.374v0.019c-2.116,0.247-3.764,2.024-3.764,4.206c0,2.351,1.905,4.256,4.257,4.256c2.35,0,4.255-1.905,4.255-4.256v-4.225   V11.682C91,10.851,90.331,10.302,89.515,10.464z"
       id="path6" /><g
       id="g8"><path
         d="M16.999,25.838l6.522,1.316c0.456,0.092,0.456,0.744,0,0.836l-6.522,1.316c-0.168,0.034-0.3,0.165-0.334,0.334    l-1.316,6.522c-0.092,0.456-0.744,0.456-0.836,0l-1.316-6.522c-0.034-0.168-0.165-0.3-0.334-0.334L6.342,27.99    c-0.456-0.092-0.456-0.744,0-0.836l6.522-1.316c0.168-0.034,0.3-0.165,0.334-0.334l1.316-6.522c0.092-0.456,0.744-0.456,0.836,0    l1.316,6.522C16.699,25.673,16.831,25.804,16.999,25.838z"
         id="path10" /></g><path
       d="M31.955,63.011l-13.429,2.675c-1.02,0.204-1.856,1.222-1.856,2.262v14.65c0,0-2.606-0.009-2.733,0h-0.234v0.023   C11.061,82.929,9,85.151,9,87.878c0,2.938,2.381,5.319,5.318,5.319c2.94,0,5.321-2.382,5.321-5.319v-5.281V73.13l11.205-2.232   v7.765h-2.967v0.024c-2.644,0.309-4.705,2.53-4.705,5.257c0,2.939,2.381,5.319,5.321,5.319c2.938,0,5.318-2.381,5.318-5.319v-5.281   v-14.13C33.811,63.494,32.975,62.807,31.955,63.011z"
       id="path12" /><path
       d="M33.29,15.296l7.247,1.462c0.507,0.102,0.507,0.827,0,0.929l-7.247,1.462c-0.187,0.038-0.333,0.184-0.371,0.371   l-1.462,7.247c-0.102,0.507-0.827,0.507-0.929,0l-1.462-7.247c-0.038-0.187-0.184-0.333-0.371-0.371l-7.247-1.462   c-0.507-0.102-0.507-0.827,0-0.929l7.247-1.462c0.187-0.038,0.333-0.184,0.371-0.371l1.462-7.247c0.102-0.507,0.827-0.507,0.929,0   l1.462,7.247C32.957,15.113,33.103,15.259,33.29,15.296z"
       id="path14" /><path
       d="M68.198,77.843c-1.406,0.861-2.885,1.616-4.433,2.238c2.879-3.63,5.111-8.698,6.426-14.725h9.207   c0.368-0.132,0.766-0.204,1.18-0.204c1.125,0,2.116,0.533,2.742,1.379c1.977-4.288,3.088-9.054,3.088-14.077   c0-6.564-1.89-12.691-5.146-17.878c-0.789,1.092-1.874,1.945-3.137,2.461c0.682,1.124,1.298,2.292,1.829,3.507h-9.553   c-1.281-6.465-3.6-11.889-6.637-15.718c1.768,0.711,3.451,1.589,5.032,2.61c0.552-1.239,1.449-2.29,2.572-3.047   c-4.841-3.235-10.559-5.257-16.718-5.616V8.787c0-1.096-0.889-1.985-1.985-1.985c-1.096,0-1.985,0.889-1.985,1.985v9.987   c-5.675,0.331-10.974,2.076-15.56,4.879l-0.747,3.702c-0.329,1.63-1.72,2.769-3.383,2.769c-1.012,0-1.919-0.426-2.552-1.123   c-5.885,6.075-9.517,14.345-9.517,23.453c0,3.417,0.515,6.715,1.463,9.825l4.484-0.893h-0.612c-0.886-2.82-1.365-5.82-1.365-8.932   c0-2.751,0.381-5.411,1.079-7.939h10.326c-0.316,2.532-0.488,5.185-0.488,7.939c0,2.789,0.182,5.47,0.507,8.03   c1.471,0.735,2.471,2.246,2.471,4.049v6.577c1.26,3.524,2.875,6.568,4.78,8.97c-1.675-0.673-3.272-1.497-4.78-2.449v1.031v3.554   c4.736,2.537,10.141,3.98,15.879,3.98c6.675,0,12.898-1.956,18.141-5.314C69.347,80.536,68.319,79.324,68.198,77.843z    M71.036,44.515h10.326c0.698,2.529,1.079,5.189,1.079,7.939c0,3.112-0.479,6.112-1.365,8.932h-10.17   c0.402-2.826,0.618-5.816,0.618-8.932C71.523,49.7,71.352,47.046,71.036,44.515z M34.932,40.545h-9.553   c3.118-7.134,8.949-12.805,16.19-15.717C38.532,28.656,36.212,34.08,34.932,40.545z M50.682,81.956   c-5.053-1.347-9.305-7.755-11.435-16.6h11.435V81.956z M50.682,61.386H38.463c-0.443-2.82-0.683-5.82-0.683-8.932   c0-2.751,0.19-5.411,0.539-7.939h12.362V61.386z M50.682,40.545H39.023c2.044-9.354,6.42-16.195,11.659-17.593V40.545z    M54.652,22.952c5.239,1.397,9.615,8.239,11.659,17.593H54.652V22.952z M54.652,44.515h12.362c0.349,2.529,0.539,5.189,0.539,7.939   c0,3.112-0.24,6.112-0.683,8.932H54.652V44.515z M54.652,81.956v-16.6h11.435C63.957,74.201,59.705,80.608,54.652,81.956z"
       id="path16" /><path
       d="M82.762,75.727l6.885,1.389c0.482,0.097,0.482,0.785,0,0.883l-6.885,1.389c-0.178,0.036-0.316,0.175-0.352,0.352   l-1.389,6.885c-0.097,0.482-0.785,0.482-0.883,0l-1.389-6.885c-0.036-0.178-0.175-0.316-0.352-0.352l-6.885-1.389   c-0.482-0.097-0.482-0.785,0-0.883l6.885-1.389c0.178-0.036,0.316-0.175,0.352-0.352l1.389-6.885c0.097-0.482,0.785-0.482,0.883,0   l1.389,6.885C82.445,75.553,82.584,75.691,82.762,75.727z"
       id="path18" /></g></svg>