<svg xmlns="http://www.w3.org/2000/svg" xmlns:xlink="http://www.w3.org/1999/xlink" viewBox="0 0 24 30" version="1.1" x="0px" y="0px"><title>food_039-eating-meal-restaurant-fork-knife</title><desc>Created with Sketch.</desc><g stroke="none" stroke-width="1" fill="none" fill-rule="evenodd"><g transform="translate(-429.000000, -189.000000)" fill="#000000"><g transform="translate(429.000000, 194.000000)"><path d="M23.5,0 C23.2238576,0 23,0.217741728 23,0.500836134 L23,14.4991639 C23,14.775768 23.2319336,15 23.5,15 C23.7761424,15 24,14.7822583 24,14.4991639 L24,0.500836134 C24,0.224231975 23.7680664,0 23.5,0 Z"/><path d="M2.5,0 C2.22385763,0 2,0.217741728 2,0.500836134 L2,14.4991639 C2,14.775768 2.23193359,15 2.5,15 C2.77614237,15 3,14.7822583 3,14.4991639 L3,0.500836134 C3,0.224231975 2.76806641,0 2.5,0 Z"/><path d="M22.0499886,1.57326967 C21.2479637,2.95366498 20.8307221,4.61674246 21.0019615,6.54424575 C21.0869537,7.50093371 21.543427,8.18177699 22.2371403,8.59688665 C22.6944915,8.87056005 23.1448422,8.97897268 23.4691091,8.99904484 C23.7447239,9.01610543 23.9819843,8.80650578 23.9990448,8.53089093 C24.0161054,8.25527607 23.8065058,8.01801575 23.5308909,8.00095516 C23.3520976,7.98988783 23.0478578,7.91664839 22.7506186,7.73878402 C22.3226167,7.48267288 22.0536268,7.08146654 21.9980385,6.45575425 C21.845981,4.74416681 22.2121213,3.28477354 22.9146401,2.07564174 C23.1212062,1.72011311 23.3417749,1.41454191 23.5608922,1.16002853 C23.688469,1.01184303 23.7836675,0.916487134 23.8306816,0.875032939 C24.0378065,0.692402556 24.0576633,0.376443413 23.8750329,0.16931844 C23.6924026,-0.0378065335 23.3764434,-0.0576633222 23.1693184,0.124967061 C22.8770555,0.382666985 22.4608759,0.866075928 22.0499886,1.57326967 Z"/><path d="M-1.8189894e-12,2.5 C-1.8189894e-12,2.82069363 0.0743350909,3.26670417 0.302786404,3.7236068 C0.697181072,4.51239613 1.42858687,5 2.5,5 C3.57141311,5 4.30281894,4.51239615 4.69721369,3.72360684 C4.92566505,3.26670422 5.0000002,2.82069368 5.00000023,2.50000006 L5,0.499999971 C4.99999998,0.223857596 4.77614235,-1.60884213e-08 4.49999997,0 C4.2238576,1.60884214e-08 3.99999998,0.223857654 4,0.500000029 L4.00000023,2.50000003 C4.00000021,2.67930632 3.94933527,2.98329578 3.80278654,3.27639316 C3.57218114,3.73760385 3.17858689,4 2.5,4 C1.82141313,4 1.42781893,3.73760387 1.1972136,3.2763932 C1.05066491,2.98329583 1,2.67930637 1,2.5 L1,0.5 C1,0.223857625 0.776142375,0 0.5,0 C0.223857625,0 -1.8189894e-12,0.223857625 -1.8189894e-12,0.5 L-1.8189894e-12,2.5 Z"/><path d="M12.5,15 C16.6421356,15 20,11.6421356 20,7.5 C20,3.35786438 16.6421356,0 12.5,0 C8.35786438,0 5,3.35786438 5,7.5 C5,11.6421356 8.35786438,15 12.5,15 Z M12.5,14 C16.0898509,14 19,11.0898509 19,7.5 C19,3.91014913 16.0898509,1 12.5,1 C8.91014913,1 6,3.91014913 6,7.5 C6,11.0898509 8.91014913,14 12.5,14 Z"/><path d="M12.5,13 C15.5375661,13 18,10.5375661 18,7.5 C18,4.46243388 15.5375661,2 12.5,2 C9.46243388,2 7,4.46243388 7,7.5 C7,10.5375661 9.46243388,13 12.5,13 Z M12.5,12 C14.9852814,12 17,9.98528137 17,7.5 C17,5.01471863 14.9852814,3 12.5,3 C10.0147186,3 8,5.01471863 8,7.5 C8,9.98528137 10.0147186,12 12.5,12 Z"/></g></g></g><text x="0" y="39" fill="#000000" font-size="5px" font-weight="bold" font-family="'Helvetica Neue', Helvetica, Arial-Unicode, Arial, Sans-serif">Created by Pham Thi Dieu Linh</text><text x="0" y="44" fill="#000000" font-size="5px" font-weight="bold" font-family="'Helvetica Neue', Helvetica, Arial-Unicode, Arial, Sans-serif">from the Noun Project</text></svg>