<?xml version="1.0" encoding="UTF-8" standalone="no"?>
<svg
   xmlns:dc="http://purl.org/dc/elements/1.1/"
   xmlns:cc="http://creativecommons.org/ns#"
   xmlns:rdf="http://www.w3.org/1999/02/22-rdf-syntax-ns#"
   xmlns:svg="http://www.w3.org/2000/svg"
   xmlns="http://www.w3.org/2000/svg"
   xmlns:sodipodi="http://sodipodi.sourceforge.net/DTD/sodipodi-0.dtd"
   xmlns:inkscape="http://www.inkscape.org/namespaces/inkscape"
   version="1.1"
   x="0px"
   y="0px"
   viewBox="-116 37 90 112.5"
   style="enable-background:new -116 37 90 90;"
   xml:space="preserve"
   id="svg2"
   inkscape:version="0.91 r13725"
   sodipodi:docname="gas.svg"><metadata
     id="metadata14"><rdf:RDF><cc:Work
         rdf:about=""><dc:format>image/svg+xml</dc:format><dc:type
           rdf:resource="http://purl.org/dc/dcmitype/StillImage" /></cc:Work></rdf:RDF></metadata><defs
     id="defs12" /><sodipodi:namedview
     pagecolor="#ffffff"
     bordercolor="#666666"
     borderopacity="1"
     objecttolerance="10"
     gridtolerance="10"
     guidetolerance="10"
     inkscape:pageopacity="0"
     inkscape:pageshadow="2"
     inkscape:window-width="640"
     inkscape:window-height="480"
     id="namedview10"
     showgrid="false"
     inkscape:zoom="2.0977778"
     inkscape:cx="45"
     inkscape:cy="56.25"
     inkscape:window-x="0"
     inkscape:window-y="25"
     inkscape:window-maximized="0"
     inkscape:current-layer="svg2" /><path
     d="M-72.1,42.2C-67.8,57.9-73,62.2-85.6,83c-15.9,26.3,7.1,34.5,7.1,34.5s-17.8-8.6-0.4-33.3c6.9-9.7,12.6-12.6,12.4-25.8  c0.1,0.2,11.1,24.6,9.9,38.7c-1.2,16-10.1,21.1-10.1,21.1s14.2-4,15.1-20.5C-51,87.8-54,79.5-54,79.5s1.9,2.8,3,4.6  c12.3,21.3-1.6,39.7-21,39.7c-19.4,0-33.9-19.2-19.8-40.8c7.7-11.7,13.3-19.6,16.1-26.5c3.5-8.4,3.3-14.4,3.3-14.4H-72.1 M-71.8,119  c5.4,0,9.1-5.1,5.6-11.3c-3.7-6.8-5.7-11.4-5.7-11.4s-2,4.6-5.7,11.4C-81,113.9-77.2,119-71.8,119 M-72.1,40.4h-0.2  c-0.5,0-0.9,0.2-1.3,0.5c-0.3,0.3-0.5,0.8-0.5,1.3c0,0.1,0.1,5.7-3.2,13.6c-2.4,5.7-6.7,12.2-12.7,21.2c-1,1.6-2.1,3.2-3.3,5  c-6.7,10.2-7.8,21.1-3,29.8c4.6,8.4,13.9,13.7,24.3,13.7c10.3,0,19.3-4.9,24.1-13.1c4.9-8.4,4.3-19.1-1.6-29.3  c-1.1-1.9-3-4.6-3.1-4.7c-0.3-0.5-0.9-0.8-1.4-0.8c-0.3,0-0.5,0.1-0.8,0.2c-0.8,0.4-1.2,1.3-0.9,2.2c0,0.1,2.9,8.2,2.3,17.6  c-0.3,5.6-2.3,9.7-4.6,12.5c1.5-3.3,2.7-7.5,3.1-12.9c1.2-14.7-10-39.4-10.1-39.7c-0.3-0.6-0.9-1-1.6-1c-0.1,0-0.3,0-0.4,0  c-0.8,0.2-1.3,0.9-1.3,1.7c0.1,9.4-2.9,13.1-7.4,18.7c-1.4,1.7-3,3.7-4.7,6c-6.2,8.8-8.8,16.6-7.8,23.3c-0.2-0.4-0.3-0.8-0.5-1.2  c-2.1-5.9-0.6-13.1,4.4-21.4c1.8-3,3.5-5.7,5-8.1c8.8-14.1,12.5-19.9,8.6-34.1C-70.7,40.9-71.4,40.4-72.1,40.4L-72.1,40.4z   M-71.8,117.3c-2.1,0-3.8-0.9-4.7-2.4c-1-1.7-0.9-3.9,0.4-6.3c1.8-3.3,3.2-6.1,4.2-8.1c1,2,2.4,4.8,4.2,8.1c1.3,2.4,1.5,4.7,0.5,6.4  C-68.1,116.4-69.8,117.3-71.8,117.3L-71.8,117.3z"
     id="path4" /></svg>