<?xml version="1.0" encoding="UTF-8" standalone="no"?>
<svg
   xmlns:dc="http://purl.org/dc/elements/1.1/"
   xmlns:cc="http://creativecommons.org/ns#"
   xmlns:rdf="http://www.w3.org/1999/02/22-rdf-syntax-ns#"
   xmlns:svg="http://www.w3.org/2000/svg"
   xmlns="http://www.w3.org/2000/svg"
   xmlns:sodipodi="http://sodipodi.sourceforge.net/DTD/sodipodi-0.dtd"
   xmlns:inkscape="http://www.inkscape.org/namespaces/inkscape"
   version="1.1"
   x="0px"
   y="0px"
   viewBox="0 0 64 80"
   enable-background="new 0 0 64 64"
   xml:space="preserve"
   id="svg2"
   inkscape:version="0.91 r13725"
   sodipodi:docname="happy.svg"><metadata
     id="metadata28"><rdf:RDF><cc:Work
         rdf:about=""><dc:format>image/svg+xml</dc:format><dc:type
           rdf:resource="http://purl.org/dc/dcmitype/StillImage" /></cc:Work></rdf:RDF></metadata><defs
     id="defs26" /><sodipodi:namedview
     pagecolor="#ffffff"
     bordercolor="#666666"
     borderopacity="1"
     objecttolerance="10"
     gridtolerance="10"
     guidetolerance="10"
     inkscape:pageopacity="0"
     inkscape:pageshadow="2"
     inkscape:window-width="640"
     inkscape:window-height="480"
     id="namedview24"
     showgrid="false"
     inkscape:zoom="2.95"
     inkscape:cx="32"
     inkscape:cy="40"
     inkscape:window-x="0"
     inkscape:window-y="25"
     inkscape:window-maximized="0"
     inkscape:current-layer="svg2" /><g
     id="g4"><path
       d="M32.002,64.007C14.352,64.007-0.007,49.648-0.007,32S14.352-0.007,32.002-0.007c17.647,0,32.005,14.358,32.005,32.007   S49.649,64.007,32.002,64.007z M32.002,1.993C15.455,1.993,1.993,15.454,1.993,32s13.462,30.007,30.009,30.007   c16.545,0,30.005-13.461,30.005-30.007S48.547,1.993,32.002,1.993z"
       id="path6" /><g
       id="g8"><ellipse
         cx="20.967"
         cy="23.227"
         rx="4.47"
         ry="5.727"
         id="ellipse10" /><ellipse
         cx="43.034"
         cy="23.227"
         rx="4.467"
         ry="5.727"
         id="ellipse12" /></g><path
       d="M32.319,50.061c-0.28,0-0.56-0.005-0.84-0.015c-11.144-0.402-18.721-8.6-19.038-8.948l1.479-1.347   c0.072,0.08,7.356,7.936,17.651,8.297c6.55,0.234,12.936-2.578,18.994-8.348l1.379,1.449   C45.729,47.065,39.131,50.061,32.319,50.061z"
       id="path14" /><rect
       x="12.618"
       y="37.172"
       transform="matrix(0.8268 0.5626 -0.5626 0.8268 25.1109 -0.6544)"
       width="2"
       height="6.542"
       id="rect16" /><rect
       x="47.771"
       y="39.443"
       transform="matrix(0.5629 0.8265 -0.8265 0.5629 55.7372 -24.5103)"
       width="6.542"
       height="1.999"
       id="rect18" /></g></svg>