<?xml version="1.0" encoding="UTF-8" standalone="no"?>
<svg
   xmlns:dc="http://purl.org/dc/elements/1.1/"
   xmlns:cc="http://creativecommons.org/ns#"
   xmlns:rdf="http://www.w3.org/1999/02/22-rdf-syntax-ns#"
   xmlns:svg="http://www.w3.org/2000/svg"
   xmlns="http://www.w3.org/2000/svg"
   xmlns:sodipodi="http://sodipodi.sourceforge.net/DTD/sodipodi-0.dtd"
   xmlns:inkscape="http://www.inkscape.org/namespaces/inkscape"
   version="1.1"
   x="0px"
   y="0px"
   viewBox="0 0 64 80"
   enable-background="new 0 0 64 64"
   xml:space="preserve"
   id="svg2"
   inkscape:version="0.91 r13725"
   sodipodi:docname="sadcol.svg"><metadata
     id="metadata30"><rdf:RDF><cc:Work
         rdf:about=""><dc:format>image/svg+xml</dc:format><dc:type
           rdf:resource="http://purl.org/dc/dcmitype/StillImage" /></cc:Work></rdf:RDF></metadata><defs
     id="defs28" /><sodipodi:namedview
     pagecolor="#ffffff"
     bordercolor="#666666"
     borderopacity="1"
     objecttolerance="10"
     gridtolerance="10"
     guidetolerance="10"
     inkscape:pageopacity="0"
     inkscape:pageshadow="2"
     inkscape:window-width="640"
     inkscape:window-height="480"
     id="namedview26"
     showgrid="false"
     inkscape:zoom="2.95"
     inkscape:cx="32"
     inkscape:cy="40"
     inkscape:window-x="0"
     inkscape:window-y="25"
     inkscape:window-maximized="0"
     inkscape:current-layer="svg2" /><g
     id="g4"><path
       d="M32.003,64.006C14.353,64.006-0.006,49.648-0.006,32c0-17.648,14.359-32.006,32.009-32.006   c17.646,0,32.003,14.358,32.003,32.006C64.006,49.648,49.649,64.006,32.003,64.006z M32.003,1.994   C15.456,1.994,1.994,15.455,1.994,32c0,16.545,13.462,30.006,30.009,30.006c16.544,0,30.003-13.461,30.003-30.006   C62.006,15.455,48.547,1.994,32.003,1.994z"
       id="path6" /><g
       id="g8"><ellipse
         cx="20.968"
         cy="23.228"
         rx="4.47"
         ry="5.726"
         id="ellipse10" /><ellipse
         cx="43.034"
         cy="23.228"
         rx="4.467"
         ry="5.726"
         id="ellipse12" /></g><g
       id="g14"><path
         d="M14.096,47.101l-1.379-1.449c6.468-6.158,13.343-9.152,20.463-8.896c11.146,0.401,18.724,8.6,19.041,8.948l-1.479,1.347    c-0.072-0.08-7.357-7.936-17.652-8.297C26.522,38.539,20.154,41.332,14.096,47.101z"
         id="path16" /><rect
         x="50.043"
         y="43.085"
         transform="matrix(0.8266 0.5628 -0.5628 0.8266 34.9397 -20.6877)"
         width="1.999"
         height="6.544"
         id="rect18" /><rect
         x="10.347"
         y="45.357"
         transform="matrix(0.5629 0.8265 -0.8265 0.5629 44.2679 9.0069)"
         width="6.543"
         height="2"
         id="rect20" /></g></g><path
     style="fill:#ff2a2a"
     d="M 25.864407,61.201417 C 20.039427,59.95922 14.746907,56.921973 10.375092,52.312481 7.0999258,48.859261 5.1594553,45.632322 3.6234636,41.084746 2.6574599,38.224722 2.5187611,37.333417 2.3838318,33.118644 2.2548662,29.09016 2.3412528,27.914851 2.9553958,25.342392 5.899261,13.01143 16.054894,3.9275585 28.623718,2.3829414 c 6.107728,-0.7505952 12.613499,0.6077204 18.332997,3.8276779 3.067851,1.7271346 8.05239,6.4681177 10.088814,9.5958527 5.41102,8.31076 6.229732,19.498748 2.083559,28.472592 -4.0708,8.810716 -11.847769,14.997339 -21.301237,16.945265 -3.232305,0.666027 -8.782666,0.655396 -11.963444,-0.02291 l 0,3e-6 z m -9.99559,-13.6698 c -0.375307,-0.527071 -0.682376,-1.044054 -0.682376,-1.148854 0,-0.1048 1.029125,-0.969614 2.286946,-1.921807 2.737058,-2.072007 6.953896,-4.194095 9.733426,-4.898264 2.587753,-0.655587 7.52636,-0.648095 10.352509,0.01569 2.846227,0.668512 7.019129,2.725112 9.93122,4.89457 l 2.304105,1.716515 -0.693935,0.974539 c -0.892,1.252698 -0.873797,1.521512 0.148363,2.191258 l 0.842294,0.551895 1.925004,-2.892627 c 1.848132,-2.777112 1.899102,-2.912231 1.276349,-3.383482 -0.831861,-0.629491 -1.144224,-0.629169 -1.841542,0.002 -0.514672,0.465773 -0.725126,0.391624 -2.230082,-0.785722 -5.578701,-4.364434 -11.413156,-6.345712 -17.932962,-6.089854 -5.715999,0.224312 -9.948976,1.878017 -15.504745,6.057268 -2.075979,1.561627 -2.089587,1.566081 -2.653969,0.869098 -0.548821,-0.677763 -0.596962,-0.681132 -1.478557,-0.103492 -1.033474,0.67716 -1.219603,0.178034 1.629416,4.369461 l 1.31418,1.933397 0.978366,-0.696658 0.978366,-0.696661 -0.682376,-0.958308 z m 7.429956,-19.266612 c 2.021908,-1.492819 2.870139,-5.658098 1.63479,-8.027717 -0.994411,-1.907458 -2.176286,-2.711864 -3.98441,-2.711864 -2.353534,0 -3.904077,1.517331 -4.421481,4.326773 -0.921903,5.005823 3.282956,8.988182 6.771101,6.412808 z m 21.970878,0.08453 c 2.959918,-1.939414 3.160969,-6.981726 0.388908,-9.753785 -1.239884,-1.239885 -1.428559,-1.315703 -2.869884,-1.153245 -2.722119,0.306823 -4.216811,2.410027 -4.206828,5.919491 0.01261,4.427432 3.534295,7.053796 6.687804,4.987539 z"
     id="path3343"
     inkscape:connector-curvature="0" /></svg>