<?xml version="1.0" encoding="UTF-8" standalone="no"?>
<svg
   xmlns:dc="http://purl.org/dc/elements/1.1/"
   xmlns:cc="http://creativecommons.org/ns#"
   xmlns:rdf="http://www.w3.org/1999/02/22-rdf-syntax-ns#"
   xmlns:svg="http://www.w3.org/2000/svg"
   xmlns="http://www.w3.org/2000/svg"
   xmlns:sodipodi="http://sodipodi.sourceforge.net/DTD/sodipodi-0.dtd"
   xmlns:inkscape="http://www.inkscape.org/namespaces/inkscape"
   version="1.1"
   x="0px"
   y="0px"
   viewBox="0 0 100 125"
   style="enable-background:new 0 0 100 100;"
   xml:space="preserve"
   id="svg2"
   inkscape:version="0.91 r13725"
   sodipodi:docname="wages.svg"><metadata
     id="metadata30"><rdf:RDF><cc:Work
         rdf:about=""><dc:format>image/svg+xml</dc:format><dc:type
           rdf:resource="http://purl.org/dc/dcmitype/StillImage" /></cc:Work></rdf:RDF></metadata><defs
     id="defs28" /><sodipodi:namedview
     pagecolor="#ffffff"
     bordercolor="#666666"
     borderopacity="1"
     objecttolerance="10"
     gridtolerance="10"
     guidetolerance="10"
     inkscape:pageopacity="0"
     inkscape:pageshadow="2"
     inkscape:window-width="640"
     inkscape:window-height="480"
     id="namedview26"
     showgrid="false"
     inkscape:zoom="1.888"
     inkscape:cx="50"
     inkscape:cy="62.5"
     inkscape:window-x="0"
     inkscape:window-y="25"
     inkscape:window-maximized="0"
     inkscape:current-layer="svg2" /><g
     id="g4"><path
       d="M17.992,53.151H4.4c-0.525,0-0.95,0.426-0.95,0.95v29.41c0,0.524,0.425,0.95,0.95,0.95h13.592   c0.525,0,0.95-0.426,0.95-0.95v-29.41C18.942,53.577,18.517,53.151,17.992,53.151z M17.042,82.562H5.35v-27.51h11.691V82.562z"
       id="path6" /><path
       d="M95.541,69.763c-0.771-0.531-1.605-0.79-2.548-0.79c-2.467,0-5.232,1.811-7.918,3.568c-1.695,1.108-3.447,2.254-5.06,2.876   c-3.154,1.217-6.316,1.809-9.665,1.809c-5.709,0-11.095-1.805-15.148-3.377l-0.407-0.157l0.417-0.127   c1.094-0.333,2.486-0.495,4.256-0.495c2.098,0,4.499,0.229,6.831,0.45c2.346,0.226,4.771,0.458,6.939,0.458   c3.437,0,5.582-0.599,6.751-1.886c0.834-0.92,1.16-2.182,0.998-3.859c-0.479-4.929-7.117-5.374-14.151-5.847   c-3.106-0.209-6.319-0.425-8.872-1.08c-1.86-0.478-3.734-1.369-5.719-2.313c-3.442-1.638-7-3.331-11.506-3.565   c-0.622-0.031-1.26-0.048-1.896-0.048c-6.246,0-12.023,1.533-16.948,2.971c-0.504,0.147-0.793,0.675-0.646,1.179   c0.147,0.504,0.678,0.791,1.178,0.646c4.798-1.4,10.42-2.895,16.416-2.895c0.604,0,1.209,0.015,1.798,0.045   c4.128,0.215,7.514,1.825,10.788,3.383c2.07,0.985,4.025,1.915,6.063,2.438c2.723,0.699,6.024,0.921,9.224,1.137   c6.201,0.416,12.059,0.81,12.382,4.134c0.107,1.113-0.062,1.899-0.515,2.399c-0.761,0.837-2.559,1.262-5.344,1.262   c-2.078,0-4.457-0.228-6.769-0.449c-2.366-0.226-4.814-0.459-7.002-0.459c-1.96,0-3.533,0.189-4.809,0.577l-3.048,0.928   c-0.388,0.118-0.658,0.469-0.673,0.874c-0.015,0.404,0.229,0.774,0.605,0.921l2.971,1.151c4.209,1.632,9.812,3.506,15.836,3.506   c3.587,0,6.973-0.634,10.349-1.936c1.8-0.695,3.638-1.896,5.429-3.067c2.44-1.598,4.965-3.25,6.865-3.25   c0.553,0,1.021,0.145,1.447,0.436c0.293,0.323,0.376,2.357-0.454,3.766c-0.469,0.762-8.336,10.491-14.609,12.354   c-1.982,0.589-4.646,0.929-7.469,1.289c-1.377,0.176-2.937,0.376-4.426,0.612c-1.104,0.176-2.259,0.396-3.376,0.61   c-2.562,0.49-5.211,0.997-7.452,0.997c-0.422,0-0.824-0.018-1.197-0.055c-2.979-0.292-6.599-2.176-10.1-3.998   c-1.098-0.57-2.231-1.16-3.324-1.689c-0.768-0.371-1.519-0.736-2.279-1.108c-5.875-2.866-10.95-5.341-17.351-7.068   c-0.509-0.139-1.028,0.163-1.165,0.67c-0.137,0.506,0.163,1.027,0.669,1.164c6.226,1.681,11.225,4.119,17.032,6.951   c0.741,0.362,1.495,0.729,2.264,1.102c1.076,0.522,2.194,1.103,3.275,1.665c3.661,1.905,7.447,3.876,10.79,4.203   c0.427,0.043,0.893,0.064,1.385,0.064c2.421,0,5.16-0.524,7.81-1.032c1.098-0.21,2.233-0.427,3.317-0.599   c1.46-0.232,2.938-0.422,4.372-0.605c2.897-0.369,5.634-0.719,7.765-1.351c7.081-2.104,15.195-12.357,15.701-13.204   C96.646,74.305,97.076,70.822,95.541,69.763z"
       id="path8" /><path
       d="M68.021,19.787c7.76,0,16.007-2.212,16.007-6.312s-8.247-6.312-16.007-6.312s-16.008,2.212-16.008,6.312   S60.262,19.787,68.021,19.787z M68.021,9.063c8.74,0,14.106,2.569,14.106,4.412s-5.366,4.412-14.106,4.412   s-14.107-2.569-14.107-4.412S59.281,9.063,68.021,9.063z"
       id="path10" /><path
       d="M68.021,26.054c6.847,0,12.991-1.395,15.654-3.553c0.408-0.331,0.471-0.929,0.141-1.336   c-0.33-0.407-0.928-0.472-1.336-0.14c-2.31,1.872-8.12,3.129-14.459,3.129c-6.251,0-12.034-1.235-14.391-3.074   c-0.412-0.323-1.011-0.249-1.333,0.165s-0.249,1.011,0.165,1.333C55.169,24.689,61.275,26.054,68.021,26.054z"
       id="path12" /><path
       d="M83.816,27.431c-0.332-0.408-0.927-0.472-1.337-0.14c-2.309,1.872-8.119,3.129-14.458,3.129   c-6.251,0-12.034-1.235-14.391-3.074c-0.412-0.323-1.011-0.25-1.333,0.165c-0.322,0.414-0.249,1.011,0.165,1.333   c2.706,2.111,8.813,3.476,15.559,3.476c6.847,0,12.992-1.395,15.655-3.554C84.084,28.437,84.146,27.838,83.816,27.431z"
       id="path14" /><path
       d="M68.021,38.587c6.847,0,12.991-1.395,15.654-3.553c0.408-0.331,0.471-0.929,0.141-1.336   c-0.33-0.407-0.928-0.471-1.336-0.14c-2.31,1.872-8.12,3.129-14.459,3.129c-6.251,0-12.034-1.235-14.391-3.073   c-0.412-0.323-1.011-0.248-1.333,0.165c-0.322,0.414-0.249,1.011,0.165,1.333C55.169,37.223,61.276,38.587,68.021,38.587z"
       id="path16" /><path
       d="M83.816,39.964c-0.332-0.407-0.927-0.472-1.337-0.14c-2.309,1.872-8.119,3.129-14.458,3.129   c-6.251,0-12.034-1.235-14.391-3.074c-0.412-0.323-1.011-0.249-1.333,0.165c-0.322,0.414-0.249,1.011,0.165,1.333   c2.706,2.111,8.813,3.476,15.559,3.476c6.847,0,12.992-1.395,15.655-3.554C84.084,40.97,84.146,40.372,83.816,39.964z"
       id="path18" /><path
       d="M82.479,46.091c-2.309,1.872-8.119,3.129-14.458,3.129c-6.251,0-12.034-1.235-14.391-3.074   c-0.412-0.323-1.011-0.249-1.333,0.165s-0.249,1.011,0.165,1.333c2.706,2.111,8.813,3.476,15.559,3.476   c6.847,0,12.992-1.395,15.655-3.554c0.407-0.33,0.47-0.928,0.14-1.336C83.484,45.823,82.89,45.759,82.479,46.091z"
       id="path20" /></g></svg>