<?xml version="1.0" encoding="UTF-8" standalone="no"?>
<svg
   xmlns:dc="http://purl.org/dc/elements/1.1/"
   xmlns:cc="http://creativecommons.org/ns#"
   xmlns:rdf="http://www.w3.org/1999/02/22-rdf-syntax-ns#"
   xmlns:svg="http://www.w3.org/2000/svg"
   xmlns="http://www.w3.org/2000/svg"
   xmlns:sodipodi="http://sodipodi.sourceforge.net/DTD/sodipodi-0.dtd"
   xmlns:inkscape="http://www.inkscape.org/namespaces/inkscape"
   version="1.1"
   x="0px"
   y="0px"
   viewBox="0 0 100 125"
   enable-background="new 0 0 100 100"
   xml:space="preserve"
   id="svg2"
   inkscape:version="0.91 r13725"
   sodipodi:docname="work.svg"><metadata
     id="metadata26"><rdf:RDF><cc:Work
         rdf:about=""><dc:format>image/svg+xml</dc:format><dc:type
           rdf:resource="http://purl.org/dc/dcmitype/StillImage" /></cc:Work></rdf:RDF></metadata><defs
     id="defs24" /><sodipodi:namedview
     pagecolor="#ffffff"
     bordercolor="#666666"
     borderopacity="1"
     objecttolerance="10"
     gridtolerance="10"
     guidetolerance="10"
     inkscape:pageopacity="0"
     inkscape:pageshadow="2"
     inkscape:window-width="640"
     inkscape:window-height="480"
     id="namedview22"
     showgrid="false"
     inkscape:zoom="1.888"
     inkscape:cx="50"
     inkscape:cy="61.440678"
     inkscape:window-x="125"
     inkscape:window-y="100"
     inkscape:window-maximized="0"
     inkscape:current-layer="svg2" /><line
     display="none"
     fill="none"
     stroke="#000000"
     stroke-width="0.75"
     x1="137.979"
     y1="42.875"
     x2="144.626"
     y2="48.271"
     id="line12" /><g
     id="g3351"><polygon
       id="polygon4"
       points="26.322,41.944 36.929,37.659 32.214,46.98 "
       stroke-width="2"
       stroke="#000000"
       fill="none" /><path
       id="path6"
       d="M21.393,80.945c0,0-0.017,0.2-0.014,0.522  c0.014,1.581,0.546,6.06,6.335,3.656l11.464-22.715c0,0,1.393-2.571-0.75-4.821c-2.143-2.251-2.143-2.251-2.143-2.251l12-22.929  c0,0,1.179-2.357-0.321-4.5c-1.5-2.143-9.108-13.286-9.108-13.286l-20.786-0.107c0,0-2.464,0.214-3,3.856  c-0.536,3.643-2.679,11.786-2.679,11.786l-3.054-1.982c0,0-2.893-0.107-0.75,2.411c2.143,2.518,3.054,2.786,3.054,2.786l0.803,2.036  l1.929,0.803l-3.482,4.179l-0.178,21.845L6,81.949c0,0,1.854,7.287,7.999,1.427l5.287-21.289V47.944l10.714,12.856l-7.537,17.52  C22.464,78.32,21.285,80.731,21.393,80.945z"
       stroke-width="2"
       stroke="#000000"
       fill="none" /><polygon
       id="polygon8"
       points="19.571,31.069 27.446,23.248 21.071,22.658 "
       stroke-width="2"
       stroke="#000000"
       fill="none" /><path
       id="path10"
       d="M59.536,18.238c0,3.773-3.047,6.831-6.804,6.831s-6.804-3.057-6.804-6.831  c0-3.77,3.047-6.83,6.804-6.83S59.536,14.469,59.536,18.238z"
       stroke-width="2"
       stroke="#000000"
       fill="none" /><path
       id="path14"
       d="M94.333,88.042l-53.429-0.141c0,0,0.857-4.574,7.715-4.714  c0,0,0.003-4.433,4.857-4.718c0,0,2-5.713,6.714-4.999c0,0,8.571-14.713,17.572-0.429c0,0,6.144-1.286,6.572,6.141  c0,0,3.569,0.436,2.856,3.576C87.191,82.759,93.332,82.47,94.333,88.042z"
       stroke-width="2"
       stroke="#000000"
       fill="none" /><polygon
       id="polygon16"
       points="39.075,51.802 61.428,70.659 59.92,72.517 37.43,54.232 "
       stroke-width="2"
       stroke="#000000"
       fill="none" /></g></svg>