<svg xmlns="http://www.w3.org/2000/svg" xmlns:xlink="http://www.w3.org/1999/xlink" version="1.1" x="0px" y="0px" viewBox="-429 231 100 125" style="enable-background:new -429 231 100 100;" xml:space="preserve"><path d="M-370.84003,249.54999v10.47003L-376,254.85999h-31.83002l-13.83997,13.84003l9.58997,9.58997l3.86005-3.84998v31.15002  h32.60999V274.44l3.85999,3.84998l0.90997-0.90997v35.07001h13.37006l2.70996-33.77002l2.72003,33.77002h13.35999v-62.90002  H-370.84003z M-371.75,276.40002l-5.20001-5.20001V304.25H-406.88v-33.04999l-5.20001,5.20001l-7.70001-7.70001l12.5-12.5h8.02002  c2.45001-0.01001,4.90002-0.01001,7.35004-0.01001c2.44995,0,4.89996,0,7.33997,0.01001h8.02002l12.5,12.5l-5.35999,5.35999  l-1.43005,1.42999L-371.75,276.40002z M-340.10999,311.02002h-10.62l-3.32001-41.31  c-0.22003-2.92999-0.45001-5.86005-0.66998-8.79004c-0.25,2.92999-0.5,5.86005-0.75,8.79004l-3.32001,41.31h-10.62v-35.07001  l7.23999-7.25l-7.23999-7.25v-10.47003h29.29999V311.02002z"/><text x="-429" y="346" fill="#000000" font-size="5px" font-weight="bold" font-family="'Helvetica Neue', Helvetica, Arial-Unicode, Arial, Sans-serif">Created by Marvdrock</text><text x="-429" y="351" fill="#000000" font-size="5px" font-weight="bold" font-family="'Helvetica Neue', Helvetica, Arial-Unicode, Arial, Sans-serif">from the Noun Project</text></svg>