<svg xmlns:dc="http://purl.org/dc/elements/1.1/" xmlns:cc="http://creativecommons.org/ns#" xmlns:rdf="http://www.w3.org/1999/02/22-rdf-syntax-ns#" xmlns:svg="http://www.w3.org/2000/svg" xmlns="http://www.w3.org/2000/svg" xmlns:sodipodi="http://sodipodi.sourceforge.net/DTD/sodipodi-0.dtd" xmlns:inkscape="http://www.inkscape.org/namespaces/inkscape" version="1.1" x="0px" y="0px" viewBox="0 0 100 125"><g transform="translate(0,-952.36218)"><path style="text-indent:0;text-transform:none;direction:ltr;block-progression:tb;baseline-shift:baseline;color:#000000;enable-background:accumulate;" d="M 61.71875 6 A 2.0002 2.0002 0 0 0 60.375 6.84375 L 24.375 57.84375 A 2.0002 2.0002 0 0 0 26 61 L 45.21875 61 L 35.09375 91.34375 A 2.0002 2.0002 0 0 0 38.625 93.15625 L 75.625 42.15625 A 2.0002 2.0002 0 0 0 74 39 L 54.6875 39 L 63.90625 8.5625 A 2.0002 2.0002 0 0 0 61.71875 6 z M 56.53125 19.1875 L 50.09375 40.40625 A 2.0002 2.0002 0 0 0 52 43 L 70.0625 43 L 43.03125 80.28125 L 49.90625 59.625 A 2.0002 2.0002 0 0 0 48 57 L 29.84375 57 L 56.53125 19.1875 z " transform="translate(0,952.36218)" fill="#000000" fill-opacity="1" stroke="none" marker="none" visibility="visible" display="inline" overflow="visible"/></g><text x="0" y="115" fill="#000000" font-size="5px" font-weight="bold" font-family="'Helvetica Neue', Helvetica, Arial-Unicode, Arial, Sans-serif">Created by iconsphere</text><text x="0" y="120" fill="#000000" font-size="5px" font-weight="bold" font-family="'Helvetica Neue', Helvetica, Arial-Unicode, Arial, Sans-serif">from the Noun Project</text></svg>