<svg xmlns="http://www.w3.org/2000/svg" xmlns:xlink="http://www.w3.org/1999/xlink" version="1.1" x="0px" y="0px" viewBox="0 0 512 640" enable-background="new 0 0 512 512" xml:space="preserve"><g><path d="M510,239.6c0-28.8-21.4-52.7-49.2-56.7v-41.6h24.6v-8.2c0-31.6-25.7-57.4-57.4-57.4H305.2V59.4c0-27.1-22.1-49.2-49.2-49.2   c-27.1,0-49.2,22.1-49.2,49.2v16.4H83.9c-31.6,0-57.4,25.7-57.4,57.4v8.2h24.6v41.6C23.4,186.9,2,210.8,2,239.6V297h49.2v131.1   c0,40.7,33.1,73.7,73.7,73.7h262.2c40.7,0,73.7-33.1,73.7-73.7V297H510V239.6z M223.2,59.4c0-18.1,14.7-32.8,32.8-32.8   c18.1,0,32.8,14.7,32.8,32.8v16.4h-65.5V59.4z M43.8,124.9c3.8-18.7,20.4-32.8,40.1-32.8h122.9h98.3h122.9   c19.8,0,36.3,14.1,40.1,32.8h-7.4H51.2H43.8z M18.4,280.6v-41c0-19.8,14.1-36.3,32.8-40.1v81.1H18.4z M444.5,428.1   c0,31.6-25.7,57.4-57.4,57.4H124.9c-31.6,0-57.4-25.7-57.4-57.4V297V182.3v-41h376.9v41V297V428.1z M493.6,280.6h-32.8v-81.1   c18.7,3.8,32.8,20.4,32.8,40.1V280.6z"/><path d="M108.5,387.1v-81.9H92.1v81.9c0,40.7,33.1,73.7,73.7,73.7h8.2v-16.4h-8.2C134.2,444.5,108.5,418.7,108.5,387.1z"/><rect x="247.8" y="165.9" width="16.4" height="16.4"/><rect x="280.6" y="165.9" width="16.4" height="16.4"/><rect x="215" y="165.9" width="16.4" height="16.4"/></g><text x="0" y="527" fill="#000000" font-size="5px" font-weight="bold" font-family="'Helvetica Neue', Helvetica, Arial-Unicode, Arial, Sans-serif">Created by Icon Fair</text><text x="0" y="532" fill="#000000" font-size="5px" font-weight="bold" font-family="'Helvetica Neue', Helvetica, Arial-Unicode, Arial, Sans-serif">from the Noun Project</text></svg>