<?xml version="1.0" encoding="UTF-8" standalone="no"?>
<svg
   xmlns:dc="http://purl.org/dc/elements/1.1/"
   xmlns:cc="http://creativecommons.org/ns#"
   xmlns:rdf="http://www.w3.org/1999/02/22-rdf-syntax-ns#"
   xmlns:svg="http://www.w3.org/2000/svg"
   xmlns="http://www.w3.org/2000/svg"
   xmlns:sodipodi="http://sodipodi.sourceforge.net/DTD/sodipodi-0.dtd"
   xmlns:inkscape="http://www.inkscape.org/namespaces/inkscape"
   version="1.1"
   x="0px"
   y="0px"
   viewBox="0 0 100 125"
   enable-background="new 0 0 100 100"
   xml:space="preserve"
   id="svg2"
   inkscape:version="0.91 r13725"
   sodipodi:docname="entertainjarcol.svg"><metadata
     id="metadata28"><rdf:RDF><cc:Work
         rdf:about=""><dc:format>image/svg+xml</dc:format><dc:type
           rdf:resource="http://purl.org/dc/dcmitype/StillImage" /><dc:title></dc:title></cc:Work></rdf:RDF></metadata><defs
     id="defs26" /><sodipodi:namedview
     pagecolor="#ffffff"
     bordercolor="#666666"
     borderopacity="1"
     objecttolerance="10"
     gridtolerance="10"
     guidetolerance="10"
     inkscape:pageopacity="0"
     inkscape:pageshadow="2"
     inkscape:window-width="1207"
     inkscape:window-height="535"
     id="namedview24"
     showgrid="false"
     inkscape:zoom="1.888"
     inkscape:cx="50"
     inkscape:cy="62.5"
     inkscape:window-x="14"
     inkscape:window-y="176"
     inkscape:window-maximized="0"
     inkscape:current-layer="svg2" /><path
     d="M59.976,33.135c-0.229-1.238-0.618-2.392-0.996-3.509c-0.236-0.701-0.481-1.426-0.679-2.152  c-0.249-0.923-0.722-1.792-1.329-2.449c-0.787-0.847-1.072-1.507-0.933-2.167c0.126-0.07,0.252-0.144,0.38-0.218  c0.118-0.07,0.239-0.133,0.361-0.197c0.656-0.345,1.647-0.867,1.642-2.183c-0.004-0.931-0.249-1.687-0.691-2.184  c0.204-0.202,0.368-0.478,0.437-0.861c0.106-0.584-0.137-1.141-0.625-1.501c-0.031-0.381-0.139-0.763-0.237-1.113  c-0.017-0.06-0.037-0.116-0.064-0.171l-0.002-0.054c-0.015-0.218-0.093-0.418-0.215-0.582c0.093-0.083,0.206-0.193,0.31-0.35  c0.167-0.257,0.202-0.539,0.227-0.725c0.005-0.035,0.009-0.07,0.014-0.099l0.03-0.149c0.111-0.531,0.28-1.334-0.131-1.909  c-0.024-0.033-0.049-0.065-0.076-0.095c0.019-0.174,0.021-0.343,0.016-0.502c0.034-0.225,0.027-0.432,0.021-0.618l-0.028-1.176  C57.401,8,57.357,7.837,57.278,7.693c-0.011-0.048-0.022-0.095-0.034-0.142c-0.089-0.324-0.319-0.569-0.619-0.676  c-0.066-0.038-0.137-0.068-0.212-0.089c-0.709-1.237-2.778-1.744-3.343-1.807c-0.527-0.061-1.173-0.249-1.733-0.426  c-0.444-0.141-0.932-0.189-1.361-0.232c-0.124-0.012-0.246-0.024-0.362-0.038c-0.463-0.056-0.924-0.125-1.384-0.193  c-0.91-0.135-1.851-0.274-2.813-0.317c-0.95-0.042-1.924-0.129-2.868-0.214c-1.349-0.121-2.745-0.246-4.16-0.246  c-0.586,0-1.188-0.023-1.771-0.045c-1.006-0.037-2.098-0.046-3.186-0.036c-0.458,0.005-0.917,0.01-1.375,0.01  c-0.656,0-1.193-0.01-1.695-0.032c-0.423-0.017-0.863-0.026-1.309-0.026c-1.97,0-3.847,0.168-5.834,0.345l-0.876,0.078  c-0.468,0.041-0.934,0.092-1.4,0.144c-0.895,0.098-1.74,0.192-2.604,0.213C17.201,3.992,16.18,4.17,15.1,4.358l-0.518,0.089  c-1.036,0.177-1.913,0.515-2.911,0.968c-0.057,0.026-0.137,0.053-0.227,0.085c-0.469,0.166-1.643,0.582-1.605,1.552  C9.716,7.16,9.618,7.299,9.556,7.46c-0.08,0.208-0.09,0.425-0.038,0.625c-0.148,0.559-0.29,1.142-0.09,1.92  c0.122,0.47,0.409,0.845,0.756,1.169c-0.038,0.065-0.067,0.134-0.088,0.206c-0.021,0.035-0.041,0.072-0.058,0.11  c-0.041,0.063-0.076,0.125-0.108,0.187c-0.213,0.151-0.362,0.386-0.4,0.662c-0.031,0.226,0.015,0.444,0.12,0.626  c0.01,0.182,0.042,0.351,0.072,0.516c0.013,0.065,0.026,0.135,0.039,0.211c0.02,0.115,0.058,0.223,0.113,0.322  c0.038,0.117,0.089,0.224,0.153,0.32c0.028,0.066,0.062,0.136,0.106,0.205c-0.012,0.009-0.023,0.019-0.034,0.028  c-0.35,0.139-0.622,0.422-0.743,0.776c-0.377,0.488-0.554,1.093-0.478,1.654c0.086,0.612,0.367,1.02,0.698,1.294  c-0.019,0.026-0.038,0.053-0.056,0.08C9.097,19,8.914,19.807,9.047,20.479c0.152,0.776,0.666,1.405,1.565,1.917  c0.142,0.443,0.004,1.053-0.13,1.645c-0.037,0.167-0.075,0.332-0.104,0.488c-0.125,0.641-0.662,1.418-1.093,2.043l-0.1,0.144  c-1.205,1.753-2.288,3.506-2.305,5.668c-0.008,1.065,0.05,2.133,0.108,3.167c0.053,0.975,0.109,1.982,0.106,2.964  c-0.001,0.37-0.015,0.735-0.03,1.099c-0.026,0.679-0.052,1.382,0.001,2.108c0.047,0.627,0.04,1.258,0.032,1.925  c-0.005,0.398-0.009,0.797-0.002,1.194c0.024,1.285-0.082,2.599-0.184,3.87c-0.044,0.556-0.089,1.111-0.125,1.667  c-0.087,1.402-0.025,2.814,0.036,4.181c0.039,0.859,0.079,1.749,0.079,2.61v0.426c-0.001,0.983-0.001,2,0.02,3.003  c0.014,0.615-0.027,1.222-0.07,1.863c-0.032,0.491-0.066,0.999-0.073,1.514c-0.009,0.624,0.006,1.251,0.022,1.858  c0.012,0.465,0.023,0.93,0.024,1.394c0,0.092-0.003,0.186-0.006,0.278c-0.014,0.426-0.03,0.942,0.215,1.433  c-0.001,0.128-0.006,0.258-0.012,0.385c-0.01,0.259-0.02,0.504,0.001,0.728c0.004,0.046,0.008,0.091,0.01,0.137  c-0.027,0.452-0.045,0.862-0.002,1.269c0.035,0.319,0.033,0.664,0.032,1.029c-0.001,0.272-0.001,0.544,0.012,0.809  c0.029,0.607,0.098,1.206,0.163,1.784l0.14,1.276c0.224,2.107,0.457,4.284,1.043,6.442c0.772,2.845,1.818,5.253,3.109,7.155  c0.219,0.324,0.47,0.624,0.711,0.914c0.153,0.185,0.308,0.368,0.45,0.557c0.103,0.135,0.198,0.298,0.3,0.47  c0.143,0.242,0.304,0.515,0.512,0.76c0.041,0.047,0.083,0.095,0.126,0.141c0.188,0.385,0.538,0.701,0.978,0.877  c0.299,0.22,0.624,0.423,0.987,0.618c0.063,0.046,0.129,0.089,0.194,0.125c0.076,0.045,0.157,0.077,0.247,0.098  c0.203,0.1,0.41,0.191,0.622,0.28c1.988,0.83,4.306,1.353,6.889,1.555c0.169,0.047,0.314,0.096,0.449,0.15  c0.406,0.168,0.84,0.229,1.261,0.288c0.292,0.04,0.569,0.079,0.791,0.149c0.816,0.259,1.645,0.339,2.445,0.417  c0.63,0.062,1.225,0.12,1.786,0.259c0.397,0.099,0.843,0.146,1.362,0.146c0.617,0,1.242-0.069,1.792-0.13l0.156-0.017  c0.451-0.049,0.924-0.052,1.41-0.052h0.242c0.434,0,0.846-0.052,1.244-0.101c0.356-0.044,0.691-0.084,1.021-0.088  c1.174-0.011,2.307-0.261,3.403-0.502l0.544-0.118c0.315-0.067,0.645-0.126,0.979-0.187c1.031-0.188,2.099-0.38,3.048-0.822  c0.214-0.098,0.422-0.209,0.63-0.319c0.325-0.173,0.632-0.334,0.944-0.44c0.187-0.062,0.375-0.12,0.563-0.181  c0.407-0.128,0.83-0.262,1.245-0.432c0.213-0.086,0.43-0.169,0.649-0.253c0.142-0.053,0.286-0.106,0.43-0.164  c0.114,0.054,0.244,0.084,0.381,0.084c0.651,0,1.226-0.271,1.708-0.801c0.1-0.111,0.238-0.223,0.384-0.341l0.053-0.043  c0.449-0.24,0.814-0.504,1.116-0.804c0.184-0.186,0.287-0.43,0.301-0.685c0.061-0.07,0.121-0.143,0.18-0.214  c1.188-1.436,2.08-2.822,2.731-4.241c0.11-0.239,0.222-0.477,0.333-0.713c0.565-1.202,1.15-2.444,1.423-3.827l0.085-0.432  c0.153-0.751,0.311-1.528,0.349-2.335c0.011-0.262,0.043-0.523,0.076-0.801c0.085-0.703,0.182-1.499-0.082-2.327  c0,0,0-0.002,0-0.003c0.003-0.322,0.037-0.654,0.072-1.002c0.064-0.641,0.131-1.299,0.02-1.999  c-0.044-0.273-0.029-0.539-0.012-0.846c0.008-0.126,0.015-0.255,0.019-0.387c0.006-0.217,0.001-0.429-0.008-0.623  c0.087-0.104,0.155-0.226,0.203-0.358c0.101-0.278,0.1-0.588,0.004-0.863c0.008-0.593,0.027-1.201,0.048-1.79  c0.046-1.393,0.095-2.831-0.022-4.247c-0.188-2.271-0.217-4.587-0.219-6.55c0-0.205-0.005-0.418-0.014-0.663  c0.163-0.204,0.256-0.464,0.256-0.746c0.002-2.409,0.092-4.854,0.178-7.221c0.034-0.917,0.067-1.835,0.097-2.754  c0.017-0.527-0.027-1.039-0.07-1.533c-0.032-0.387-0.063-0.753-0.066-1.117c-0.004-0.383,0.014-0.765,0.031-1.17  c0.021-0.483,0.044-0.982,0.028-1.491c-0.014-0.461,0.056-0.963,0.13-1.493l0.043-0.271c0.027-0.184,0.057-0.367,0.085-0.55  c0.126-0.798,0.256-1.623,0.251-2.482c-0.001-0.312,0.013-0.622,0.025-0.93C60.087,34.66,60.119,33.913,59.976,33.135z   M17.337,20.074c-1.073-0.25-2.185-0.293-3.255-0.573c-0.325-0.084-0.814-0.164-1.26-0.282c-0.328-0.245-0.487-0.525-0.646-0.881  c1.228,0.223,2.438,0.477,3.65,0.792c1.486,0.387,3.036,0.533,4.554,0.735c1.324,0.177,2.578,0.266,3.915,0.223  c1.36-0.045,2.718,0.124,4.078,0.065c2.785-0.119,5.574-0.457,8.355-0.666c0.047-0.004,0.049-0.078,0-0.077  c-0.983,0.03-1.965,0.146-2.945,0.224c-1.173,0.094-2.346-0.108-3.524-0.045c-2.345,0.124-4.627-0.176-6.969-0.253  c-1.083-0.036-2.175-0.264-3.251-0.407c-1.335-0.177-2.666-0.346-3.977-0.657c-1.029-0.246-2.145-0.667-3.205-0.725  c-0.562-0.03-1.109-0.158-1.665-0.23c-0.197-0.025-0.441-0.073-0.654-0.166c-0.128-0.104-0.162-0.222-0.182-0.358  c-0.024-0.177,0.072-0.423,0.233-0.601l0.163-0.177l0.008-0.072l0.16-0.022l0.003-0.004c-0.026,0.099-0.008,0.208,0.055,0.291  c-0.021,0.181,0.055,0.381,0.213,0.466c0.124,0.066,0.266,0.105,0.413,0.136c-0.021,0.061,0.005,0.138,0.092,0.143  c0.37,0.017,0.732,0.411,1.147,0.491c1.008,0.189,2.019,0.338,3.04,0.436c0.061,0.006,0.106-0.016,0.139-0.051  c0.002,0,0.005,0,0.008-0.001c0.554,0.144,1.103,0.097,1.681,0.111c0.405,0.01,0.81,0.039,1.214,0.066  c-0.061,0.014-0.123,0.029-0.184,0.047c-0.121,0.038-0.071,0.225,0.053,0.191c0.595-0.165,1.226-0.076,1.835-0.082  c0.139-0.001,0.139-0.21,0-0.215c-0.064-0.001-0.127-0.004-0.191-0.006c-0.005-0.032-0.021-0.062-0.062-0.071  c-0.286-0.057-0.574-0.097-0.863-0.128c0.026-0.102-0.018-0.228-0.134-0.249c-0.952-0.183-1.909-0.28-2.862-0.478  c-0.385-0.079-0.769-0.154-1.152-0.229c-0.014-0.075-0.063-0.142-0.163-0.17c-0.556-0.154-1.108-0.271-1.607-0.576  c-0.371-0.225-0.595-0.632-1.011-0.773c-0.056-0.019-0.106-0.006-0.147,0.021c-0.084-0.087-0.18-0.163-0.304-0.229  c-0.014-0.006-0.027-0.01-0.04-0.012c-0.002-0.02-0.006-0.04-0.011-0.057c-0.006-0.063-0.016-0.125-0.03-0.186  c0.044,0.006,0.086,0.009,0.129,0.01c0.244,0.125,0.492,0.228,0.69,0.294c0.256,0.084,0.752,0.387,1.058,0.39  c0.342,0.005,0.682,0.025,1.023,0.04c0.109,0.006,0.113-0.142,0.024-0.177c-0.471-0.185-0.955-0.195-1.438-0.318  c0.08-0.102,0.092-0.266-0.048-0.357c-0.001-0.001-0.004-0.001-0.005-0.003c0.185,0.013,0.367,0.021,0.537,0.027  c0.3,0.009,0.375-0.411,0.137-0.534c0.026-0.111-0.018-0.232-0.165-0.263c-0.719-0.111-1.383-0.448-2.103-0.525  c-0.146-0.076-0.296-0.148-0.448-0.217c0.065-0.059,0.11-0.143,0.11-0.236v0c0.016,0,0.031,0.001,0.049,0.002  c0.396,0.006,0.731,0.266,1.117,0.283c0.304,0.014,0.589,0.04,0.866-0.018c0.314,0.084,0.63,0.158,0.949,0.197  c0.806,0.098,1.593,0.29,2.402,0.365c0.917,0.086,1.844-0.04,2.762-0.04c0.256,0,0.32-0.396,0.062-0.453  c-1.461-0.317-3.029-0.368-4.426-0.899c-0.618-0.234-1.303-0.547-2.001-0.741c0.144,0.024,0.303-0.133,0.204-0.282  c-0.425-0.644-0.579-1.305-0.675-2.053c0.21,0.083,0.421,0.161,0.632,0.24c-0.04,0.574-0.008,1.23,0.43,1.636  c0.147,0.137,0.33,0.079,0.412-0.051c0.155,0.335,0.397,0.626,0.694,0.79c0.175,0.097,0.431-0.111,0.295-0.294  c-0.361-0.485-0.828-1.244-0.656-1.881c0.064,0.002,0.131,0.006,0.203,0.016c0.238,0.033,0.479,0.158,0.726,0.234  c-0.001,0.125,0.002,0.248,0.007,0.366c0.022,0.571,0.172,1.128,0.568,1.55c0.166,0.176,0.505-0.004,0.418-0.242  c-0.131-0.354-0.265-0.702-0.348-1.07c-0.028-0.127-0.068-0.31-0.094-0.501c0.124,0.019,0.249,0.037,0.373,0.055  c-0.004,0.115,0.003,0.233,0.013,0.348c0.057,0.65,0.204,1.3,0.67,1.776c0.16,0.163,0.481-0.002,0.398-0.233  c-0.121-0.336-0.25-0.671-0.347-1.017c-0.04-0.139-0.161-0.503-0.192-0.801c0.257,0.033,0.515,0.062,0.775,0.083  c0.042,0.003,0.074-0.009,0.098-0.03c0.071,0.669,0.179,1.387,0.536,1.947c0.147,0.23,0.484,0.08,0.43-0.182  c-0.117-0.572-0.255-1.172-0.441-1.738c0.205,0.016,0.412,0.021,0.586,0.02c0.193-0.002,0.379,0.018,0.566,0.042  c-0.003,0.057-0.004,0.113-0.006,0.162c-0.016,0.598-0.009,1.326,0.475,1.752c0.167,0.145,0.516,0.008,0.413-0.241  c-0.146-0.353-0.253-0.698-0.299-1.079c-0.014-0.11-0.056-0.326-0.069-0.528c0.106,0.014,0.212,0.026,0.32,0.032  c0.158,0.012,0.316,0.015,0.474,0.015c-0.02,0.146-0.017,0.301-0.013,0.449c0.013,0.479,0.146,1.334,0.632,1.558  c0.143,0.066,0.353-0.008,0.341-0.195c-0.024-0.377-0.259-0.732-0.356-1.101c-0.029-0.112-0.131-0.493-0.1-0.711  c0.162-0.001,0.323-0.001,0.484,0.003c0.329,0.009,0.642,0.091,0.96,0.152c-0.047,0.232-0.039,0.477,0,0.714  c0.058,0.341,0.146,0.932,0.505,1.089c0.206,0.091,0.394-0.019,0.42-0.24c0.032-0.27-0.185-0.558-0.272-0.807  c-0.075-0.218-0.128-0.461-0.113-0.696c0.414,0.005,0.917-0.104,1.339-0.133c-0.002,0.548,0.128,1.109,0.415,1.575  c0.119,0.194,0.486,0.132,0.46-0.125c-0.05-0.516-0.278-0.984-0.345-1.498c0.529-0.06,1.056-0.158,1.587-0.201  c0.207-0.017,0.212-0.321,0-0.326c-0.81-0.017-1.61,0.106-2.419,0.109c-0.764,0.003-1.413-0.056-2.162-0.179  c-0.664-0.107-1.341-0.042-2.001-0.166c-0.021-0.004-0.044-0.009-0.065-0.013c-0.024-0.029-0.055-0.051-0.093-0.059  c-0.073-0.014-0.132-0.009-0.186,0.004C19.49,9.591,19.012,9.506,18.582,9.5c-1.413-0.021-2.807-0.54-4.081-1.063  c-0.953-0.393-1.901-1.121-2.926-1.392c0.134-0.057,0.28-0.109,0.367-0.14c0.137-0.049,0.258-0.093,0.345-0.132  c0.918-0.417,1.663-0.706,2.544-0.855l0.523-0.09c1.025-0.178,1.993-0.347,3.022-0.373c0.072-0.002,0.143-0.007,0.216-0.009  c-0.295,0.078-0.588,0.17-0.875,0.277c-0.382-0.019-0.821,0.048-1.19,0.228c-0.242,0.033-0.479,0.143-0.691,0.249  c-0.285,0.144-0.698,0.361-0.786,0.698c-0.115,0.443,0.276,0.656,0.635,0.762c0.4,0.12,0.773,0.292,1.232,0.059  c0.001-0.001,0.002-0.002,0.003-0.004c1.174,0.383,1.965,0.7,3.028,0.743c0.593,0.163,1.229,0.269,1.763,0.398  c1.029,0.25,2.103,0.351,3.144,0.515c1.187,0.186,2.358,0.368,3.562,0.279c1.184-0.087,2.367-0.124,3.55-0.209  c1.333-0.095,2.67-0.04,4.005-0.098c1.308-0.059,2.626-0.198,3.935-0.19c1.181,0.004,2.249-0.069,3.414-0.249  c0.462-0.072,0.938-0.094,1.391-0.211c0.194-0.05,0.389-0.132,0.585-0.207c0.272,0.006,0.544-0.011,0.824-0.072  c0.001-0.001,0.001-0.001,0.003-0.002c0.01,0.002,0.02,0,0.029-0.008c0.001-0.001,0.003-0.004,0.006-0.006  c0.03-0.011,0.058-0.024,0.081-0.042c0.063-0.013,0.126-0.025,0.19-0.038c0.113,0.024,0.225,0.05,0.333,0.087  c0.235,0.079,0.408-0.056,0.475-0.237c0.591-0.103,1.186-0.192,1.775-0.26c0.373-0.043,0.734-0.137,1.093-0.239  c0.368-0.014,0.819-0.075,1.105-0.281c0.046-0.009,0.093-0.019,0.139-0.027c0.3-0.047,0.368-0.467,0.174-0.656  c-0.016-0.016-0.036-0.028-0.054-0.042c-0.005-0.028-0.009-0.054-0.017-0.084c-0.099-0.36-0.526-0.566-0.87-0.591  c-0.35-0.024-0.679-0.109-1.003-0.207c0.082,0.008,0.163,0.018,0.249,0.026c0.375,0.038,0.764,0.076,1.062,0.17  c0.627,0.198,1.358,0.411,2.012,0.485c0.847,0.096,2.207,0.748,2.26,1.183l0.011,0.085c-0.928,0.247-1.841,0.546-2.811,0.651  c-0.568,0.062-1.126,0.213-1.682,0.385c-0.088-0.016-0.189,0.016-0.262,0.082c-0.804,0.256-1.605,0.531-2.43,0.619  c-0.061,0.006-0.121,0.011-0.181,0.017c-0.009-0.017-0.011-0.033-0.02-0.049c-0.06-0.111-0.223-0.188-0.346-0.141  c-0.143,0.056-0.215,0.132-0.254,0.248c-0.245,0.021-0.49,0.041-0.735,0.059c-0.136-0.17-0.396-0.134-0.492,0.037  c-0.721,0.051-1.441,0.101-2.16,0.177c-0.748,0.079-1.488,0.175-2.234,0.264c-0.606,0.072-1.227-0.083-1.801,0.139  c-0.148,0.058-0.09,0.259,0.065,0.236c0.166-0.026,0.323-0.021,0.478-0.008c-0.055,0.065-0.083,0.15-0.05,0.247  c0.097,0.279,0.058,0.588,0.051,0.88c-0.006,0.304,0.002,0.601,0.04,0.904c0.048,0.366,0.523,0.366,0.57,0  c0.078-0.608,0.142-1.391-0.108-1.969c0.064,0.009,0.129,0.02,0.195,0.027c0.36,0.039,0.757-0.062,1.117-0.083  c0.374-0.023,0.744-0.086,1.115-0.149c-0.021,0.323,0.031,0.641,0.026,0.965c-0.006,0.379-0.019,0.738,0.242,1.037  c0.132,0.151,0.437,0.081,0.471-0.125c0.109-0.637-0.08-1.332-0.181-1.965c0.187-0.027,0.373-0.048,0.561-0.06  c0.155-0.009,0.308-0.017,0.458-0.025c0.005,0.027,0.009,0.055,0.023,0.083c0.29,0.588-0.012,1.347,0.158,1.974  c0.078,0.288,0.504,0.288,0.583,0c0.109-0.402,0.064-0.833,0.056-1.245c-0.008-0.3-0.052-0.588-0.175-0.856  c0.165-0.014,0.33-0.033,0.497-0.058c0.085,0.625-0.098,1.267,0.047,1.883c0.072,0.309,0.541,0.303,0.617,0  c0.149-0.593,0.127-1.33-0.041-1.947c0.225-0.01,0.452-0.009,0.678-0.01c0.004,0.19-0.014,0.382,0.014,0.571  c0.07,0.461,0.039,0.928,0.127,1.387c0.059,0.307,0.559,0.307,0.617,0c0.09-0.472,0.05-0.93-0.024-1.402  c-0.031-0.199-0.038-0.394-0.063-0.583c0.114-0.012,0.229-0.026,0.34-0.05c0.129-0.026,0.257-0.055,0.385-0.083  c0.012,0.009,0.022,0.02,0.038,0.027c0.054,0.024-0.032,0.735-0.04,0.847c-0.032,0.434-0.187,1.211,0.171,1.533  c0.112,0.101,0.263,0.101,0.374,0c0.273-0.245,0.202-0.634,0.19-0.971c-0.009-0.287-0.014-0.573-0.014-0.86  c0-0.201-0.017-0.486-0.11-0.707c0.345-0.079,0.689-0.158,1.033-0.237c-0.008,0.428,0.029,0.859-0.004,1.288  c-0.037,0.49-0.136,0.993,0.02,1.471c0.092,0.284,0.464,0.271,0.561,0c0.324-0.905,0.194-1.954,0.037-2.899  c0.29-0.067,0.58-0.132,0.871-0.196c-0.029,0.038-0.053,0.082-0.058,0.133c-0.038,0.374-0.004,0.729,0.047,1.101  c0.066,0.468-0.033,0.945,0.093,1.405c0.084,0.308,0.538,0.308,0.622,0c0.235-0.863-0.112-1.728-0.241-2.577  c-0.011-0.067-0.041-0.113-0.08-0.144c0.159-0.034,0.319-0.07,0.48-0.102c0.15-0.03,0.299-0.061,0.445-0.091  c-0.03,0.062-0.042,0.135-0.017,0.214c0.244,0.763-0.126,1.63,0.081,2.423c0.085,0.319,0.562,0.319,0.646,0  c0.023-0.089,0.037-0.178,0.049-0.269c0.013,0.151,0.029,0.303,0.057,0.454c0.006,0.033,0.02,0.061,0.035,0.087  c-0.255,0.046-0.509,0.103-0.762,0.18c-0.044,0.007-0.09,0.014-0.134,0.021c-0.387,0.038-0.773,0.07-1.149,0.095  c-0.191,0.012-0.275,0.162-0.259,0.302c-0.504,0.092-1.007,0.189-1.505,0.302c-0.26,0.059-0.292,0.387-0.151,0.556  c-0.173,0.053-0.342,0.116-0.504,0.193c-0.123,0.061-0.176,0.19-0.173,0.321c-0.132,0.037-0.263,0.08-0.387,0.141  c-0.327,0.158-0.176,0.721,0.187,0.691c0.649-0.055,1.302-0.178,1.951-0.292c-0.055,0.101-0.053,0.221-0.001,0.331  c-0.238,0.058-0.483,0.125-0.711,0.194c-0.89,0.27-1.81,0.438-2.714,0.67c-0.729,0.187-1.462,0.293-2.199,0.365  c-0.032-0.037-0.078-0.063-0.141-0.066c-1.311-0.062-2.662,0.169-3.979,0.195c-1.312,0.024-2.621,0.021-3.935,0.021  c-1.289-0.002-2.57,0.002-3.857,0.069c-1.249,0.065-2.516,0.188-3.763,0.2c-1.164,0.009-2.24,0.288-3.421,0.105  c-1.254-0.195-2.533-0.126-3.785-0.347c-1.002-0.176-1.931-0.207-2.945-0.132c-0.507,0.036-0.988-0.024-1.489,0  c-0.572,0.028-1.362,0.05-1.917-0.05c-0.181-0.033-0.24,0.201-0.075,0.269c0.528,0.215,1.092,0.162,1.645,0.297  c0.186,0.046,0.389,0.079,0.594,0.104c0.208,0.062,0.412,0.127,0.604,0.193c0.689,0.237,1.55,0.2,2.264,0.303  c1.483,0.214,2.982,0.372,4.485,0.391c3.899,0.05,7.776-0.017,11.673-0.134c3.176-0.095,6.361-0.599,9.497-1.068  c0.808-0.122,1.578-0.417,2.378-0.575c0.327-0.064,0.673-0.112,0.981-0.245c0.197-0.084,0.971-0.215,1.136-0.381  c0.055-0.055,0.159-0.1,0.286-0.139c0.16-0.034,0.342-0.071,0.535-0.116c0.326-0.052,0.654-0.086,0.799-0.121  c0.332-0.079,0.668-0.082,0.997-0.164c0.235-0.059,0.497-0.175,0.754-0.293c0.034,0.207,0.127,0.446,0.352,0.643  c-0.348,0.122-0.712,0.244-0.839,0.304c-0.374,0.173-0.688,0.375-1.027,0.536c-0.186,0.053-0.369,0.105-0.554,0.16  c-1.234,0.141-2.517,0.149-3.629,0.658c-0.301,0.054-0.599,0.137-0.935,0.247c-0.228,0.074-0.171,0.377,0.054,0.4  c0.334,0.033,0.3,0.031,0.627-0.058c0.093-0.025,0.185-0.043,0.276-0.062c0.058,0.03,0.125,0.04,0.199,0.014  c0.118-0.039,0.239-0.073,0.361-0.104c0.251-0.027,0.504-0.042,0.771-0.048c0.338-0.009,0.69-0.098,1.041-0.205  c0.009,0.019,0.021,0.035,0.035,0.048c-0.323,0.101-0.642,0.22-0.979,0.355c-0.885,0.355-1.939,0.423-2.868,0.587  c-0.565,0.099-1.124,0.264-1.681,0.417c-0.408,0.027-0.815,0.061-1.226,0.066c-2.518,0.03-5.002,0.282-7.472,0.73  C37.137,18.81,37.168,19,37.287,19c1.175-0.011,2.354-0.035,3.525-0.12c0.585-0.042,1.161,0.17,1.766,0.135  c0.034-0.002,0.067-0.002,0.101-0.004c-0.016,0-0.032,0.003-0.049,0.004c-1.722,0.138-3.436,0.227-5.158,0.392  c-0.055,0.005-0.057,0.085,0,0.088c1.087,0.063,2.175-0.1,3.265-0.074c1.062,0.026,2.106,0.088,3.17,0.046  c2.04-0.078,4.082-0.21,6.118-0.22c1-0.006,2.122-0.309,3.103-0.495c0.396-0.076,0.802-0.155,1.172-0.317  c0.049-0.021,0.1-0.038,0.149-0.055l-0.012,0.047l0.122,0.24c0.045,0.091,0.153,0.306,0.392,0.432  c0.117,0.063,0.249,0.093,0.396,0.1c-0.092,0.066-0.186,0.129-0.279,0.195c-0.184,0.125-0.368,0.258-0.544,0.398  c-0.506,0.075-0.977,0.268-1.503,0.361c-0.922,0.163-1.874,0.17-2.802,0.289c-1.824,0.233-3.641,0.37-5.479,0.402  c-1.848,0.031-3.801,0.088-5.633,0.302c-0.901,0.105-1.812,0.014-2.709,0.137c-1.078,0.146-2.119,0.275-3.206,0.306  c-1.863,0.052-3.724,0.433-5.584,0.183c-1.008-0.135-2.029-0.118-3.044-0.102c-1.021,0.014-2.054-0.152-3.074-0.21  c-1.556-0.09-2.97-0.404-4.366-0.954c0.052,0.001,0.104,0.001,0.155,0.003C17.528,20.519,17.58,20.131,17.337,20.074z   M13.234,11.583c0.017,0.017,0.035,0.028,0.053,0.037c-0.17-0.047-0.34-0.085-0.51-0.114c0-0.002,0-0.005,0-0.008  c-0.095-0.512-0.332-1.019-0.505-1.512c-0.112-0.317-0.148-0.672-0.21-1.015c0.177,0.074,0.357,0.147,0.537,0.22  c-0.003,0.008-0.01,0.012-0.011,0.023C12.496,10.074,12.606,10.942,13.234,11.583z M12,10.987c-0.001-0.002-0.003-0.006-0.004-0.008  l0.053-0.121c0.029,0.072,0.06,0.143,0.093,0.214C12.095,11.044,12.047,11.016,12,10.987z M11.974,10.697  c-0.001-0.021-0.008-0.041-0.01-0.062c0.008,0.026,0.02,0.05,0.029,0.076L11.974,10.697z M11.606,8.757  c0.083,0.448,0.135,0.913,0.228,1.363c-0.083-0.204-0.188-0.402-0.281-0.603c-0.103-0.222-0.191-0.445-0.259-0.679  c-0.028-0.095-0.034-0.198-0.041-0.301C11.371,8.614,11.489,8.689,11.606,8.757z M16.203,17.512  c0.055,0.014,0.109,0.031,0.163,0.044c0.155,0.038,0.309,0.076,0.463,0.112c-0.208,0.002-0.416-0.005-0.619-0.03  C16.218,17.596,16.215,17.553,16.203,17.512z M14.115,12.826c0.199,0.07,0.402,0.131,0.606,0.189  c-0.207-0.028-0.415-0.067-0.622-0.114C14.108,12.877,14.111,12.852,14.115,12.826z M14.256,9.738  c-0.075,0.173-0.109,0.365-0.11,0.562c-0.054-0.191-0.097-0.384-0.125-0.585C14.101,9.729,14.18,9.736,14.256,9.738z M10.865,8.87  c0.023,0.178,0.065,0.354,0.123,0.537c0.063,0.205,0.143,0.425,0.233,0.641c-0.101-0.12-0.194-0.243-0.274-0.375  c-0.04-0.067-0.073-0.136-0.102-0.206C10.814,9.264,10.824,9.074,10.865,8.87z M47.445,7.835c0.005-0.037,0.014-0.073,0.014-0.11  c-0.001-0.187-0.123-0.33-0.294-0.387C46.578,7.139,45.9,7.236,45.29,7.239c-0.048,0-0.092,0.009-0.133,0.024  c-0.304-0.04-0.61-0.081-0.917-0.135c-0.37-0.067-0.765-0.017-1.137,0.008c-0.189,0.011-0.405,0.06-0.62,0.106  C41.539,7.215,40.62,7,39.659,6.999c-1.148-0.001-2.295-0.221-3.442-0.26c-1.218-0.042-2.283,0.165-3.489,0.326  c-0.012,0.001-0.012,0.017,0,0.017c1.064,0.055,2.109,0.042,3.164,0.133c1.215,0.104,2.456,0.377,3.666,0.55  c0.517,0.073,1.028,0.036,1.54,0.162c0.521,0.128,0.962,0.246,1.496,0.202c0.486-0.041,1.019,0.142,1.516,0.238  c-1.212,0.145-2.297,0.533-3.545,0.507c-0.671-0.015-1.334-0.015-2.003,0.058c-0.58,0.061-1.207-0.02-1.773,0.061  c-1.382,0.193-2.807,0.021-4.199,0.065c-0.514,0.017-1.021,0.085-1.536,0.086c-0.494,0.001-1.049-0.082-1.535-0.005  c-0.689,0.109-1.358,0.171-2.056,0.162c-0.67-0.007-1.309-0.202-1.972-0.278c-1.112-0.128-2.237-0.369-3.343-0.56  c-0.39-0.068-0.765-0.187-1.146-0.283c-0.016-0.014-0.026-0.03-0.052-0.037c-0.134-0.038-0.267-0.079-0.402-0.12  c0.086-0.034,0.17-0.064,0.253-0.087c0.131-0.036,0.264-0.062,0.396-0.09c0.012,0.039,0.039,0.071,0.086,0.067  c0.366-0.031,0.614-0.091,0.917-0.188c0.557-0.079,1.099-0.221,1.66-0.309c0.249-0.039,0.497-0.074,0.744-0.104  c0.142-0.006,0.282-0.012,0.42-0.016c1.596-0.046,3.232,0.026,4.82-0.154c0.21-0.024,0.21-0.303,0-0.327  c-1.565-0.177-3.147-0.023-4.716,0.039c-0.008-0.058-0.048-0.108-0.124-0.1c-0.583,0.065-1.149,0.083-1.737,0.067  c-0.399-0.011-0.79,0.056-1.183,0.105c-0.008-0.026-0.021-0.051-0.039-0.07c-0.01-0.082-0.062-0.155-0.149-0.172  c-0.502-0.093-1.163-0.06-1.789,0.093c-0.633,0.021-1.265,0.035-1.896,0.083c-0.124,0.009-0.206,0.078-0.25,0.163  c-0.035,0.006-0.068,0.007-0.102,0.016c-0.006-0.045-0.006-0.088-0.001-0.128c0.029-0.02,0.057-0.038,0.081-0.055  c0.129-0.093,0.266-0.173,0.405-0.245c0.229-0.067,0.472-0.116,0.671-0.164c-0.001-0.004-0.002-0.007-0.003-0.011  c0.062-0.025,0.106-0.069,0.131-0.125c0.277-0.096,0.551-0.197,0.814-0.331c0.02-0.01,0.029-0.028,0.04-0.044  c0.222-0.059,0.444-0.112,0.668-0.14c0.566-0.068,1.142-0.088,1.703-0.187c0.759,0.025,1.521,0.096,2.282,0.088  c1.538-0.018,3.066-0.221,4.6-0.24c1.592-0.016,3.215,0.055,4.8-0.11c1.556-0.162,3.163,0.022,4.727,0.031  c0.541,0.002,1.088,0.028,1.637,0.061c0.014,0.003,0.025,0.01,0.039,0.012c1.71,0.18,3.412,0.749,5.143,0.757  c0.396,0.001,0.816,0.047,1.208,0.125c0.344,0.069,0.658,0.297,1.001,0.33c0.451,0.043,0.729,0.132,1.063,0.461  c-0.018-0.017,0.064,0.104,0.144,0.209c-0.045,0.021-0.09,0.039-0.136,0.06C48.421,7.6,47.936,7.725,47.445,7.835z M17.546,6.459  c-0.016,0.012-0.032,0.024-0.048,0.036c-0.011,0.009-0.022,0.019-0.034,0.027c-0.066,0.001-0.132,0.045-0.165,0.098  c-0.001,0.001-0.001,0.003-0.001,0.004c-0.107,0.056-0.216,0.108-0.33,0.145c-0.01,0.004-0.017,0.009-0.026,0.015  c-0.009-0.003-0.018-0.005-0.026-0.008c0.029-0.017,0.058-0.041,0.087-0.08C17.167,6.584,17.354,6.515,17.546,6.459z M22.911,7.188  C22.894,7.17,22.873,7.16,22.85,7.148c0.066-0.003,0.132-0.008,0.199-0.009c0.023,0,0.048,0.001,0.072,0.001  C23.051,7.156,22.98,7.171,22.911,7.188z M21.525,7.254c-0.004-0.012-0.01-0.022-0.016-0.033c0.041-0.007,0.083-0.015,0.124-0.022  c0.039,0.001,0.077,0.004,0.115,0.004C21.673,7.219,21.599,7.236,21.525,7.254z M49.907,6.961c0-0.023-0.002-0.048-0.003-0.072  c0.043,0.008,0.086,0.016,0.131,0.025C49.992,6.93,49.95,6.945,49.907,6.961z M46.177,5.362c-0.355-0.048-0.716-0.031-1.073-0.028  c-0.167,0.001-0.317-0.064-0.47-0.117c0.239,0.015,0.478,0.035,0.717,0.045c0.373,0.017,0.741,0.051,1.111,0.093  C46.367,5.356,46.272,5.359,46.177,5.362z M40.649,4.933c-1.066-0.047-2.131-0.082-3.2-0.065c-1.929,0.031-3.844,0.142-5.775,0.122  c-1.908-0.021-3.791,0.035-5.695,0.114c-0.85,0.035-1.703-0.031-2.553,0c-0.145,0.005-0.282-0.025-0.417-0.059l0.343-0.031  c1.954-0.175,3.799-0.339,5.702-0.339c0.424,0,0.844,0.008,1.245,0.025c0.523,0.022,1.081,0.033,1.758,0.033  c0.463,0,0.927-0.005,1.39-0.01c0.991-0.01,2.069-0.004,3.115,0.035c0.596,0.023,1.212,0.046,1.851,0.046  c0.786,0,1.585,0.045,2.381,0.105C40.747,4.915,40.698,4.924,40.649,4.933z M54.599,10c-0.004-0.405,0.031-0.778-0.191-1.135  c-0.185-0.295-0.726-0.101-0.585,0.247c0.112,0.278,0.067,0.586,0.039,0.882c-0.009-0.429,0.001-0.813-0.196-1.223  c-0.017-0.032-0.038-0.055-0.061-0.078c0.319-0.075,0.635-0.162,0.96-0.274c0.23-0.081,0.438-0.188,0.66-0.268l0.031,0.254  c-0.126-0.09-0.318-0.101-0.42,0.024c-0.066,0.082-0.09,0.147-0.117,0.25c-0.018,0.066-0.007,0.13,0.021,0.184  c-0.007,0.412-0.009,0.823-0.029,1.234c-0.026,0.5-0.083,1.001,0.029,1.493c-0.065,0.01-0.132,0.019-0.198,0.029  C54.638,11.078,54.603,10.547,54.599,10z M53.575,16.97c-0.017-0.02-0.034-0.037-0.055-0.053c0.322-0.089,0.645-0.186,0.97-0.285  C54.188,16.753,53.883,16.87,53.575,16.97z M55.985,15.929c0.008,0.032,0.019,0.062,0.024,0.094  c0.005,0.017-0.032,0.041-0.087,0.066C55.947,16.037,55.969,15.984,55.985,15.929z M55.904,9.4  c-0.014,0.327-0.059,0.689-0.014,1.024c-0.007,0.027-0.014,0.055-0.024,0.078l-0.429,0.927l0.008,0.001  c-0.011,0.005-0.021,0.011-0.031,0.016c0.191-0.896,0.122-2.002-0.047-2.876c-0.009-0.05-0.035-0.091-0.068-0.127l0.58-0.124  l0.041,0.066l0.014,0.608C55.922,9.128,55.911,9.264,55.904,9.4z M54.462,13.814c0.033,0.02,0.066,0.04,0.11,0.056  c-0.062,0.022-0.125,0.045-0.188,0.067C54.416,13.897,54.44,13.856,54.462,13.814z M50.956,18.118  c0.811-0.174,1.649-0.277,2.438-0.534c0.023-0.008,0.04-0.022,0.061-0.033c0.868-0.105,1.74-0.381,2.556-0.622  c0.107-0.032,0.198-0.071,0.28-0.113c0.021,0.012,0.038,0.029,0.062,0.038c0.344,0.136-0.46,0.342-0.471,0.345  c-0.362,0.083-0.721,0.169-1.089,0.234c-0.761,0.139-1.479,0.405-2.243,0.548c-0.91,0.17-1.903,0.426-2.826,0.449  c-0.057,0.001-0.112,0.006-0.168,0.008C50.027,18.353,50.497,18.216,50.956,18.118z M55.881,19.496  c-0.013,0.067-0.017,0.134-0.002,0.202c-0.101,0.062-0.21,0.12-0.329,0.171c0.074-0.065,0.146-0.132,0.21-0.208  C55.803,19.61,55.844,19.554,55.881,19.496z M56.673,19.717c0.019,0.088,0.031,0.176,0.038,0.263  c-0.075,0.002-0.15,0.006-0.226,0.009C56.559,19.905,56.62,19.814,56.673,19.717z M12.569,88.544  c-0.305-0.59-0.543-1.209-0.802-1.818c-0.313-0.74-0.623-1.465-0.913-2.201c0.148-0.2,0.125-0.515-0.066-0.682  c-0.367-1.242-0.586-2.493-0.947-3.735c-0.205-0.703-0.227-1.425-0.383-2.138c-0.172-0.78-0.241-1.58-0.425-2.354  c-0.184-0.771-0.166-1.478-0.187-2.261c-0.02-0.776-0.187-1.53-0.222-2.303c-0.014-0.309-0.054-0.635-0.104-0.958  c-0.003-0.062-0.008-0.123-0.013-0.183c-0.012-0.125-0.003-0.33,0.004-0.529c0.005-0.139,0.009-0.291,0.011-0.443  c0.174-0.152,0.245-0.437,0.056-0.679c-0.109-0.138-0.021-0.534-0.016-0.699c0.02-0.543,0.003-1.091,0-1.635  c-0.006-1.098-0.053-2.168,0.056-3.263c0.211-2.13,0.072-4.35,0.05-6.488c-0.021-2.1-0.404-4.363-0.039-6.441  c0.332-1.894,0.228-3.941,0.228-5.857c0-0.94,0.001-1.875-0.068-2.813c-0.079-1.052,0.064-2.12,0.061-3.176  c-0.007-2.16-0.391-4.312-0.304-6.474c0.006-0.16,0.027-0.321,0.051-0.481c0.34-1.151,1.03-2.229,1.817-3.374l0.097-0.142  c0.51-0.738,1.146-1.658,1.33-2.606c0.027-0.142,0.062-0.291,0.096-0.443c0.143-0.629,0.312-1.383,0.172-2.12  c0.37,0.133,0.727,0.244,1.021,0.344c0.829,0.282,1.703,0.288,2.534,0.528c0.428,0.124,0.813,0.358,1.218,0.538  c0.346,0.154,0.67,0.11,1.024,0.219c0.896,0.274,1.883,0.371,2.798,0.583c0.896,0.207,1.805,0.401,2.717,0.518  c2.131,0.271,4.206-0.091,6.328-0.09c0.39,0,0.811-0.166,1.209-0.186c0.555-0.025,1.119,0.001,1.675,0.001  c0.92,0.001,1.842-0.083,2.762-0.101c2.028-0.039,4.053-0.173,6.079-0.176c0.955,0,1.93-0.082,2.898-0.074  c0.974,0.007,1.994-0.041,2.941-0.276c0.299-0.075,0.221-0.507-0.07-0.521c-3.381-0.148-6.753,0.038-10.128,0.146  c-1.603,0.051-3.214,0.168-4.817,0.169c-1.66,0.001-3.265,0.225-4.914,0.367c-1.842,0.156-3.691,0.003-5.493-0.38  c-1.426-0.302-2.862-0.783-4.31-0.943c-0.656-0.072-1.324-0.575-1.971-0.755c-0.795-0.223-1.611-0.153-2.389-0.488  c-0.647-0.28-1.399-0.393-1.961-0.826c-0.344-0.265-0.59-0.414-0.758-0.76c-0.018-0.271,0.078-0.619,0.252-0.878  c0.124-0.181,0.27-0.299,0.403-0.323l0.003-0.001c0.012,0.074,0.026,0.148,0.047,0.222c0.088,0.32,0.344,0.504,0.545,0.749  c0.421,0.507,1.239,0.751,1.842,0.934c0.342,0.105,0.772,0.093,1.124,0.1c0.616,0.011,0.958,0.281,1.487,0.475  c0.929,0.343,1.937,0.62,2.903,0.834c1.985,0.438,4.136-0.151,6.14-0.164c1.022-0.006,2.014,0.109,3.029,0.194  c1.111,0.094,2.221-0.043,3.332-0.019c2.078,0.045,4.147-0.25,6.221-0.244c0.985,0.001,2.009-0.014,2.988-0.089  c1.011-0.08,2.021-0.02,3.036-0.083c1.885-0.117,3.776,0.011,5.649-0.324c0.795-0.143,1.625-0.187,2.411-0.35  c0.136-0.027,0.272-0.049,0.409-0.07c0.052,0.158,0.199,0.283,0.409,0.227c0.271-0.07,0.533-0.162,0.793-0.26  c0.013,0.006,0.021,0.015,0.034,0.02c0.049,0.017,0.1,0.028,0.151,0.037c0.061,0.047,0.136,0.079,0.232,0.079  c0.64-0.007,1.237-0.249,1.858-0.411c0.247-0.041,0.491-0.076,0.733-0.111c-0.039,0.046-0.081,0.091-0.136,0.13  c-0.568,0.415-1.317,0.734-1.942,1.061c-0.728,0.38-1.327,0.81-2.137,1.034c-0.869,0.241-1.753,0.417-2.659,0.374  c-0.145-0.007-0.181,0.234-0.035,0.258c1.065,0.168,2.113,0.029,3.17-0.139c0.621-0.099,1.191-0.296,1.743-0.547  c-0.183,1.398,0.653,2.503,1.337,3.24c0.144,0.155,0.274,0.336,0.396,0.525c0.48,0.87,0.689,1.857,1.039,2.776  c0.001,0.002,0.001,0.004,0.002,0.005c0.084,0.255,0.168,0.51,0.252,0.759c0.277,0.821,0.543,1.608,0.747,2.418  c0.197,0.919,0.235,1.842,0.166,2.785c-0.084,1.141-0.024,2.263-0.29,3.387c-0.237,1.005-0.295,2.039-0.577,3.039  c-0.283,1.001-0.44,2.031-0.588,3.063c-0.319,2.225-0.451,4.408-0.209,6.644c0.217,2.021,0.362,4.049,0.551,6.071  c0.201,2.16,0.132,4.399,0.194,6.569c0.062,2.224-0.01,4.442-0.012,6.67l-0.035,0.012l0.043,0.571  c0.009,0.114,0.019,0.246,0.024,0.387c-0.075,1.339-0.106,2.671-0.258,4.007c-0.113,0.981,0.022,1.977-0.131,2.955  c-0.151,0.979-0.505,1.877-0.848,2.8c-0.303,0.814-0.506,1.659-0.805,2.477c-0.354,0.972-0.736,1.934-1.072,2.911  c-0.328,0.961-0.975,1.944-1.488,2.821c-0.187,0.322-0.393,0.628-0.609,0.93c-0.128,0.16-0.259,0.315-0.398,0.468  c-0.082,0.086-0.168,0.198-0.258,0.322c-0.009,0.004-0.018,0.007-0.025,0.011c-0.022-0.011-0.045-0.02-0.068-0.025  c0.02-0.112,0.02-0.182,0.018-0.383c-0.004-0.247-0.249-0.351-0.453-0.262c-0.531,0.236-0.967,0.61-1.422,0.961  c-1.474-1.893-4.002-2.884-6.317-3.27c-0.717-0.118-1.451,0.061-2.167-0.045c-0.724-0.104-1.432-0.237-2.164-0.224  c-1.533,0.027-3.04,0.504-4.566,0.631c-1.488,0.125-2.982,0.095-4.474,0.253c-1.571,0.167-3.125,0.405-4.701,0.535  c-0.275,0.022-0.552,0.043-0.827,0.064c0.024-0.11-0.038-0.235-0.197-0.253c-1.422-0.154-2.899,0.107-4.3,0.473  c-0.102-0.003-0.204-0.004-0.305-0.004c-0.022-0.027-0.052-0.051-0.092-0.062c-0.951-0.236-1.82,0.266-2.661,0.829  c-0.473,0.183-0.949,0.358-1.43,0.527c-0.253,0.088-0.697,0.201-1.005,0.408c-0.096-0.131-0.188-0.278-0.284-0.439  c-0.119-0.201-0.242-0.411-0.396-0.614c-0.156-0.205-0.324-0.408-0.493-0.61c-0.181-0.218-0.348-0.425-0.501-0.633  C12.788,89.031,12.691,88.782,12.569,88.544z M33.193,95.916c-0.434,0.049-0.856,0.055-1.276,0.045  c0.881-0.082,1.762-0.192,2.634-0.17c0.416,0.011,0.822-0.007,1.224-0.041c-0.27,0.038-0.542,0.071-0.814,0.073  C34.368,95.824,33.781,95.852,33.193,95.916z M15.356,92.127c0.021-0.009,0.044-0.018,0.066-0.027  c0.069-0.018,0.137-0.04,0.206-0.062c-0.014,0.023-0.031,0.042-0.043,0.066c-0.069,0.141-0.009,0.271,0.101,0.325  c-0.008,0.02-0.015,0.04-0.021,0.061c-0.152-0.094-0.3-0.193-0.445-0.297C15.263,92.173,15.308,92.149,15.356,92.127z M16.355,92.88  c0.051-0.396,0.468-0.698,0.753-0.92c0.257-0.201,0.488-0.386,0.779-0.536c0.044-0.024,0.091-0.045,0.137-0.064  c0.633-0.161,1.264-0.322,1.893-0.499c0.333-0.094,0.666-0.174,1-0.246c0.058-0.01,0.115-0.023,0.17-0.039  c1.174-0.245,2.355-0.384,3.563-0.497c2.961-0.276,5.86-0.925,8.845-0.971c0.554-0.01,1.083,0.195,1.632,0.268  c0.796,0.106,1.53-0.015,2.318-0.086c0.672-0.061,1.331-0.145,2.008-0.13c0.768,0.018,1.505,0.322,2.274,0.347  c-0.032,0.14,0.014,0.309,0.137,0.398c0.445,0.319,0.954,0.528,1.434,0.79c0.128,0.182,0.261,0.21,0.4,0.09  c-0.229,0.172-0.521,0.244-0.795,0.305c-1.083,0.238-2.185,0.405-3.268,0.646c-2.297,0.518-4.699,0.682-7.049,0.776  c-2.515,0.104-5.009,0.392-7.526,0.389c-1.188-0.003-2.538,0.29-3.705,0.068c-0.414-0.08-2.5-0.244-2.685-0.704  c-0.089-0.223-0.445-0.14-0.369,0.103c0.221,0.711,1.687,0.847,2.299,1.002c0.679,0.172,1.357,0.321,2.032,0.513  c0.649,0.186,1.406,0.073,2.072,0.088c3.171,0.069,6.336-0.271,9.509-0.351c2.87-0.072,5.676-0.876,8.488-1.351  c0.74-0.125,2.208-0.395,2.208-1.422c0-0.582-0.664-0.978-1.38-1.228c0.089,0.018,0.178,0.029,0.266,0.052  c0.639,0.171,1.253,0.435,1.898,0.596c0.671,0.164,1.296,0.509,1.862,0.938c-0.079,0.121-0.089,0.292,0.025,0.399  c0.321,0.304,0.684,0.551,1.044,0.804c-0.899,0.359-1.78,0.696-2.701,0.949c-1.196,0.238-2.438,0.256-3.652,0.313  c-0.91,0.043-1.826,0.222-2.729,0.411c-1.029,0.073-2.062,0.063-3.096,0.063c-1.216,0.001-2.458,0.208-3.675,0.272  c-0.645,0.036-1.273,0.069-1.915,0.13c-0.692,0.063-1.45-0.115-2.152-0.113c-1.366,0.004-2.714,0.199-4.077,0.28  c-1.441,0.086-2.905-0.267-4.306-0.553C18.955,93.882,17.581,93.501,16.355,92.88z M36.622,95.652  c0.589-0.085,1.176-0.202,1.774-0.328c0.366-0.078,0.736-0.158,1.106-0.236c0.353-0.02,0.705-0.052,1.058-0.101  c0.559-0.079,1.119-0.111,1.679-0.139c-0.416,0.073-0.825,0.139-1.205,0.22c-1.376,0.289-2.706,0.563-4.12,0.566  C36.817,95.635,36.719,95.645,36.622,95.652z M50.847,93.464l-0.132-0.233c0.07-0.02,0.139-0.043,0.204-0.073  C50.919,93.267,50.899,93.372,50.847,93.464z"
     id="path4" /><path
     d="M26.948,12.643c0.116,0.284,0.629,0.286,0.588-0.079c-0.034-0.293-0.118-0.561-0.207-0.841  c-0.103-0.327-0.095-0.682-0.119-1.02c-0.021-0.326-0.484-0.326-0.505,0c-0.02,0.284-0.104,0.64-0.042,0.918  C26.74,11.966,26.813,12.316,26.948,12.643z"
     id="path6" /><path
     d="M28.254,10.702c-0.064,0.695,0.14,1.449,0.264,2.13c0.068,0.376,0.572,0.234,0.612-0.082c0.087-0.7-0.215-1.433-0.316-2.124  C28.764,10.286,28.281,10.406,28.254,10.702z"
     id="path8" /><path
     d="M30.695,12.997c0.192,0.284,0.642,0.109,0.559-0.236c-0.155-0.638-0.295-1.314-0.371-1.966c-0.042-0.37-0.585-0.391-0.593,0  c-0.006,0.388,0.044,0.78,0.106,1.162C30.456,12.332,30.477,12.674,30.695,12.997z"
     id="path10" /><path
     d="M33.588,12.82c0.108,0.26,0.52,0.251,0.52-0.07c0-0.358-0.059-0.674-0.159-1.019c-0.059-0.198-0.369-0.767-0.24-0.983  c0.159-0.263-0.238-0.586-0.433-0.335c-0.21,0.271-0.187,0.528-0.132,0.855C33.231,11.781,33.388,12.337,33.588,12.82z"
     id="path12" /><path
     d="M35.175,12.896c0.157,0.243,0.532,0.148,0.541-0.146c0.021-0.651-0.602-1.236-0.399-1.882  c0.079-0.249-0.283-0.485-0.457-0.266c-0.245,0.31-0.249,0.62-0.157,0.997C34.81,12.038,34.926,12.514,35.175,12.896z"
     id="path14" /><path
     d="M36.615,12.925c0.052,0.298,0.548,0.298,0.6,0c0.133-0.768-0.117-1.466-0.187-2.223c-0.035-0.378-0.597-0.393-0.599,0  c-0.002,0.32-0.005,0.712,0.058,1.022C36.568,12.121,36.545,12.526,36.615,12.925z"
     id="path16" /><path
     d="M27.888,10.269c0.141,0.001,0.328-0.016,0.44,0.085c0.034,0.03,0.084-0.019,0.05-0.049c-0.131-0.115-0.328-0.101-0.49-0.101  C27.847,10.205,27.847,10.269,27.888,10.269z"
     id="path18" /><g
     transform="matrix(0.53265754,0,0,0.76090307,7.2696563,19.423448)"
     id="g4"><path
       inkscape:connector-curvature="0"
       d="m 89.515,10.464 -10.743,2.14 c -0.816,0.164 -1.485,0.978 -1.485,1.809 l 0,11.72 c 0,0 -2.085,-0.007 -2.187,0 l -0.187,0 0,0.018 c -2.114,0.247 -3.762,2.025 -3.762,4.207 0,2.35 1.905,4.256 4.255,4.256 2.352,0 4.257,-1.906 4.257,-4.256 l 0,-4.225 0,-7.573 8.964,-1.786 0,6.212 -2.374,0 0,0.019 c -2.116,0.247 -3.764,2.024 -3.764,4.206 0,2.351 1.905,4.256 4.257,4.256 2.35,0 4.255,-1.905 4.255,-4.256 l 0,-4.225 0,-11.304 C 91,10.851 90.331,10.302 89.515,10.464 Z"
       id="path6-3" /><g
       id="g8"><path
         inkscape:connector-curvature="0"
         d="m 16.999,25.838 6.522,1.316 c 0.456,0.092 0.456,0.744 0,0.836 l -6.522,1.316 c -0.168,0.034 -0.3,0.165 -0.334,0.334 l -1.316,6.522 c -0.092,0.456 -0.744,0.456 -0.836,0 L 13.197,29.64 c -0.034,-0.168 -0.165,-0.3 -0.334,-0.334 L 6.342,27.99 c -0.456,-0.092 -0.456,-0.744 0,-0.836 l 6.522,-1.316 c 0.168,-0.034 0.3,-0.165 0.334,-0.334 l 1.316,-6.522 c 0.092,-0.456 0.744,-0.456 0.836,0 l 1.316,6.522 c 0.033,0.169 0.165,0.3 0.333,0.334 z"
         id="path10-6" /></g><path
       inkscape:connector-curvature="0"
       d="m 31.955,63.011 -13.429,2.675 c -1.02,0.204 -1.856,1.222 -1.856,2.262 l 0,14.65 c 0,0 -2.606,-0.009 -2.733,0 l -0.234,0 0,0.023 C 11.061,82.929 9,85.151 9,87.878 c 0,2.938 2.381,5.319 5.318,5.319 2.94,0 5.321,-2.382 5.321,-5.319 l 0,-5.281 0,-9.467 11.205,-2.232 0,7.765 -2.967,0 0,0.024 c -2.644,0.309 -4.705,2.53 -4.705,5.257 0,2.939 2.381,5.319 5.321,5.319 2.938,0 5.318,-2.381 5.318,-5.319 l 0,-5.281 0,-14.13 c 0,-1.039 -0.836,-1.726 -1.856,-1.522 z"
       id="path12-7" /><path
       inkscape:connector-curvature="0"
       d="m 33.29,15.296 7.247,1.462 c 0.507,0.102 0.507,0.827 0,0.929 l -7.247,1.462 c -0.187,0.038 -0.333,0.184 -0.371,0.371 l -1.462,7.247 c -0.102,0.507 -0.827,0.507 -0.929,0 L 29.066,19.52 c -0.038,-0.187 -0.184,-0.333 -0.371,-0.371 l -7.247,-1.462 c -0.507,-0.102 -0.507,-0.827 0,-0.929 l 7.247,-1.462 c 0.187,-0.038 0.333,-0.184 0.371,-0.371 l 1.462,-7.247 c 0.102,-0.507 0.827,-0.507 0.929,0 l 1.462,7.247 c 0.038,0.188 0.184,0.334 0.371,0.371 z"
       id="path14-5" /><path
       inkscape:connector-curvature="0"
       d="m 68.198,77.843 c -1.406,0.861 -2.885,1.616 -4.433,2.238 2.879,-3.63 5.111,-8.698 6.426,-14.725 l 9.207,0 c 0.368,-0.132 0.766,-0.204 1.18,-0.204 1.125,0 2.116,0.533 2.742,1.379 1.977,-4.288 3.088,-9.054 3.088,-14.077 0,-6.564 -1.89,-12.691 -5.146,-17.878 -0.789,1.092 -1.874,1.945 -3.137,2.461 0.682,1.124 1.298,2.292 1.829,3.507 l -9.553,0 c -1.281,-6.465 -3.6,-11.889 -6.637,-15.718 1.768,0.711 3.451,1.589 5.032,2.61 0.552,-1.239 1.449,-2.29 2.572,-3.047 C 66.527,21.154 60.809,19.132 54.65,18.773 l 0,-9.986 c 0,-1.096 -0.889,-1.985 -1.985,-1.985 -1.096,0 -1.985,0.889 -1.985,1.985 l 0,9.987 c -5.675,0.331 -10.974,2.076 -15.56,4.879 l -0.747,3.702 c -0.329,1.63 -1.72,2.769 -3.383,2.769 -1.012,0 -1.919,-0.426 -2.552,-1.123 -5.885,6.075 -9.517,14.345 -9.517,23.453 0,3.417 0.515,6.715 1.463,9.825 l 4.484,-0.893 -0.612,0 c -0.886,-2.82 -1.365,-5.82 -1.365,-8.932 0,-2.751 0.381,-5.411 1.079,-7.939 l 10.326,0 c -0.316,2.532 -0.488,5.185 -0.488,7.939 0,2.789 0.182,5.47 0.507,8.03 1.471,0.735 2.471,2.246 2.471,4.049 l 0,6.577 c 1.26,3.524 2.875,6.568 4.78,8.97 -1.675,-0.673 -3.272,-1.497 -4.78,-2.449 l 0,1.031 0,3.554 c 4.736,2.537 10.141,3.98 15.879,3.98 6.675,0 12.898,-1.956 18.141,-5.314 -1.459,-0.346 -2.487,-1.558 -2.608,-3.039 z m 2.838,-33.328 10.326,0 c 0.698,2.529 1.079,5.189 1.079,7.939 0,3.112 -0.479,6.112 -1.365,8.932 l -10.17,0 C 71.308,58.56 71.524,55.57 71.524,52.454 71.523,49.7 71.352,47.046 71.036,44.515 Z m -36.104,-3.97 -9.553,0 c 3.118,-7.134 8.949,-12.805 16.19,-15.717 -3.037,3.828 -5.357,9.252 -6.637,15.717 z m 15.75,41.411 c -5.053,-1.347 -9.305,-7.755 -11.435,-16.6 l 11.435,0 0,16.6 z m 0,-20.57 -12.219,0 c -0.443,-2.82 -0.683,-5.82 -0.683,-8.932 0,-2.751 0.19,-5.411 0.539,-7.939 l 12.362,0 0,16.871 z m 0,-20.841 -11.659,0 c 2.044,-9.354 6.42,-16.195 11.659,-17.593 l 0,17.593 z m 3.97,-17.593 c 5.239,1.397 9.615,8.239 11.659,17.593 l -11.659,0 0,-17.593 z m 0,21.563 12.362,0 c 0.349,2.529 0.539,5.189 0.539,7.939 0,3.112 -0.24,6.112 -0.683,8.932 l -12.218,0 0,-16.871 z m 0,37.441 0,-16.6 11.435,0 c -2.13,8.845 -6.382,15.252 -11.435,16.6 z"
       id="path16-3" /><path
       inkscape:connector-curvature="0"
       d="m 82.762,75.727 6.885,1.389 c 0.482,0.097 0.482,0.785 0,0.883 l -6.885,1.389 c -0.178,0.036 -0.316,0.175 -0.352,0.352 l -1.389,6.885 c -0.097,0.482 -0.785,0.482 -0.883,0 L 78.749,79.74 c -0.036,-0.178 -0.175,-0.316 -0.352,-0.352 l -6.885,-1.389 c -0.482,-0.097 -0.482,-0.785 0,-0.883 l 6.885,-1.389 c 0.178,-0.036 0.316,-0.175 0.352,-0.352 l 1.389,-6.885 c 0.097,-0.482 0.785,-0.482 0.883,0 l 1.389,6.885 c 0.035,0.178 0.174,0.316 0.352,0.352 z"
       id="path18-5" /></g><path
     style="fill:#ffffff"
     d="m 27.758142,62.326248 c -0.194836,-1.901707 -0.197044,-4.642703 -0.0049,-6.091101 l 0.34934,-2.633452 2.844899,0 2.844899,0 0,6.091102 0,6.091101 -2.839992,0 -2.839992,0 -0.354247,-3.45765 z"
     id="path3388"
     inkscape:connector-curvature="0" /><path
     style="fill:#ffffff"
     d="m 28.742308,47.951448 c 0.593117,-3.161588 2.405615,-7.539155 3.756968,-9.073874 l 1.259621,-1.43054 0.01674,6.223517 0.01674,6.223517 -2.707252,0 -2.707251,0 0.364438,-1.94262 z"
     id="path3390"
     inkscape:connector-curvature="0" /><path
     style="fill:#ffffff"
     d=""
     id="path3392"
     inkscape:connector-curvature="0" /><path
     style="fill:#ffffff"
     d="m 47.766919,89.813708 c -2.894413,-1.746849 -5.603625,-1.995271 -14.134142,-1.296028 -4.136269,0.339052 -9.188921,0.709364 -11.228116,0.822919 -2.039195,0.113559 -4.166114,0.383125 -4.726488,0.599041 -0.865087,0.333321 -0.946439,0.238797 -0.539015,-0.626287 0.263915,-0.560376 0.557264,-3.938618 0.651886,-7.507209 0.09462,-3.568591 0.218006,-6.490927 0.274185,-6.494078 0.05618,-0.0032 1.234294,-0.349275 2.618034,-0.769158 l 2.51589,-0.763427 0,2.622971 c 0,1.978422 -0.195232,2.622972 -0.794492,2.622972 -1.48607,0 -2.913136,2.017998 -2.913136,4.119433 0,2.491451 1.246616,4.355143 2.913136,4.355143 2.511878,0 2.913136,-1.548305 2.913136,-11.240736 0,-7.978263 -0.09117,-8.886383 -0.892159,-8.886383 -1.828829,0 -7.341087,1.768273 -7.979663,2.55979 -0.438211,0.543162 -0.662077,2.756437 -0.662077,6.545682 0,5.211621 -0.08764,5.725037 -0.977231,5.725037 -1.226558,0 -2.725254,1.612383 -2.746502,2.954841 -0.03345,2.113284 -0.977627,-0.612775 -2.0716924,-5.981446 C 8.9920528,74.287267 8.8990818,71.966947 8.9073371,52.194341 l 0.00903,-21.6329 1.5709189,-2.648305 c 0.864006,-1.456568 1.574984,-3.051347 1.579951,-3.543953 0.005,-0.492607 0.250589,-1.044938 0.545825,-1.227404 0.399854,-0.247124 9.459469,1.637194 10.480119,2.179769 0.08737,0.04645 -0.0028,1.303059 -0.200372,2.79247 -0.345855,2.607188 -0.436863,2.728924 -2.444178,3.269438 -2.505869,0.67476 -2.408556,1.640233 0.232491,2.3066 1.852007,0.467284 1.91338,0.56425 2.262839,3.575212 0.19756,1.702196 0.559542,3.094901 0.804402,3.094901 0.244861,0 0.597727,-1.13215 0.784146,-2.515889 0.186419,-1.38374 0.394173,-2.737817 0.461674,-3.009061 0.0675,-0.271244 0.92817,-0.764359 1.912595,-1.095812 2.507273,-0.844191 2.54459,-1.698288 0.102925,-2.35576 -1.9901,-0.535878 -2.097126,-0.674772 -2.369613,-3.075191 -0.156957,-1.382681 -0.19825,-2.602883 -0.09176,-2.711561 0.106487,-0.108678 2.388175,-0.322725 5.070416,-0.47566 4.467957,-0.254751 4.847328,-0.201251 4.525214,0.638163 -0.193373,0.503923 -0.351588,2.436802 -0.351588,4.295286 l 0,3.379062 -1.986229,0.543589 c -4.222238,1.155537 -5.934318,2.820634 -6.735502,6.550668 -0.268655,1.250768 -0.552891,1.464851 -1.758055,1.324153 -1.272183,-0.148524 -1.603555,0.167342 -2.880073,2.745302 -2.216205,4.475678 -3.059633,8.582637 -3.059633,14.898469 0,6.353899 0.218275,7.347293 1.614392,7.347293 1.369349,0 1.483959,-0.41554 1.022597,-3.707627 -0.224541,-1.602224 -0.279385,-4.402807 -0.121878,-6.223517 l 0.286378,-3.310381 2.518747,0 2.518747,0 0,5.879237 c 0,3.569594 0.228884,6.108121 0.582628,6.461865 0.320444,0.320445 0.582627,2.09017 0.582627,3.932724 0,1.958669 0.427102,4.565279 1.02832,6.275851 1.026414,2.920334 1.02635,2.925132 -0.03476,2.588347 -0.953328,-0.302574 -1.045821,-0.131086 -0.895905,1.661038 0.151405,1.809942 0.416971,2.123629 2.815478,3.325657 4.649742,2.330249 10.28689,1.704651 14.737259,-1.635508 0.839133,-0.629799 0.878934,-0.916324 0.302903,-2.180572 -0.410077,-0.900022 -0.947265,-1.346483 -1.407577,-1.169847 -0.456675,0.175244 -0.637155,0.02961 -0.466929,-0.376779 0.399364,-0.953422 1.779708,-5.699069 2.167361,-7.451426 C 44.94909,69.439453 45,69.421604 48.509547,69.54972 l 3.556131,0.129816 0.61123,-2.609895 c 1.331903,-5.687096 0.723779,-14.512711 -1.379892,-20.026197 -0.563443,-1.476721 -0.616232,-1.495876 -1.619714,-0.587737 -0.712576,0.644872 -0.939092,1.329973 -0.723604,2.188547 0.289924,1.155149 0.155382,1.249814 -1.776283,1.249814 l -2.089967,0 -1.094355,-4.369704 c -0.601895,-2.403336 -1.271588,-4.846398 -1.488204,-5.429025 -0.323754,-0.870789 -0.266856,-0.941489 0.319698,-0.397246 1.01107,0.938136 1.310729,0.838184 1.995973,-0.665762 0.558605,-1.226005 0.435158,-1.450876 -1.609639,-2.93212 -1.218054,-0.882353 -3.239654,-1.862379 -4.492444,-2.177835 l -2.277799,-0.573557 0,-4.105108 0,-4.105107 1.986229,-0.328303 c 1.092426,-0.180567 3.595074,-0.330927 5.56144,-0.334133 2.355097,-0.0038 3.575212,-0.215439 3.575212,-0.620034 0,-0.457661 -3.138668,-0.530302 -12.314618,-0.285008 -9.619522,0.257151 -12.992697,0.167507 -15.412937,-0.409608 -1.704075,-0.406342 -3.174022,-0.81437 -3.266548,-0.906729 -0.09253,-0.09236 5.830317,-0.167925 13.161877,-0.167925 7.331559,0 15.95193,-0.17107 19.156379,-0.380156 5.204711,-0.339601 5.685007,-0.299224 4.502119,0.378477 -0.728284,0.417248 -1.993675,0.767079 -2.81198,0.777402 -0.940452,0.01186 -1.355855,0.232303 -1.129114,0.599179 0.227696,0.368418 1.20639,0.453293 2.679564,0.232376 1.604522,-0.240613 2.320852,-0.158903 2.320852,0.264733 0,0.337022 0.44101,1.245429 0.980023,2.018683 2.626165,3.767426 3.278589,8.992543 1.961197,15.706764 -0.564652,2.877804 -0.660687,7.327644 -0.429081,19.881757 l 0.298389,16.174128 -1.471315,4.482653 c -2.797538,8.523247 -4.230173,9.878978 -8.021447,7.590848 z m 3.215243,-6.805599 c 0.35213,-2.818363 0.423328,-2.92108 2.444503,-3.526637 1.144995,-0.34305 2.08181,-0.814777 2.08181,-1.048289 0,-0.233506 -0.929756,-0.703119 -2.066124,-1.043586 -1.995935,-0.597997 -2.0782,-0.715672 -2.421587,-3.464057 -0.195505,-1.564767 -0.55951,-2.845032 -0.8089,-2.845032 -0.249389,0 -0.613394,1.280265 -0.808899,2.845032 -0.343388,2.748385 -0.425653,2.86606 -2.421587,3.464057 -1.136368,0.340467 -2.066124,0.81008 -2.066124,1.043586 0,0.233512 0.926101,0.702029 2.058001,1.041155 1.99417,0.597468 2.069278,0.706848 2.421587,3.526637 0.199973,1.600524 0.55732,2.910042 0.794106,2.910042 0.236785,0 0.593732,-1.306308 0.793214,-2.902908 z M 16.048406,44.599806 c 0.329156,-2.393256 0.520156,-2.686443 1.999904,-3.069884 2.258046,-0.585119 2.39143,-1.561141 0.287461,-2.103459 -1.613332,-0.415852 -1.796049,-0.678349 -2.22912,-3.202434 -0.259457,-1.512199 -0.654199,-2.749453 -0.877204,-2.749453 -0.223007,0 -0.567772,1.180107 -0.766147,2.622459 -0.330542,2.403331 -0.514017,2.673065 -2.195775,3.228095 -2.160971,0.713185 -2.090006,1.613298 0.173434,2.199815 1.460713,0.378509 1.650732,0.674853 1.968445,3.069884 0.193412,1.458014 0.55943,2.650934 0.813374,2.650934 0.253944,0 0.625476,-1.190681 0.825628,-2.645957 z m 32.451738,1.144038 c 1.067481,-0.677551 1.71172,-3.724816 1.71172,-8.096471 l 0,-4.043942 2.118644,-0.537769 2.118645,-0.53777 0,2.062325 c 0,1.664386 -0.191889,2.062325 -0.994468,2.062325 -1.417932,0 -2.395363,1.404839 -2.395363,3.442797 0,3.223149 2.520717,4.597871 4.154288,2.265622 0.641337,-0.915636 0.824526,-2.673853 0.824526,-7.913656 0,-3.760601 -0.225978,-6.876144 -0.511545,-7.052634 -0.675346,-0.417387 -6.528893,1.28606 -7.028014,2.045229 -0.214025,0.325534 -0.392785,2.67742 -0.397246,5.226414 -0.0074,4.251011 -0.09423,4.634533 -1.048797,4.634533 -2.148868,0 -2.891323,4.012907 -1.077958,5.826272 1.163603,1.163602 1.524946,1.25184 2.525568,0.616725 z"
     id="path3394"
     inkscape:connector-curvature="0" /><path
     style="fill:#ffffff"
     d="M 32.263441,79.775957 C 31.125857,78.329753 29.404421,74.0946 28.782879,71.212924 l -0.371285,-1.721399 2.690389,0 2.69039,0 0,5.826272 c 0,3.204449 -0.101875,5.826271 -0.226388,5.826271 -0.124513,0 -0.710658,-0.61565 -1.302544,-1.368111 z"
     id="path3396"
     inkscape:connector-curvature="0" /><path
     style="fill:#ffffff"
     d="m 45.444915,59.663776 0,-6.120123 2.51589,0.161436 2.51589,0.161436 0.155759,4.76695 c 0.221874,6.790345 0.08016,7.150423 -2.814155,7.150423 l -2.373384,0 0,-6.120122 z"
     id="path3400"
     inkscape:connector-curvature="0" /><path
     style="fill:#ffffff"
     d="M 47.766919,89.813708 C 44.87185,88.066462 42.162075,87.81831 33.632777,88.519364 c -4.136269,0.339974 -9.161082,0.720403 -11.166251,0.845403 -2.00517,0.125 -4.126765,0.379942 -4.714657,0.566531 -0.894626,0.28394 -0.996246,0.178167 -0.623297,-0.648777 0.245077,-0.543416 0.579067,-3.941859 0.742199,-7.552092 l 0.296602,-6.564062 2.383474,-0.710737 c 1.310911,-0.390905 2.443062,-0.714354 2.51589,-0.718776 0.07283,-0.0044 0.132416,1.183697 0.132416,2.640265 0,2.000942 -0.19421,2.648305 -0.794492,2.648305 -1.48607,0 -2.913136,2.017998 -2.913136,4.119433 0,2.491451 1.246616,4.355143 2.913136,4.355143 2.511878,0 2.913136,-1.548305 2.913136,-11.240736 0,-10.226109 0.412716,-9.633776 -5.450626,-7.822774 -1.893962,0.584986 -3.5875,1.438695 -3.763419,1.897134 -0.17592,0.458438 -0.319854,3.316678 -0.319854,6.351646 0,5.010498 -0.0899,5.51812 -0.977231,5.51812 -1.226558,0 -2.725254,1.612383 -2.746502,2.954841 -0.03345,2.113284 -0.977627,-0.612775 -2.0716924,-5.981446 C 8.9920528,74.287267 8.8990818,71.966947 8.9073371,52.194341 l 0.00903,-21.6329 1.5709189,-2.648305 c 0.864006,-1.456568 1.574984,-3.051347 1.579951,-3.543953 0.005,-0.492607 0.244743,-1.041325 0.532834,-1.219375 0.410183,-0.253507 9.818296,1.669083 10.49311,2.144314 0.08737,0.06153 -0.0029,1.331054 -0.200539,2.821161 -0.343324,2.588099 -0.451779,2.736963 -2.424642,3.328048 -2.464287,0.738318 -2.390227,1.580224 0.192745,2.191082 1.784007,0.421907 1.901047,0.586746 2.242106,3.157776 0.53151,4.006719 1.014309,4.214805 1.622989,0.699506 0.50504,-2.916751 0.667917,-3.17552 2.356669,-3.744117 2.530431,-0.851988 2.576299,-1.704455 0.127194,-2.363931 -1.9901,-0.535878 -2.097126,-0.674772 -2.369613,-3.075191 -0.156957,-1.382681 -0.19825,-2.602883 -0.09176,-2.711561 0.106487,-0.108678 2.388175,-0.322725 5.070416,-0.47566 4.467957,-0.254751 4.847328,-0.201251 4.525214,0.638163 -0.193373,0.503923 -0.351588,2.436802 -0.351588,4.295286 l 0,3.379062 -2.038645,0.54895 c -3.558017,0.958074 -5.531661,2.671498 -6.328997,5.494535 -0.64526,2.284596 -0.855497,2.520808 -2.111323,2.372168 -1.21828,-0.144195 -1.579718,0.203424 -2.857303,2.748059 -2.035474,4.054166 -3.084486,9.147509 -3.075991,14.935066 0.0087,5.896915 0.320444,7.310696 1.612266,7.310696 1.382476,0 1.486676,-0.417484 0.991481,-3.972457 -0.243473,-1.747882 -0.300723,-4.548464 -0.127223,-6.223517 l 0.315456,-3.045551 2.572851,0 2.572852,0 0,6.059843 c 0,3.468555 0.226491,6.199822 0.529661,6.387191 0.291313,0.180042 0.529661,1.722131 0.529661,3.426866 0,1.704734 0.454509,4.559855 1.01002,6.344717 0.993586,3.1924 0.993586,3.239985 0,2.924635 -0.835767,-0.265265 -1.01002,-0.05443 -1.01002,1.222013 0,4.223204 8.63861,6.637611 14.300847,3.996954 3.930128,-1.832871 4.42151,-2.365678 3.680874,-3.991197 -0.423491,-0.929465 -0.907831,-1.288326 -1.455272,-1.078252 -0.558931,0.214481 -0.731375,0.07447 -0.540891,-0.439163 0.581062,-1.566817 1.941807,-6.108827 2.25982,-7.54302 0.326566,-1.472762 0.377659,-1.490672 3.887048,-1.362562 l 3.556133,0.129816 0.61123,-2.609895 c 1.288117,-5.500136 0.655288,-14.667843 -1.382463,-20.027532 -0.560953,-1.475422 -0.613666,-1.494536 -1.617143,-0.586402 -0.712576,0.644872 -0.939092,1.329973 -0.723604,2.188547 0.289924,1.155149 0.155382,1.249814 -1.776283,1.249814 l -2.089967,0 -1.094355,-4.369704 c -0.601895,-2.403336 -1.271588,-4.846398 -1.488204,-5.429025 -0.323754,-0.870789 -0.266856,-0.941489 0.319698,-0.397246 1.01107,0.938136 1.310729,0.838184 1.995973,-0.665762 0.556122,-1.220556 0.436656,-1.449791 -1.47861,-2.837202 -1.145988,-0.83015 -3.167587,-1.812856 -4.492443,-2.183793 l -2.408829,-0.67443 0,-4.102246 0,-4.102245 1.655191,-0.331038 c 0.910355,-0.182071 3.413003,-0.331038 5.56144,-0.331038 2.606756,0 3.90625,-0.204077 3.90625,-0.613451 0,-0.456804 -3.144565,-0.528245 -12.314618,-0.279774 -9.671436,0.262057 -12.979635,0.173977 -15.412937,-0.410362 -1.704075,-0.409221 -3.173069,-0.819604 -3.264431,-0.911963 -0.09136,-0.09236 6.06983,-0.173546 13.691538,-0.180417 7.621708,-0.0069 16.241126,-0.182215 19.154262,-0.389653 4.775611,-0.34006 5.16636,-0.301603 3.972458,0.39097 -0.728284,0.422471 -1.860435,0.776575 -2.51589,0.786898 -0.655456,0.01032 -1.191738,0.271721 -1.191738,0.580884 0,0.366054 0.831334,0.437449 2.383475,0.204691 1.707814,-0.256103 2.383475,-0.175871 2.383475,0.283027 0,0.352249 0.44101,1.273115 0.980023,2.046369 1.457677,2.091144 2.7277,6.305152 2.72688,9.047939 -3.99e-4,1.331845 -0.335866,4.328317 -0.745484,6.658825 -0.577457,3.28542 -0.682731,7.866285 -0.468633,20.391949 l 0.276126,16.154661 -1.43421,4.237288 c -2.798505,8.268019 -4.263806,9.610599 -8.016936,7.345488 z m 3.238604,-7.074603 c 0.344974,-2.508258 0.467329,-2.672256 2.433096,-3.261213 1.138421,-0.341081 2.069856,-0.811197 2.069856,-1.044709 0,-0.233506 -0.94047,-0.706329 -2.089932,-1.050715 -2.022809,-0.606049 -2.10132,-0.717309 -2.444504,-3.464062 -0.195015,-1.560843 -0.548306,-2.837898 -0.785091,-2.837898 -0.236786,0 -0.590478,1.280265 -0.785983,2.845032 -0.343388,2.748385 -0.425653,2.86606 -2.421587,3.464057 -1.136368,0.340467 -2.066124,0.81008 -2.066124,1.043586 0,0.233512 0.926101,0.702029 2.058001,1.041155 1.994997,0.597717 2.06916,0.7059 2.422481,3.533787 0.435084,3.482293 1.109347,3.369613 1.609787,-0.26902 z M 15.993872,44.634118 c 0.318042,-2.39752 0.497341,-2.661444 2.186881,-3.219042 2.302083,-0.759756 2.341877,-1.426265 0.119035,-1.993741 -1.568382,-0.400397 -1.765301,-0.684234 -2.215301,-3.19311 -0.271646,-1.514507 -0.655233,-2.753649 -0.852414,-2.753649 -0.197181,0 -0.570793,1.237254 -0.830249,2.749453 -0.430646,2.509947 -0.621691,2.788099 -2.193138,3.19311 -2.2134356,0.570471 -2.184468,1.237712 0.08627,1.987123 1.650331,0.544658 1.839059,0.824835 2.168346,3.219042 0.198375,1.442352 0.545956,2.622459 0.772403,2.622459 0.226447,0 0.567623,-1.17524 0.758169,-2.611645 z m 32.719719,0.67574 c 0.594253,-0.537792 0.970068,-1.612513 0.972378,-2.78072 0.0021,-1.047276 0.154067,-3.495383 0.337769,-5.440237 0.292608,-3.097834 0.482982,-3.573489 1.536012,-3.837783 0.661104,-0.165927 1.581672,-0.447376 2.045705,-0.625442 0.687423,-0.263789 0.843698,0.07917 0.843698,1.851554 0,1.774917 -0.183045,2.175312 -0.994468,2.175312 -1.435965,0 -2.289431,1.283424 -2.289431,3.442797 0,3.296468 2.389623,4.633796 4.048356,2.265622 0.641337,-0.915636 0.824526,-2.673853 0.824526,-7.913656 0,-3.705065 -0.197932,-6.85881 -0.439848,-7.008323 -0.598167,-0.369688 -5.790464,1.034681 -6.740451,1.8231 -0.561308,0.465844 -0.764617,1.884845 -0.764617,5.336671 0,4.320921 -0.08436,4.702094 -1.040686,4.702094 -2.148868,0 -2.891323,4.012907 -1.077958,5.826272 1.2846,1.284599 1.505209,1.299317 2.739015,0.182739 z"
     id="path3402"
     inkscape:connector-curvature="0" /><path
     style="fill:#ffcc00"
     d="M 48.281718,90.098231 C 45.41431,88.21724 42.215581,87.858178 34.147411,88.511637 c -4.128004,0.334338 -9.265667,0.714343 -11.417028,0.844454 -2.151362,0.130117 -4.392131,0.389094 -4.979487,0.575514 -0.890248,0.282553 -0.996361,0.174566 -0.637798,-0.649084 0.236567,-0.543416 0.570557,-3.941859 0.742199,-7.552103 l 0.312076,-6.564067 2.383474,-0.710731 c 1.310911,-0.390895 2.443062,-0.714344 2.51589,-0.718766 0.07283,-0.0042 0.132416,1.15786 0.132416,2.582844 0,2.285032 -0.148402,2.628136 -1.257104,2.906398 -2.99931,0.752781 -3.147568,6.935652 -0.19114,7.97116 1.158704,0.405848 1.656892,0.321383 2.383475,-0.404099 0.784814,-0.783623 0.94295,-2.226346 1.085915,-9.907129 0.192997,-10.368775 0.32523,-10.113123 -4.508741,-8.716982 -4.794182,1.38465 -4.92766,1.608211 -4.92766,8.253327 0,5.515466 -0.04006,5.71303 -1.191737,5.876594 -0.728996,0.103533 -1.537324,0.861414 -2.081755,1.951833 l -0.890018,1.782574 -0.604601,-2.245318 C 9.0939965,76.65107 8.8983051,73.726378 8.8983051,52.141361 l 0,-21.494267 1.5889829,-2.815524 c 0.873941,-1.548537 1.588983,-3.162588 1.588983,-3.586779 0,-0.424191 0.235711,-0.916933 0.523802,-1.094983 0.42635,-0.263499 9.872442,1.686798 10.52103,2.172235 0.10273,0.07689 0.02238,1.335163 -0.178562,2.796166 -0.334072,2.428994 -0.519442,2.707227 -2.165633,3.250519 -2.585878,0.853416 -2.665779,1.437469 -0.293869,2.14811 2.013757,0.603336 2.092966,0.716082 2.436875,3.468638 0.195505,1.564768 0.558481,2.845032 0.806612,2.845032 0.248132,0 0.64809,-1.230251 0.888795,-2.733891 0.390569,-2.439816 0.618722,-2.795904 2.12103,-3.310382 2.594906,-0.888648 2.657022,-1.311663 0.327,-2.226922 -2.005259,-0.787689 -2.168822,-1.010189 -2.429326,-3.304686 -0.15362,-1.353075 -0.162223,-2.579309 -0.01912,-2.724966 0.143106,-0.145657 2.420088,-0.349414 5.059961,-0.452794 l 4.799769,-0.187963 -0.3339,1.247285 c -0.183645,0.686007 -0.337154,2.598628 -0.341132,4.250269 l -0.0072,3.002984 -2.599347,0.863365 c -3.338196,1.10877 -5.125056,2.791768 -5.859366,5.518789 -0.510369,1.895366 -0.779466,2.177557 -2.076513,2.177557 -1.325533,0 -1.670311,0.394969 -3.12089,3.575211 -1.988354,4.359262 -2.765672,8.41998 -2.756143,14.398125 0.009,5.64744 0.325515,6.920731 1.720346,6.920731 1.005554,0 1.054672,-0.234923 0.766874,-3.667783 -0.169122,-2.017281 -0.170346,-4.996624 -0.0027,-6.620763 l 0.304757,-2.952979 2.574204,0 2.574204,0 0,6.059843 c 0,3.332913 0.202391,6.184927 0.449758,6.337808 0.247367,0.152882 0.593591,2.133314 0.769385,4.400963 0.175795,2.267648 0.686624,5.160772 1.135175,6.429167 0.730839,2.066642 0.731365,2.273871 0.005,1.995159 -1.113374,-0.427241 -1.57435,1.031287 -0.837248,2.649051 1.433959,3.147193 9.240295,4.524206 13.917914,2.455069 3.233734,-1.430434 4.303605,-2.58117 3.60807,-3.880794 -0.300961,-0.562394 -0.896357,-1.022537 -1.323078,-1.022537 -0.943229,0 -0.942748,0.168596 -0.0077,-2.686367 0.422502,-1.289979 1.031849,-3.374327 1.354104,-4.631889 l 0.585918,-2.286477 3.54526,0.132651 3.54526,0.13265 0.611003,-2.877953 c 1.230495,-5.795892 0.60385,-14.6711 -1.399919,-19.827107 l -0.617523,-1.588983 -0.969098,1.189803 c -0.550992,0.676477 -0.849363,1.64767 -0.691573,2.251059 0.243482,0.931078 0.01804,1.061257 -1.83786,1.061257 l -2.115384,0 -1.10687,-4.41323 c -0.608779,-2.427276 -1.268993,-4.870337 -1.467143,-5.429025 -0.295411,-0.83292 -0.23181,-0.896601 0.353276,-0.35372 1.005018,0.932521 1.310974,0.837647 1.971125,-0.611228 0.469138,-1.029645 0.40939,-1.416066 -0.312227,-2.01934 -1.681755,-1.40595 -3.618819,-2.435167 -5.830041,-3.097665 l -2.212766,-0.662961 0,-4.091674 c 0,-4.797875 -0.09794,-4.726016 6.457088,-4.737654 2.515531,-0.0045 4.219094,-0.242623 4.453971,-0.622662 0.287152,-0.464622 -2.605704,-0.526412 -11.805447,-0.25216 -9.80237,0.292218 -12.833698,0.212126 -15.498305,-0.409485 -1.821877,-0.425015 -3.38588,-0.847824 -3.475561,-0.939577 -0.08968,-0.09175 5.952832,-0.188079 13.42781,-0.214058 7.474977,-0.02598 16.093516,-0.204703 19.152308,-0.397163 5.036976,-0.316929 5.436568,-0.276782 4.237289,0.425712 -0.728284,0.426602 -1.860435,0.784086 -2.51589,0.794409 -0.655456,0.01032 -1.191738,0.271721 -1.191738,0.580884 0,0.359344 0.812022,0.444512 2.25106,0.236099 2.131363,-0.30868 2.303733,-0.232956 3.241669,1.424114 2.78184,4.914731 3.642567,10.690289 2.352597,15.786147 -0.405334,1.601216 -0.5629,8.206949 -0.480089,20.127118 l 0.123266,17.743644 -1.41846,3.972458 c -2.772327,7.764015 -4.406505,9.375153 -7.470528,7.36518 z m 2.721083,-7.339333 c 0.328944,-2.391705 0.51909,-2.67474 2.160969,-3.21661 2.5874,-0.853919 2.670069,-1.447744 0.290741,-2.088432 -1.996514,-0.537606 -2.101499,-0.674889 -2.449159,-3.202685 -0.461822,-3.357843 -1.188098,-3.384017 -1.629215,-0.05871 -0.324565,2.446689 -0.451482,2.61492 -2.417006,3.203808 -2.36521,0.708633 -2.283267,1.293194 0.300828,2.146022 1.641878,0.54187 1.832025,0.824905 2.160968,3.21661 0.198375,1.442352 0.554297,2.622458 0.790937,2.622458 0.236641,0 0.592563,-1.180106 0.790937,-2.622458 z M 16.015275,44.371087 c 0.314664,-2.098329 0.554741,-2.42442 2.179761,-2.960725 2.277772,-0.751733 2.311617,-1.287382 0.121039,-1.915631 -1.423079,-0.408134 -1.780277,-0.836947 -2.159544,-2.592511 -0.78715,-3.643597 -1.045921,-3.770929 -1.64946,-0.811641 -0.533981,2.61823 -0.743972,2.92137 -2.30366,3.325525 -2.2082502,0.572215 -2.177535,1.239294 0.09154,1.988158 1.650396,0.544679 1.839052,0.824785 2.168415,3.219541 0.428471,3.115357 1.062311,3.012141 1.551906,-0.252716 z M 49.544374,41.35763 c 0.236923,-6.307173 0.587101,-7.748038 1.967213,-8.094424 0.687594,-0.172575 1.629835,-0.459464 2.093868,-0.63753 0.687423,-0.263789 0.843698,0.07917 0.843698,1.851554 0,1.532164 -0.223713,2.175312 -0.756659,2.175312 -1.286945,0 -2.421308,1.583219 -2.421308,3.379396 0,3.442056 2.675871,4.69523 4.083762,1.912523 0.770681,-1.523259 0.959708,-14.062739 0.21889,-14.52059 -0.555997,-0.343625 -5.878116,1.164615 -6.818541,1.932313 -0.439355,0.358659 -0.662077,2.122252 -0.662077,5.242569 0,4.368147 -0.07617,4.702094 -1.072431,4.702094 -2.133024,0 -2.6264,4.170419 -0.719025,6.077793 0.746773,0.746774 0.998613,0.760421 1.985433,0.107591 0.930072,-0.615288 1.152662,-1.34628 1.257177,-4.128601 z"
     id="path3404"
     inkscape:connector-curvature="0" /></svg>