<?xml version="1.0" encoding="UTF-8" standalone="no"?>
<svg
   xmlns:dc="http://purl.org/dc/elements/1.1/"
   xmlns:cc="http://creativecommons.org/ns#"
   xmlns:rdf="http://www.w3.org/1999/02/22-rdf-syntax-ns#"
   xmlns:svg="http://www.w3.org/2000/svg"
   xmlns="http://www.w3.org/2000/svg"
   xmlns:sodipodi="http://sodipodi.sourceforge.net/DTD/sodipodi-0.dtd"
   xmlns:inkscape="http://www.inkscape.org/namespaces/inkscape"
   version="1.1"
   x="0px"
   y="0px"
   viewBox="0 0 100 125"
   enable-background="new 0 0 100 100"
   xml:space="preserve"
   id="svg2"
   inkscape:version="0.91 r13725"
   sodipodi:docname="lunchjarcol.svg"><metadata
     id="metadata28"><rdf:RDF><cc:Work
         rdf:about=""><dc:format>image/svg+xml</dc:format><dc:type
           rdf:resource="http://purl.org/dc/dcmitype/StillImage" /><dc:title></dc:title></cc:Work></rdf:RDF></metadata><defs
     id="defs26" /><sodipodi:namedview
     pagecolor="#ffffff"
     bordercolor="#666666"
     borderopacity="1"
     objecttolerance="10"
     gridtolerance="10"
     guidetolerance="10"
     inkscape:pageopacity="0"
     inkscape:pageshadow="2"
     inkscape:window-width="640"
     inkscape:window-height="480"
     id="namedview24"
     showgrid="false"
     inkscape:zoom="1.888"
     inkscape:cx="50"
     inkscape:cy="62.5"
     inkscape:window-x="566"
     inkscape:window-y="235"
     inkscape:window-maximized="0"
     inkscape:current-layer="svg2" /><path
     d="M59.976,33.135c-0.229-1.238-0.618-2.392-0.996-3.509c-0.236-0.701-0.481-1.426-0.679-2.152  c-0.249-0.923-0.722-1.792-1.329-2.449c-0.787-0.847-1.072-1.507-0.933-2.167c0.126-0.07,0.252-0.144,0.38-0.218  c0.118-0.07,0.239-0.133,0.361-0.197c0.656-0.345,1.647-0.867,1.642-2.183c-0.004-0.931-0.249-1.687-0.691-2.184  c0.204-0.202,0.368-0.478,0.437-0.861c0.106-0.584-0.137-1.141-0.625-1.501c-0.031-0.381-0.139-0.763-0.237-1.113  c-0.017-0.06-0.037-0.116-0.064-0.171l-0.002-0.054c-0.015-0.218-0.093-0.418-0.215-0.582c0.093-0.083,0.206-0.193,0.31-0.35  c0.167-0.257,0.202-0.539,0.227-0.725c0.005-0.035,0.009-0.07,0.014-0.099l0.03-0.149c0.111-0.531,0.28-1.334-0.131-1.909  c-0.024-0.033-0.049-0.065-0.076-0.095c0.019-0.174,0.021-0.343,0.016-0.502c0.034-0.225,0.027-0.432,0.021-0.618l-0.028-1.176  C57.401,8,57.357,7.837,57.278,7.693c-0.011-0.048-0.022-0.095-0.034-0.142c-0.089-0.324-0.319-0.569-0.619-0.676  c-0.066-0.038-0.137-0.068-0.212-0.089c-0.709-1.237-2.778-1.744-3.343-1.807c-0.527-0.061-1.173-0.249-1.733-0.426  c-0.444-0.141-0.932-0.189-1.361-0.232c-0.124-0.012-0.246-0.024-0.362-0.038c-0.463-0.056-0.924-0.125-1.384-0.193  c-0.91-0.135-1.851-0.274-2.813-0.317c-0.95-0.042-1.924-0.129-2.868-0.214c-1.349-0.121-2.745-0.246-4.16-0.246  c-0.586,0-1.188-0.023-1.771-0.045c-1.006-0.037-2.098-0.046-3.186-0.036c-0.458,0.005-0.917,0.01-1.375,0.01  c-0.656,0-1.193-0.01-1.695-0.032c-0.423-0.017-0.863-0.026-1.309-0.026c-1.97,0-3.847,0.168-5.834,0.345l-0.876,0.078  c-0.468,0.041-0.934,0.092-1.4,0.144c-0.895,0.098-1.74,0.192-2.604,0.213C17.201,3.992,16.18,4.17,15.1,4.358l-0.518,0.089  c-1.036,0.177-1.913,0.515-2.911,0.968c-0.057,0.026-0.137,0.053-0.227,0.085c-0.469,0.166-1.643,0.582-1.605,1.552  C9.716,7.16,9.618,7.299,9.556,7.46c-0.08,0.208-0.09,0.425-0.038,0.625c-0.148,0.559-0.29,1.142-0.09,1.92  c0.122,0.47,0.409,0.845,0.756,1.169c-0.038,0.065-0.067,0.134-0.088,0.206c-0.021,0.035-0.041,0.072-0.058,0.11  c-0.041,0.063-0.076,0.125-0.108,0.187c-0.213,0.151-0.362,0.386-0.4,0.662c-0.031,0.226,0.015,0.444,0.12,0.626  c0.01,0.182,0.042,0.351,0.072,0.516c0.013,0.065,0.026,0.135,0.039,0.211c0.02,0.115,0.058,0.223,0.113,0.322  c0.038,0.117,0.089,0.224,0.153,0.32c0.028,0.066,0.062,0.136,0.106,0.205c-0.012,0.009-0.023,0.019-0.034,0.028  c-0.35,0.139-0.622,0.422-0.743,0.776c-0.377,0.488-0.554,1.093-0.478,1.654c0.086,0.612,0.367,1.02,0.698,1.294  c-0.019,0.026-0.038,0.053-0.056,0.08C9.097,19,8.914,19.807,9.047,20.479c0.152,0.776,0.666,1.405,1.565,1.917  c0.142,0.443,0.004,1.053-0.13,1.645c-0.037,0.167-0.075,0.332-0.104,0.488c-0.125,0.641-0.662,1.418-1.093,2.043l-0.1,0.144  c-1.205,1.753-2.288,3.506-2.305,5.668c-0.008,1.065,0.05,2.133,0.108,3.167c0.053,0.975,0.109,1.982,0.106,2.964  c-0.001,0.37-0.015,0.735-0.03,1.099c-0.026,0.679-0.052,1.382,0.001,2.108c0.047,0.627,0.04,1.258,0.032,1.925  c-0.005,0.398-0.009,0.797-0.002,1.194c0.024,1.285-0.082,2.599-0.184,3.87c-0.044,0.556-0.089,1.111-0.125,1.667  c-0.087,1.402-0.025,2.814,0.036,4.181c0.039,0.859,0.079,1.749,0.079,2.61v0.426c-0.001,0.983-0.001,2,0.02,3.003  c0.014,0.615-0.027,1.222-0.07,1.863c-0.032,0.491-0.066,0.999-0.073,1.514c-0.009,0.624,0.006,1.251,0.022,1.858  c0.012,0.465,0.023,0.93,0.024,1.394c0,0.092-0.003,0.186-0.006,0.278c-0.014,0.426-0.03,0.942,0.215,1.433  c-0.001,0.128-0.006,0.258-0.012,0.385c-0.01,0.259-0.02,0.504,0.001,0.728c0.004,0.046,0.008,0.091,0.01,0.137  c-0.027,0.452-0.045,0.862-0.002,1.269c0.035,0.319,0.033,0.664,0.032,1.029c-0.001,0.272-0.001,0.544,0.012,0.809  c0.029,0.607,0.098,1.206,0.163,1.784l0.14,1.276c0.224,2.107,0.457,4.284,1.043,6.442c0.772,2.845,1.818,5.253,3.109,7.155  c0.219,0.324,0.47,0.624,0.711,0.914c0.153,0.185,0.308,0.368,0.45,0.557c0.103,0.135,0.198,0.298,0.3,0.47  c0.143,0.242,0.304,0.515,0.512,0.76c0.041,0.047,0.083,0.095,0.126,0.141c0.188,0.385,0.538,0.701,0.978,0.877  c0.299,0.22,0.624,0.423,0.987,0.618c0.063,0.046,0.129,0.089,0.194,0.125c0.076,0.045,0.157,0.077,0.247,0.098  c0.203,0.1,0.41,0.191,0.622,0.28c1.988,0.83,4.306,1.353,6.889,1.555c0.169,0.047,0.314,0.096,0.449,0.15  c0.406,0.168,0.84,0.229,1.261,0.288c0.292,0.04,0.569,0.079,0.791,0.149c0.816,0.259,1.645,0.339,2.445,0.417  c0.63,0.062,1.225,0.12,1.786,0.259c0.397,0.099,0.843,0.146,1.362,0.146c0.617,0,1.242-0.069,1.792-0.13l0.156-0.017  c0.451-0.049,0.924-0.052,1.41-0.052h0.242c0.434,0,0.846-0.052,1.244-0.101c0.356-0.044,0.691-0.084,1.021-0.088  c1.174-0.011,2.307-0.261,3.403-0.502l0.544-0.118c0.315-0.067,0.645-0.126,0.979-0.187c1.031-0.188,2.099-0.38,3.048-0.822  c0.214-0.098,0.422-0.209,0.63-0.319c0.325-0.173,0.632-0.334,0.944-0.44c0.187-0.062,0.375-0.12,0.563-0.181  c0.407-0.128,0.83-0.262,1.245-0.432c0.213-0.086,0.43-0.169,0.649-0.253c0.142-0.053,0.286-0.106,0.43-0.164  c0.114,0.054,0.244,0.084,0.381,0.084c0.651,0,1.226-0.271,1.708-0.801c0.1-0.111,0.238-0.223,0.384-0.341l0.053-0.043  c0.449-0.24,0.814-0.504,1.116-0.804c0.184-0.186,0.287-0.43,0.301-0.685c0.061-0.07,0.121-0.143,0.18-0.214  c1.188-1.436,2.08-2.822,2.731-4.241c0.11-0.239,0.222-0.477,0.333-0.713c0.565-1.202,1.15-2.444,1.423-3.827l0.085-0.432  c0.153-0.751,0.311-1.528,0.349-2.335c0.011-0.262,0.043-0.523,0.076-0.801c0.085-0.703,0.182-1.499-0.082-2.327  c0,0,0-0.002,0-0.003c0.003-0.322,0.037-0.654,0.072-1.002c0.064-0.641,0.131-1.299,0.02-1.999  c-0.044-0.273-0.029-0.539-0.012-0.846c0.008-0.126,0.015-0.255,0.019-0.387c0.006-0.217,0.001-0.429-0.008-0.623  c0.087-0.104,0.155-0.226,0.203-0.358c0.101-0.278,0.1-0.588,0.004-0.863c0.008-0.593,0.027-1.201,0.048-1.79  c0.046-1.393,0.095-2.831-0.022-4.247c-0.188-2.271-0.217-4.587-0.219-6.55c0-0.205-0.005-0.418-0.014-0.663  c0.163-0.204,0.256-0.464,0.256-0.746c0.002-2.409,0.092-4.854,0.178-7.221c0.034-0.917,0.067-1.835,0.097-2.754  c0.017-0.527-0.027-1.039-0.07-1.533c-0.032-0.387-0.063-0.753-0.066-1.117c-0.004-0.383,0.014-0.765,0.031-1.17  c0.021-0.483,0.044-0.982,0.028-1.491c-0.014-0.461,0.056-0.963,0.13-1.493l0.043-0.271c0.027-0.184,0.057-0.367,0.085-0.55  c0.126-0.798,0.256-1.623,0.251-2.482c-0.001-0.312,0.013-0.622,0.025-0.93C60.087,34.66,60.119,33.913,59.976,33.135z   M17.337,20.074c-1.073-0.25-2.185-0.293-3.255-0.573c-0.325-0.084-0.814-0.164-1.26-0.282c-0.328-0.245-0.487-0.525-0.646-0.881  c1.228,0.223,2.438,0.477,3.65,0.792c1.486,0.387,3.036,0.533,4.554,0.735c1.324,0.177,2.578,0.266,3.915,0.223  c1.36-0.045,2.718,0.124,4.078,0.065c2.785-0.119,5.574-0.457,8.355-0.666c0.047-0.004,0.049-0.078,0-0.077  c-0.983,0.03-1.965,0.146-2.945,0.224c-1.173,0.094-2.346-0.108-3.524-0.045c-2.345,0.124-4.627-0.176-6.969-0.253  c-1.083-0.036-2.175-0.264-3.251-0.407c-1.335-0.177-2.666-0.346-3.977-0.657c-1.029-0.246-2.145-0.667-3.205-0.725  c-0.562-0.03-1.109-0.158-1.665-0.23c-0.197-0.025-0.441-0.073-0.654-0.166c-0.128-0.104-0.162-0.222-0.182-0.358  c-0.024-0.177,0.072-0.423,0.233-0.601l0.163-0.177l0.008-0.072l0.16-0.022l0.003-0.004c-0.026,0.099-0.008,0.208,0.055,0.291  c-0.021,0.181,0.055,0.381,0.213,0.466c0.124,0.066,0.266,0.105,0.413,0.136c-0.021,0.061,0.005,0.138,0.092,0.143  c0.37,0.017,0.732,0.411,1.147,0.491c1.008,0.189,2.019,0.338,3.04,0.436c0.061,0.006,0.106-0.016,0.139-0.051  c0.002,0,0.005,0,0.008-0.001c0.554,0.144,1.103,0.097,1.681,0.111c0.405,0.01,0.81,0.039,1.214,0.066  c-0.061,0.014-0.123,0.029-0.184,0.047c-0.121,0.038-0.071,0.225,0.053,0.191c0.595-0.165,1.226-0.076,1.835-0.082  c0.139-0.001,0.139-0.21,0-0.215c-0.064-0.001-0.127-0.004-0.191-0.006c-0.005-0.032-0.021-0.062-0.062-0.071  c-0.286-0.057-0.574-0.097-0.863-0.128c0.026-0.102-0.018-0.228-0.134-0.249c-0.952-0.183-1.909-0.28-2.862-0.478  c-0.385-0.079-0.769-0.154-1.152-0.229c-0.014-0.075-0.063-0.142-0.163-0.17c-0.556-0.154-1.108-0.271-1.607-0.576  c-0.371-0.225-0.595-0.632-1.011-0.773c-0.056-0.019-0.106-0.006-0.147,0.021c-0.084-0.087-0.18-0.163-0.304-0.229  c-0.014-0.006-0.027-0.01-0.04-0.012c-0.002-0.02-0.006-0.04-0.011-0.057c-0.006-0.063-0.016-0.125-0.03-0.186  c0.044,0.006,0.086,0.009,0.129,0.01c0.244,0.125,0.492,0.228,0.69,0.294c0.256,0.084,0.752,0.387,1.058,0.39  c0.342,0.005,0.682,0.025,1.023,0.04c0.109,0.006,0.113-0.142,0.024-0.177c-0.471-0.185-0.955-0.195-1.438-0.318  c0.08-0.102,0.092-0.266-0.048-0.357c-0.001-0.001-0.004-0.001-0.005-0.003c0.185,0.013,0.367,0.021,0.537,0.027  c0.3,0.009,0.375-0.411,0.137-0.534c0.026-0.111-0.018-0.232-0.165-0.263c-0.719-0.111-1.383-0.448-2.103-0.525  c-0.146-0.076-0.296-0.148-0.448-0.217c0.065-0.059,0.11-0.143,0.11-0.236v0c0.016,0,0.031,0.001,0.049,0.002  c0.396,0.006,0.731,0.266,1.117,0.283c0.304,0.014,0.589,0.04,0.866-0.018c0.314,0.084,0.63,0.158,0.949,0.197  c0.806,0.098,1.593,0.29,2.402,0.365c0.917,0.086,1.844-0.04,2.762-0.04c0.256,0,0.32-0.396,0.062-0.453  c-1.461-0.317-3.029-0.368-4.426-0.899c-0.618-0.234-1.303-0.547-2.001-0.741c0.144,0.024,0.303-0.133,0.204-0.282  c-0.425-0.644-0.579-1.305-0.675-2.053c0.21,0.083,0.421,0.161,0.632,0.24c-0.04,0.574-0.008,1.23,0.43,1.636  c0.147,0.137,0.33,0.079,0.412-0.051c0.155,0.335,0.397,0.626,0.694,0.79c0.175,0.097,0.431-0.111,0.295-0.294  c-0.361-0.485-0.828-1.244-0.656-1.881c0.064,0.002,0.131,0.006,0.203,0.016c0.238,0.033,0.479,0.158,0.726,0.234  c-0.001,0.125,0.002,0.248,0.007,0.366c0.022,0.571,0.172,1.128,0.568,1.55c0.166,0.176,0.505-0.004,0.418-0.242  c-0.131-0.354-0.265-0.702-0.348-1.07c-0.028-0.127-0.068-0.31-0.094-0.501c0.124,0.019,0.249,0.037,0.373,0.055  c-0.004,0.115,0.003,0.233,0.013,0.348c0.057,0.65,0.204,1.3,0.67,1.776c0.16,0.163,0.481-0.002,0.398-0.233  c-0.121-0.336-0.25-0.671-0.347-1.017c-0.04-0.139-0.161-0.503-0.192-0.801c0.257,0.033,0.515,0.062,0.775,0.083  c0.042,0.003,0.074-0.009,0.098-0.03c0.071,0.669,0.179,1.387,0.536,1.947c0.147,0.23,0.484,0.08,0.43-0.182  c-0.117-0.572-0.255-1.172-0.441-1.738c0.205,0.016,0.412,0.021,0.586,0.02c0.193-0.002,0.379,0.018,0.566,0.042  c-0.003,0.057-0.004,0.113-0.006,0.162c-0.016,0.598-0.009,1.326,0.475,1.752c0.167,0.145,0.516,0.008,0.413-0.241  c-0.146-0.353-0.253-0.698-0.299-1.079c-0.014-0.11-0.056-0.326-0.069-0.528c0.106,0.014,0.212,0.026,0.32,0.032  c0.158,0.012,0.316,0.015,0.474,0.015c-0.02,0.146-0.017,0.301-0.013,0.449c0.013,0.479,0.146,1.334,0.632,1.558  c0.143,0.066,0.353-0.008,0.341-0.195c-0.024-0.377-0.259-0.732-0.356-1.101c-0.029-0.112-0.131-0.493-0.1-0.711  c0.162-0.001,0.323-0.001,0.484,0.003c0.329,0.009,0.642,0.091,0.96,0.152c-0.047,0.232-0.039,0.477,0,0.714  c0.058,0.341,0.146,0.932,0.505,1.089c0.206,0.091,0.394-0.019,0.42-0.24c0.032-0.27-0.185-0.558-0.272-0.807  c-0.075-0.218-0.128-0.461-0.113-0.696c0.414,0.005,0.917-0.104,1.339-0.133c-0.002,0.548,0.128,1.109,0.415,1.575  c0.119,0.194,0.486,0.132,0.46-0.125c-0.05-0.516-0.278-0.984-0.345-1.498c0.529-0.06,1.056-0.158,1.587-0.201  c0.207-0.017,0.212-0.321,0-0.326c-0.81-0.017-1.61,0.106-2.419,0.109c-0.764,0.003-1.413-0.056-2.162-0.179  c-0.664-0.107-1.341-0.042-2.001-0.166c-0.021-0.004-0.044-0.009-0.065-0.013c-0.024-0.029-0.055-0.051-0.093-0.059  c-0.073-0.014-0.132-0.009-0.186,0.004C19.49,9.591,19.012,9.506,18.582,9.5c-1.413-0.021-2.807-0.54-4.081-1.063  c-0.953-0.393-1.901-1.121-2.926-1.392c0.134-0.057,0.28-0.109,0.367-0.14c0.137-0.049,0.258-0.093,0.345-0.132  c0.918-0.417,1.663-0.706,2.544-0.855l0.523-0.09c1.025-0.178,1.993-0.347,3.022-0.373c0.072-0.002,0.143-0.007,0.216-0.009  c-0.295,0.078-0.588,0.17-0.875,0.277c-0.382-0.019-0.821,0.048-1.19,0.228c-0.242,0.033-0.479,0.143-0.691,0.249  c-0.285,0.144-0.698,0.361-0.786,0.698c-0.115,0.443,0.276,0.656,0.635,0.762c0.4,0.12,0.773,0.292,1.232,0.059  c0.001-0.001,0.002-0.002,0.003-0.004c1.174,0.383,1.965,0.7,3.028,0.743c0.593,0.163,1.229,0.269,1.763,0.398  c1.029,0.25,2.103,0.351,3.144,0.515c1.187,0.186,2.358,0.368,3.562,0.279c1.184-0.087,2.367-0.124,3.55-0.209  c1.333-0.095,2.67-0.04,4.005-0.098c1.308-0.059,2.626-0.198,3.935-0.19c1.181,0.004,2.249-0.069,3.414-0.249  c0.462-0.072,0.938-0.094,1.391-0.211c0.194-0.05,0.389-0.132,0.585-0.207c0.272,0.006,0.544-0.011,0.824-0.072  c0.001-0.001,0.001-0.001,0.003-0.002c0.01,0.002,0.02,0,0.029-0.008c0.001-0.001,0.003-0.004,0.006-0.006  c0.03-0.011,0.058-0.024,0.081-0.042c0.063-0.013,0.126-0.025,0.19-0.038c0.113,0.024,0.225,0.05,0.333,0.087  c0.235,0.079,0.408-0.056,0.475-0.237c0.591-0.103,1.186-0.192,1.775-0.26c0.373-0.043,0.734-0.137,1.093-0.239  c0.368-0.014,0.819-0.075,1.105-0.281c0.046-0.009,0.093-0.019,0.139-0.027c0.3-0.047,0.368-0.467,0.174-0.656  c-0.016-0.016-0.036-0.028-0.054-0.042c-0.005-0.028-0.009-0.054-0.017-0.084c-0.099-0.36-0.526-0.566-0.87-0.591  c-0.35-0.024-0.679-0.109-1.003-0.207c0.082,0.008,0.163,0.018,0.249,0.026c0.375,0.038,0.764,0.076,1.062,0.17  c0.627,0.198,1.358,0.411,2.012,0.485c0.847,0.096,2.207,0.748,2.26,1.183l0.011,0.085c-0.928,0.247-1.841,0.546-2.811,0.651  c-0.568,0.062-1.126,0.213-1.682,0.385c-0.088-0.016-0.189,0.016-0.262,0.082c-0.804,0.256-1.605,0.531-2.43,0.619  c-0.061,0.006-0.121,0.011-0.181,0.017c-0.009-0.017-0.011-0.033-0.02-0.049c-0.06-0.111-0.223-0.188-0.346-0.141  c-0.143,0.056-0.215,0.132-0.254,0.248c-0.245,0.021-0.49,0.041-0.735,0.059c-0.136-0.17-0.396-0.134-0.492,0.037  c-0.721,0.051-1.441,0.101-2.16,0.177c-0.748,0.079-1.488,0.175-2.234,0.264c-0.606,0.072-1.227-0.083-1.801,0.139  c-0.148,0.058-0.09,0.259,0.065,0.236c0.166-0.026,0.323-0.021,0.478-0.008c-0.055,0.065-0.083,0.15-0.05,0.247  c0.097,0.279,0.058,0.588,0.051,0.88c-0.006,0.304,0.002,0.601,0.04,0.904c0.048,0.366,0.523,0.366,0.57,0  c0.078-0.608,0.142-1.391-0.108-1.969c0.064,0.009,0.129,0.02,0.195,0.027c0.36,0.039,0.757-0.062,1.117-0.083  c0.374-0.023,0.744-0.086,1.115-0.149c-0.021,0.323,0.031,0.641,0.026,0.965c-0.006,0.379-0.019,0.738,0.242,1.037  c0.132,0.151,0.437,0.081,0.471-0.125c0.109-0.637-0.08-1.332-0.181-1.965c0.187-0.027,0.373-0.048,0.561-0.06  c0.155-0.009,0.308-0.017,0.458-0.025c0.005,0.027,0.009,0.055,0.023,0.083c0.29,0.588-0.012,1.347,0.158,1.974  c0.078,0.288,0.504,0.288,0.583,0c0.109-0.402,0.064-0.833,0.056-1.245c-0.008-0.3-0.052-0.588-0.175-0.856  c0.165-0.014,0.33-0.033,0.497-0.058c0.085,0.625-0.098,1.267,0.047,1.883c0.072,0.309,0.541,0.303,0.617,0  c0.149-0.593,0.127-1.33-0.041-1.947c0.225-0.01,0.452-0.009,0.678-0.01c0.004,0.19-0.014,0.382,0.014,0.571  c0.07,0.461,0.039,0.928,0.127,1.387c0.059,0.307,0.559,0.307,0.617,0c0.09-0.472,0.05-0.93-0.024-1.402  c-0.031-0.199-0.038-0.394-0.063-0.583c0.114-0.012,0.229-0.026,0.34-0.05c0.129-0.026,0.257-0.055,0.385-0.083  c0.012,0.009,0.022,0.02,0.038,0.027c0.054,0.024-0.032,0.735-0.04,0.847c-0.032,0.434-0.187,1.211,0.171,1.533  c0.112,0.101,0.263,0.101,0.374,0c0.273-0.245,0.202-0.634,0.19-0.971c-0.009-0.287-0.014-0.573-0.014-0.86  c0-0.201-0.017-0.486-0.11-0.707c0.345-0.079,0.689-0.158,1.033-0.237c-0.008,0.428,0.029,0.859-0.004,1.288  c-0.037,0.49-0.136,0.993,0.02,1.471c0.092,0.284,0.464,0.271,0.561,0c0.324-0.905,0.194-1.954,0.037-2.899  c0.29-0.067,0.58-0.132,0.871-0.196c-0.029,0.038-0.053,0.082-0.058,0.133c-0.038,0.374-0.004,0.729,0.047,1.101  c0.066,0.468-0.033,0.945,0.093,1.405c0.084,0.308,0.538,0.308,0.622,0c0.235-0.863-0.112-1.728-0.241-2.577  c-0.011-0.067-0.041-0.113-0.08-0.144c0.159-0.034,0.319-0.07,0.48-0.102c0.15-0.03,0.299-0.061,0.445-0.091  c-0.03,0.062-0.042,0.135-0.017,0.214c0.244,0.763-0.126,1.63,0.081,2.423c0.085,0.319,0.562,0.319,0.646,0  c0.023-0.089,0.037-0.178,0.049-0.269c0.013,0.151,0.029,0.303,0.057,0.454c0.006,0.033,0.02,0.061,0.035,0.087  c-0.255,0.046-0.509,0.103-0.762,0.18c-0.044,0.007-0.09,0.014-0.134,0.021c-0.387,0.038-0.773,0.07-1.149,0.095  c-0.191,0.012-0.275,0.162-0.259,0.302c-0.504,0.092-1.007,0.189-1.505,0.302c-0.26,0.059-0.292,0.387-0.151,0.556  c-0.173,0.053-0.342,0.116-0.504,0.193c-0.123,0.061-0.176,0.19-0.173,0.321c-0.132,0.037-0.263,0.08-0.387,0.141  c-0.327,0.158-0.176,0.721,0.187,0.691c0.649-0.055,1.302-0.178,1.951-0.292c-0.055,0.101-0.053,0.221-0.001,0.331  c-0.238,0.058-0.483,0.125-0.711,0.194c-0.89,0.27-1.81,0.438-2.714,0.67c-0.729,0.187-1.462,0.293-2.199,0.365  c-0.032-0.037-0.078-0.063-0.141-0.066c-1.311-0.062-2.662,0.169-3.979,0.195c-1.312,0.024-2.621,0.021-3.935,0.021  c-1.289-0.002-2.57,0.002-3.857,0.069c-1.249,0.065-2.516,0.188-3.763,0.2c-1.164,0.009-2.24,0.288-3.421,0.105  c-1.254-0.195-2.533-0.126-3.785-0.347c-1.002-0.176-1.931-0.207-2.945-0.132c-0.507,0.036-0.988-0.024-1.489,0  c-0.572,0.028-1.362,0.05-1.917-0.05c-0.181-0.033-0.24,0.201-0.075,0.269c0.528,0.215,1.092,0.162,1.645,0.297  c0.186,0.046,0.389,0.079,0.594,0.104c0.208,0.062,0.412,0.127,0.604,0.193c0.689,0.237,1.55,0.2,2.264,0.303  c1.483,0.214,2.982,0.372,4.485,0.391c3.899,0.05,7.776-0.017,11.673-0.134c3.176-0.095,6.361-0.599,9.497-1.068  c0.808-0.122,1.578-0.417,2.378-0.575c0.327-0.064,0.673-0.112,0.981-0.245c0.197-0.084,0.971-0.215,1.136-0.381  c0.055-0.055,0.159-0.1,0.286-0.139c0.16-0.034,0.342-0.071,0.535-0.116c0.326-0.052,0.654-0.086,0.799-0.121  c0.332-0.079,0.668-0.082,0.997-0.164c0.235-0.059,0.497-0.175,0.754-0.293c0.034,0.207,0.127,0.446,0.352,0.643  c-0.348,0.122-0.712,0.244-0.839,0.304c-0.374,0.173-0.688,0.375-1.027,0.536c-0.186,0.053-0.369,0.105-0.554,0.16  c-1.234,0.141-2.517,0.149-3.629,0.658c-0.301,0.054-0.599,0.137-0.935,0.247c-0.228,0.074-0.171,0.377,0.054,0.4  c0.334,0.033,0.3,0.031,0.627-0.058c0.093-0.025,0.185-0.043,0.276-0.062c0.058,0.03,0.125,0.04,0.199,0.014  c0.118-0.039,0.239-0.073,0.361-0.104c0.251-0.027,0.504-0.042,0.771-0.048c0.338-0.009,0.69-0.098,1.041-0.205  c0.009,0.019,0.021,0.035,0.035,0.048c-0.323,0.101-0.642,0.22-0.979,0.355c-0.885,0.355-1.939,0.423-2.868,0.587  c-0.565,0.099-1.124,0.264-1.681,0.417c-0.408,0.027-0.815,0.061-1.226,0.066c-2.518,0.03-5.002,0.282-7.472,0.73  C37.137,18.81,37.168,19,37.287,19c1.175-0.011,2.354-0.035,3.525-0.12c0.585-0.042,1.161,0.17,1.766,0.135  c0.034-0.002,0.067-0.002,0.101-0.004c-0.016,0-0.032,0.003-0.049,0.004c-1.722,0.138-3.436,0.227-5.158,0.392  c-0.055,0.005-0.057,0.085,0,0.088c1.087,0.063,2.175-0.1,3.265-0.074c1.062,0.026,2.106,0.088,3.17,0.046  c2.04-0.078,4.082-0.21,6.118-0.22c1-0.006,2.122-0.309,3.103-0.495c0.396-0.076,0.802-0.155,1.172-0.317  c0.049-0.021,0.1-0.038,0.149-0.055l-0.012,0.047l0.122,0.24c0.045,0.091,0.153,0.306,0.392,0.432  c0.117,0.063,0.249,0.093,0.396,0.1c-0.092,0.066-0.186,0.129-0.279,0.195c-0.184,0.125-0.368,0.258-0.544,0.398  c-0.506,0.075-0.977,0.268-1.503,0.361c-0.922,0.163-1.874,0.17-2.802,0.289c-1.824,0.233-3.641,0.37-5.479,0.402  c-1.848,0.031-3.801,0.088-5.633,0.302c-0.901,0.105-1.812,0.014-2.709,0.137c-1.078,0.146-2.119,0.275-3.206,0.306  c-1.863,0.052-3.724,0.433-5.584,0.183c-1.008-0.135-2.029-0.118-3.044-0.102c-1.021,0.014-2.054-0.152-3.074-0.21  c-1.556-0.09-2.97-0.404-4.366-0.954c0.052,0.001,0.104,0.001,0.155,0.003C17.528,20.519,17.58,20.131,17.337,20.074z   M13.234,11.583c0.017,0.017,0.035,0.028,0.053,0.037c-0.17-0.047-0.34-0.085-0.51-0.114c0-0.002,0-0.005,0-0.008  c-0.095-0.512-0.332-1.019-0.505-1.512c-0.112-0.317-0.148-0.672-0.21-1.015c0.177,0.074,0.357,0.147,0.537,0.22  c-0.003,0.008-0.01,0.012-0.011,0.023C12.496,10.074,12.606,10.942,13.234,11.583z M12,10.987c-0.001-0.002-0.003-0.006-0.004-0.008  l0.053-0.121c0.029,0.072,0.06,0.143,0.093,0.214C12.095,11.044,12.047,11.016,12,10.987z M11.974,10.697  c-0.001-0.021-0.008-0.041-0.01-0.062c0.008,0.026,0.02,0.05,0.029,0.076L11.974,10.697z M11.606,8.757  c0.083,0.448,0.135,0.913,0.228,1.363c-0.083-0.204-0.188-0.402-0.281-0.603c-0.103-0.222-0.191-0.445-0.259-0.679  c-0.028-0.095-0.034-0.198-0.041-0.301C11.371,8.614,11.489,8.689,11.606,8.757z M16.203,17.512  c0.055,0.014,0.109,0.031,0.163,0.044c0.155,0.038,0.309,0.076,0.463,0.112c-0.208,0.002-0.416-0.005-0.619-0.03  C16.218,17.596,16.215,17.553,16.203,17.512z M14.115,12.826c0.199,0.07,0.402,0.131,0.606,0.189  c-0.207-0.028-0.415-0.067-0.622-0.114C14.108,12.877,14.111,12.852,14.115,12.826z M14.256,9.738  c-0.075,0.173-0.109,0.365-0.11,0.562c-0.054-0.191-0.097-0.384-0.125-0.585C14.101,9.729,14.18,9.736,14.256,9.738z M10.865,8.87  c0.023,0.178,0.065,0.354,0.123,0.537c0.063,0.205,0.143,0.425,0.233,0.641c-0.101-0.12-0.194-0.243-0.274-0.375  c-0.04-0.067-0.073-0.136-0.102-0.206C10.814,9.264,10.824,9.074,10.865,8.87z M47.445,7.835c0.005-0.037,0.014-0.073,0.014-0.11  c-0.001-0.187-0.123-0.33-0.294-0.387C46.578,7.139,45.9,7.236,45.29,7.239c-0.048,0-0.092,0.009-0.133,0.024  c-0.304-0.04-0.61-0.081-0.917-0.135c-0.37-0.067-0.765-0.017-1.137,0.008c-0.189,0.011-0.405,0.06-0.62,0.106  C41.539,7.215,40.62,7,39.659,6.999c-1.148-0.001-2.295-0.221-3.442-0.26c-1.218-0.042-2.283,0.165-3.489,0.326  c-0.012,0.001-0.012,0.017,0,0.017c1.064,0.055,2.109,0.042,3.164,0.133c1.215,0.104,2.456,0.377,3.666,0.55  c0.517,0.073,1.028,0.036,1.54,0.162c0.521,0.128,0.962,0.246,1.496,0.202c0.486-0.041,1.019,0.142,1.516,0.238  c-1.212,0.145-2.297,0.533-3.545,0.507c-0.671-0.015-1.334-0.015-2.003,0.058c-0.58,0.061-1.207-0.02-1.773,0.061  c-1.382,0.193-2.807,0.021-4.199,0.065c-0.514,0.017-1.021,0.085-1.536,0.086c-0.494,0.001-1.049-0.082-1.535-0.005  c-0.689,0.109-1.358,0.171-2.056,0.162c-0.67-0.007-1.309-0.202-1.972-0.278c-1.112-0.128-2.237-0.369-3.343-0.56  c-0.39-0.068-0.765-0.187-1.146-0.283c-0.016-0.014-0.026-0.03-0.052-0.037c-0.134-0.038-0.267-0.079-0.402-0.12  c0.086-0.034,0.17-0.064,0.253-0.087c0.131-0.036,0.264-0.062,0.396-0.09c0.012,0.039,0.039,0.071,0.086,0.067  c0.366-0.031,0.614-0.091,0.917-0.188c0.557-0.079,1.099-0.221,1.66-0.309c0.249-0.039,0.497-0.074,0.744-0.104  c0.142-0.006,0.282-0.012,0.42-0.016c1.596-0.046,3.232,0.026,4.82-0.154c0.21-0.024,0.21-0.303,0-0.327  c-1.565-0.177-3.147-0.023-4.716,0.039c-0.008-0.058-0.048-0.108-0.124-0.1c-0.583,0.065-1.149,0.083-1.737,0.067  c-0.399-0.011-0.79,0.056-1.183,0.105c-0.008-0.026-0.021-0.051-0.039-0.07c-0.01-0.082-0.062-0.155-0.149-0.172  c-0.502-0.093-1.163-0.06-1.789,0.093c-0.633,0.021-1.265,0.035-1.896,0.083c-0.124,0.009-0.206,0.078-0.25,0.163  c-0.035,0.006-0.068,0.007-0.102,0.016c-0.006-0.045-0.006-0.088-0.001-0.128c0.029-0.02,0.057-0.038,0.081-0.055  c0.129-0.093,0.266-0.173,0.405-0.245c0.229-0.067,0.472-0.116,0.671-0.164c-0.001-0.004-0.002-0.007-0.003-0.011  c0.062-0.025,0.106-0.069,0.131-0.125c0.277-0.096,0.551-0.197,0.814-0.331c0.02-0.01,0.029-0.028,0.04-0.044  c0.222-0.059,0.444-0.112,0.668-0.14c0.566-0.068,1.142-0.088,1.703-0.187c0.759,0.025,1.521,0.096,2.282,0.088  c1.538-0.018,3.066-0.221,4.6-0.24c1.592-0.016,3.215,0.055,4.8-0.11c1.556-0.162,3.163,0.022,4.727,0.031  c0.541,0.002,1.088,0.028,1.637,0.061c0.014,0.003,0.025,0.01,0.039,0.012c1.71,0.18,3.412,0.749,5.143,0.757  c0.396,0.001,0.816,0.047,1.208,0.125c0.344,0.069,0.658,0.297,1.001,0.33c0.451,0.043,0.729,0.132,1.063,0.461  c-0.018-0.017,0.064,0.104,0.144,0.209c-0.045,0.021-0.09,0.039-0.136,0.06C48.421,7.6,47.936,7.725,47.445,7.835z M17.546,6.459  c-0.016,0.012-0.032,0.024-0.048,0.036c-0.011,0.009-0.022,0.019-0.034,0.027c-0.066,0.001-0.132,0.045-0.165,0.098  c-0.001,0.001-0.001,0.003-0.001,0.004c-0.107,0.056-0.216,0.108-0.33,0.145c-0.01,0.004-0.017,0.009-0.026,0.015  c-0.009-0.003-0.018-0.005-0.026-0.008c0.029-0.017,0.058-0.041,0.087-0.08C17.167,6.584,17.354,6.515,17.546,6.459z M22.911,7.188  C22.894,7.17,22.873,7.16,22.85,7.148c0.066-0.003,0.132-0.008,0.199-0.009c0.023,0,0.048,0.001,0.072,0.001  C23.051,7.156,22.98,7.171,22.911,7.188z M21.525,7.254c-0.004-0.012-0.01-0.022-0.016-0.033c0.041-0.007,0.083-0.015,0.124-0.022  c0.039,0.001,0.077,0.004,0.115,0.004C21.673,7.219,21.599,7.236,21.525,7.254z M49.907,6.961c0-0.023-0.002-0.048-0.003-0.072  c0.043,0.008,0.086,0.016,0.131,0.025C49.992,6.93,49.95,6.945,49.907,6.961z M46.177,5.362c-0.355-0.048-0.716-0.031-1.073-0.028  c-0.167,0.001-0.317-0.064-0.47-0.117c0.239,0.015,0.478,0.035,0.717,0.045c0.373,0.017,0.741,0.051,1.111,0.093  C46.367,5.356,46.272,5.359,46.177,5.362z M40.649,4.933c-1.066-0.047-2.131-0.082-3.2-0.065c-1.929,0.031-3.844,0.142-5.775,0.122  c-1.908-0.021-3.791,0.035-5.695,0.114c-0.85,0.035-1.703-0.031-2.553,0c-0.145,0.005-0.282-0.025-0.417-0.059l0.343-0.031  c1.954-0.175,3.799-0.339,5.702-0.339c0.424,0,0.844,0.008,1.245,0.025c0.523,0.022,1.081,0.033,1.758,0.033  c0.463,0,0.927-0.005,1.39-0.01c0.991-0.01,2.069-0.004,3.115,0.035c0.596,0.023,1.212,0.046,1.851,0.046  c0.786,0,1.585,0.045,2.381,0.105C40.747,4.915,40.698,4.924,40.649,4.933z M54.599,10c-0.004-0.405,0.031-0.778-0.191-1.135  c-0.185-0.295-0.726-0.101-0.585,0.247c0.112,0.278,0.067,0.586,0.039,0.882c-0.009-0.429,0.001-0.813-0.196-1.223  c-0.017-0.032-0.038-0.055-0.061-0.078c0.319-0.075,0.635-0.162,0.96-0.274c0.23-0.081,0.438-0.188,0.66-0.268l0.031,0.254  c-0.126-0.09-0.318-0.101-0.42,0.024c-0.066,0.082-0.09,0.147-0.117,0.25c-0.018,0.066-0.007,0.13,0.021,0.184  c-0.007,0.412-0.009,0.823-0.029,1.234c-0.026,0.5-0.083,1.001,0.029,1.493c-0.065,0.01-0.132,0.019-0.198,0.029  C54.638,11.078,54.603,10.547,54.599,10z M53.575,16.97c-0.017-0.02-0.034-0.037-0.055-0.053c0.322-0.089,0.645-0.186,0.97-0.285  C54.188,16.753,53.883,16.87,53.575,16.97z M55.985,15.929c0.008,0.032,0.019,0.062,0.024,0.094  c0.005,0.017-0.032,0.041-0.087,0.066C55.947,16.037,55.969,15.984,55.985,15.929z M55.904,9.4  c-0.014,0.327-0.059,0.689-0.014,1.024c-0.007,0.027-0.014,0.055-0.024,0.078l-0.429,0.927l0.008,0.001  c-0.011,0.005-0.021,0.011-0.031,0.016c0.191-0.896,0.122-2.002-0.047-2.876c-0.009-0.05-0.035-0.091-0.068-0.127l0.58-0.124  l0.041,0.066l0.014,0.608C55.922,9.128,55.911,9.264,55.904,9.4z M54.462,13.814c0.033,0.02,0.066,0.04,0.11,0.056  c-0.062,0.022-0.125,0.045-0.188,0.067C54.416,13.897,54.44,13.856,54.462,13.814z M50.956,18.118  c0.811-0.174,1.649-0.277,2.438-0.534c0.023-0.008,0.04-0.022,0.061-0.033c0.868-0.105,1.74-0.381,2.556-0.622  c0.107-0.032,0.198-0.071,0.28-0.113c0.021,0.012,0.038,0.029,0.062,0.038c0.344,0.136-0.46,0.342-0.471,0.345  c-0.362,0.083-0.721,0.169-1.089,0.234c-0.761,0.139-1.479,0.405-2.243,0.548c-0.91,0.17-1.903,0.426-2.826,0.449  c-0.057,0.001-0.112,0.006-0.168,0.008C50.027,18.353,50.497,18.216,50.956,18.118z M55.881,19.496  c-0.013,0.067-0.017,0.134-0.002,0.202c-0.101,0.062-0.21,0.12-0.329,0.171c0.074-0.065,0.146-0.132,0.21-0.208  C55.803,19.61,55.844,19.554,55.881,19.496z M56.673,19.717c0.019,0.088,0.031,0.176,0.038,0.263  c-0.075,0.002-0.15,0.006-0.226,0.009C56.559,19.905,56.62,19.814,56.673,19.717z M12.569,88.544  c-0.305-0.59-0.543-1.209-0.802-1.818c-0.313-0.74-0.623-1.465-0.913-2.201c0.148-0.2,0.125-0.515-0.066-0.682  c-0.367-1.242-0.586-2.493-0.947-3.735c-0.205-0.703-0.227-1.425-0.383-2.138c-0.172-0.78-0.241-1.58-0.425-2.354  c-0.184-0.771-0.166-1.478-0.187-2.261c-0.02-0.776-0.187-1.53-0.222-2.303c-0.014-0.309-0.054-0.635-0.104-0.958  c-0.003-0.062-0.008-0.123-0.013-0.183c-0.012-0.125-0.003-0.33,0.004-0.529c0.005-0.139,0.009-0.291,0.011-0.443  c0.174-0.152,0.245-0.437,0.056-0.679c-0.109-0.138-0.021-0.534-0.016-0.699c0.02-0.543,0.003-1.091,0-1.635  c-0.006-1.098-0.053-2.168,0.056-3.263c0.211-2.13,0.072-4.35,0.05-6.488c-0.021-2.1-0.404-4.363-0.039-6.441  c0.332-1.894,0.228-3.941,0.228-5.857c0-0.94,0.001-1.875-0.068-2.813c-0.079-1.052,0.064-2.12,0.061-3.176  c-0.007-2.16-0.391-4.312-0.304-6.474c0.006-0.16,0.027-0.321,0.051-0.481c0.34-1.151,1.03-2.229,1.817-3.374l0.097-0.142  c0.51-0.738,1.146-1.658,1.33-2.606c0.027-0.142,0.062-0.291,0.096-0.443c0.143-0.629,0.312-1.383,0.172-2.12  c0.37,0.133,0.727,0.244,1.021,0.344c0.829,0.282,1.703,0.288,2.534,0.528c0.428,0.124,0.813,0.358,1.218,0.538  c0.346,0.154,0.67,0.11,1.024,0.219c0.896,0.274,1.883,0.371,2.798,0.583c0.896,0.207,1.805,0.401,2.717,0.518  c2.131,0.271,4.206-0.091,6.328-0.09c0.39,0,0.811-0.166,1.209-0.186c0.555-0.025,1.119,0.001,1.675,0.001  c0.92,0.001,1.842-0.083,2.762-0.101c2.028-0.039,4.053-0.173,6.079-0.176c0.955,0,1.93-0.082,2.898-0.074  c0.974,0.007,1.994-0.041,2.941-0.276c0.299-0.075,0.221-0.507-0.07-0.521c-3.381-0.148-6.753,0.038-10.128,0.146  c-1.603,0.051-3.214,0.168-4.817,0.169c-1.66,0.001-3.265,0.225-4.914,0.367c-1.842,0.156-3.691,0.003-5.493-0.38  c-1.426-0.302-2.862-0.783-4.31-0.943c-0.656-0.072-1.324-0.575-1.971-0.755c-0.795-0.223-1.611-0.153-2.389-0.488  c-0.647-0.28-1.399-0.393-1.961-0.826c-0.344-0.265-0.59-0.414-0.758-0.76c-0.018-0.271,0.078-0.619,0.252-0.878  c0.124-0.181,0.27-0.299,0.403-0.323l0.003-0.001c0.012,0.074,0.026,0.148,0.047,0.222c0.088,0.32,0.344,0.504,0.545,0.749  c0.421,0.507,1.239,0.751,1.842,0.934c0.342,0.105,0.772,0.093,1.124,0.1c0.616,0.011,0.958,0.281,1.487,0.475  c0.929,0.343,1.937,0.62,2.903,0.834c1.985,0.438,4.136-0.151,6.14-0.164c1.022-0.006,2.014,0.109,3.029,0.194  c1.111,0.094,2.221-0.043,3.332-0.019c2.078,0.045,4.147-0.25,6.221-0.244c0.985,0.001,2.009-0.014,2.988-0.089  c1.011-0.08,2.021-0.02,3.036-0.083c1.885-0.117,3.776,0.011,5.649-0.324c0.795-0.143,1.625-0.187,2.411-0.35  c0.136-0.027,0.272-0.049,0.409-0.07c0.052,0.158,0.199,0.283,0.409,0.227c0.271-0.07,0.533-0.162,0.793-0.26  c0.013,0.006,0.021,0.015,0.034,0.02c0.049,0.017,0.1,0.028,0.151,0.037c0.061,0.047,0.136,0.079,0.232,0.079  c0.64-0.007,1.237-0.249,1.858-0.411c0.247-0.041,0.491-0.076,0.733-0.111c-0.039,0.046-0.081,0.091-0.136,0.13  c-0.568,0.415-1.317,0.734-1.942,1.061c-0.728,0.38-1.327,0.81-2.137,1.034c-0.869,0.241-1.753,0.417-2.659,0.374  c-0.145-0.007-0.181,0.234-0.035,0.258c1.065,0.168,2.113,0.029,3.17-0.139c0.621-0.099,1.191-0.296,1.743-0.547  c-0.183,1.398,0.653,2.503,1.337,3.24c0.144,0.155,0.274,0.336,0.396,0.525c0.48,0.87,0.689,1.857,1.039,2.776  c0.001,0.002,0.001,0.004,0.002,0.005c0.084,0.255,0.168,0.51,0.252,0.759c0.277,0.821,0.543,1.608,0.747,2.418  c0.197,0.919,0.235,1.842,0.166,2.785c-0.084,1.141-0.024,2.263-0.29,3.387c-0.237,1.005-0.295,2.039-0.577,3.039  c-0.283,1.001-0.44,2.031-0.588,3.063c-0.319,2.225-0.451,4.408-0.209,6.644c0.217,2.021,0.362,4.049,0.551,6.071  c0.201,2.16,0.132,4.399,0.194,6.569c0.062,2.224-0.01,4.442-0.012,6.67l-0.035,0.012l0.043,0.571  c0.009,0.114,0.019,0.246,0.024,0.387c-0.075,1.339-0.106,2.671-0.258,4.007c-0.113,0.981,0.022,1.977-0.131,2.955  c-0.151,0.979-0.505,1.877-0.848,2.8c-0.303,0.814-0.506,1.659-0.805,2.477c-0.354,0.972-0.736,1.934-1.072,2.911  c-0.328,0.961-0.975,1.944-1.488,2.821c-0.187,0.322-0.393,0.628-0.609,0.93c-0.128,0.16-0.259,0.315-0.398,0.468  c-0.082,0.086-0.168,0.198-0.258,0.322c-0.009,0.004-0.018,0.007-0.025,0.011c-0.022-0.011-0.045-0.02-0.068-0.025  c0.02-0.112,0.02-0.182,0.018-0.383c-0.004-0.247-0.249-0.351-0.453-0.262c-0.531,0.236-0.967,0.61-1.422,0.961  c-1.474-1.893-4.002-2.884-6.317-3.27c-0.717-0.118-1.451,0.061-2.167-0.045c-0.724-0.104-1.432-0.237-2.164-0.224  c-1.533,0.027-3.04,0.504-4.566,0.631c-1.488,0.125-2.982,0.095-4.474,0.253c-1.571,0.167-3.125,0.405-4.701,0.535  c-0.275,0.022-0.552,0.043-0.827,0.064c0.024-0.11-0.038-0.235-0.197-0.253c-1.422-0.154-2.899,0.107-4.3,0.473  c-0.102-0.003-0.204-0.004-0.305-0.004c-0.022-0.027-0.052-0.051-0.092-0.062c-0.951-0.236-1.82,0.266-2.661,0.829  c-0.473,0.183-0.949,0.358-1.43,0.527c-0.253,0.088-0.697,0.201-1.005,0.408c-0.096-0.131-0.188-0.278-0.284-0.439  c-0.119-0.201-0.242-0.411-0.396-0.614c-0.156-0.205-0.324-0.408-0.493-0.61c-0.181-0.218-0.348-0.425-0.501-0.633  C12.788,89.031,12.691,88.782,12.569,88.544z M33.193,95.916c-0.434,0.049-0.856,0.055-1.276,0.045  c0.881-0.082,1.762-0.192,2.634-0.17c0.416,0.011,0.822-0.007,1.224-0.041c-0.27,0.038-0.542,0.071-0.814,0.073  C34.368,95.824,33.781,95.852,33.193,95.916z M15.356,92.127c0.021-0.009,0.044-0.018,0.066-0.027  c0.069-0.018,0.137-0.04,0.206-0.062c-0.014,0.023-0.031,0.042-0.043,0.066c-0.069,0.141-0.009,0.271,0.101,0.325  c-0.008,0.02-0.015,0.04-0.021,0.061c-0.152-0.094-0.3-0.193-0.445-0.297C15.263,92.173,15.308,92.149,15.356,92.127z M16.355,92.88  c0.051-0.396,0.468-0.698,0.753-0.92c0.257-0.201,0.488-0.386,0.779-0.536c0.044-0.024,0.091-0.045,0.137-0.064  c0.633-0.161,1.264-0.322,1.893-0.499c0.333-0.094,0.666-0.174,1-0.246c0.058-0.01,0.115-0.023,0.17-0.039  c1.174-0.245,2.355-0.384,3.563-0.497c2.961-0.276,5.86-0.925,8.845-0.971c0.554-0.01,1.083,0.195,1.632,0.268  c0.796,0.106,1.53-0.015,2.318-0.086c0.672-0.061,1.331-0.145,2.008-0.13c0.768,0.018,1.505,0.322,2.274,0.347  c-0.032,0.14,0.014,0.309,0.137,0.398c0.445,0.319,0.954,0.528,1.434,0.79c0.128,0.182,0.261,0.21,0.4,0.09  c-0.229,0.172-0.521,0.244-0.795,0.305c-1.083,0.238-2.185,0.405-3.268,0.646c-2.297,0.518-4.699,0.682-7.049,0.776  c-2.515,0.104-5.009,0.392-7.526,0.389c-1.188-0.003-2.538,0.29-3.705,0.068c-0.414-0.08-2.5-0.244-2.685-0.704  c-0.089-0.223-0.445-0.14-0.369,0.103c0.221,0.711,1.687,0.847,2.299,1.002c0.679,0.172,1.357,0.321,2.032,0.513  c0.649,0.186,1.406,0.073,2.072,0.088c3.171,0.069,6.336-0.271,9.509-0.351c2.87-0.072,5.676-0.876,8.488-1.351  c0.74-0.125,2.208-0.395,2.208-1.422c0-0.582-0.664-0.978-1.38-1.228c0.089,0.018,0.178,0.029,0.266,0.052  c0.639,0.171,1.253,0.435,1.898,0.596c0.671,0.164,1.296,0.509,1.862,0.938c-0.079,0.121-0.089,0.292,0.025,0.399  c0.321,0.304,0.684,0.551,1.044,0.804c-0.899,0.359-1.78,0.696-2.701,0.949c-1.196,0.238-2.438,0.256-3.652,0.313  c-0.91,0.043-1.826,0.222-2.729,0.411c-1.029,0.073-2.062,0.063-3.096,0.063c-1.216,0.001-2.458,0.208-3.675,0.272  c-0.645,0.036-1.273,0.069-1.915,0.13c-0.692,0.063-1.45-0.115-2.152-0.113c-1.366,0.004-2.714,0.199-4.077,0.28  c-1.441,0.086-2.905-0.267-4.306-0.553C18.955,93.882,17.581,93.501,16.355,92.88z M36.622,95.652  c0.589-0.085,1.176-0.202,1.774-0.328c0.366-0.078,0.736-0.158,1.106-0.236c0.353-0.02,0.705-0.052,1.058-0.101  c0.559-0.079,1.119-0.111,1.679-0.139c-0.416,0.073-0.825,0.139-1.205,0.22c-1.376,0.289-2.706,0.563-4.12,0.566  C36.817,95.635,36.719,95.645,36.622,95.652z M50.847,93.464l-0.132-0.233c0.07-0.02,0.139-0.043,0.204-0.073  C50.919,93.267,50.899,93.372,50.847,93.464z"
     id="path4" /><path
     d="M26.948,12.643c0.116,0.284,0.629,0.286,0.588-0.079c-0.034-0.293-0.118-0.561-0.207-0.841  c-0.103-0.327-0.095-0.682-0.119-1.02c-0.021-0.326-0.484-0.326-0.505,0c-0.02,0.284-0.104,0.64-0.042,0.918  C26.74,11.966,26.813,12.316,26.948,12.643z"
     id="path6" /><path
     d="M28.254,10.702c-0.064,0.695,0.14,1.449,0.264,2.13c0.068,0.376,0.572,0.234,0.612-0.082c0.087-0.7-0.215-1.433-0.316-2.124  C28.764,10.286,28.281,10.406,28.254,10.702z"
     id="path8" /><path
     d="M30.695,12.997c0.192,0.284,0.642,0.109,0.559-0.236c-0.155-0.638-0.295-1.314-0.371-1.966c-0.042-0.37-0.585-0.391-0.593,0  c-0.006,0.388,0.044,0.78,0.106,1.162C30.456,12.332,30.477,12.674,30.695,12.997z"
     id="path10" /><path
     d="M33.588,12.82c0.108,0.26,0.52,0.251,0.52-0.07c0-0.358-0.059-0.674-0.159-1.019c-0.059-0.198-0.369-0.767-0.24-0.983  c0.159-0.263-0.238-0.586-0.433-0.335c-0.21,0.271-0.187,0.528-0.132,0.855C33.231,11.781,33.388,12.337,33.588,12.82z"
     id="path12" /><path
     d="M35.175,12.896c0.157,0.243,0.532,0.148,0.541-0.146c0.021-0.651-0.602-1.236-0.399-1.882  c0.079-0.249-0.283-0.485-0.457-0.266c-0.245,0.31-0.249,0.62-0.157,0.997C34.81,12.038,34.926,12.514,35.175,12.896z"
     id="path14" /><path
     d="M36.615,12.925c0.052,0.298,0.548,0.298,0.6,0c0.133-0.768-0.117-1.466-0.187-2.223c-0.035-0.378-0.597-0.393-0.599,0  c-0.002,0.32-0.005,0.712,0.058,1.022C36.568,12.121,36.545,12.526,36.615,12.925z"
     id="path16" /><path
     d="M27.888,10.269c0.141,0.001,0.328-0.016,0.44,0.085c0.034,0.03,0.084-0.019,0.05-0.049c-0.131-0.115-0.328-0.101-0.49-0.101  C27.847,10.205,27.847,10.269,27.888,10.269z"
     id="path18" /><path
     inkscape:connector-curvature="0"
     d="m 51.002177,45.56612 c -1.548404,-4.167327 -3.671418,-6.461383 -5.978266,-6.461383 l -5.044393,0 0,-7.959341 c 0,-0.956476 -0.492674,-1.732735 -1.1009,-1.732735 l -11.126656,0 c -0.6077,0 -1.1009,0.776259 -1.1009,1.732735 l 0,7.959341 -3.878887,0 c -2.306323,0 -4.429338,2.294882 -5.978267,6.461383 -1.439679,3.875508 -2.232789,8.989392 -2.232789,14.402537 l 0,23.291899 c 0,0.958126 0.493199,1.733562 1.101425,1.733562 l 36.471522,0 c 0.608752,0 1.101426,-0.775436 1.101426,-1.733562 l 0,-23.292726 C 53.234966,54.554685 52.441856,49.440801 51.002177,45.56612 Z m 0,12.668975 -11.954957,0 c 0,-0.0058 0,-0.01075 0,-0.01571 5.25e-4,-0.0066 5.25e-4,-0.01323 0.0016,-0.01901 0.0047,-0.133923 0.01,-0.266193 0.01576,-0.398462 0.001,-0.03472 0.0037,-0.06945 0.0053,-0.10499 0.0047,-0.104162 0.01,-0.208325 0.01523,-0.31166 0.0026,-0.04382 0.0058,-0.0868 0.0074,-0.130618 0.0058,-0.09424 0.01103,-0.189311 0.01681,-0.282726 0.0031,-0.04795 0.0069,-0.09507 0.0095,-0.14219 0.0063,-0.09011 0.01155,-0.179391 0.01786,-0.268674 0.0042,-0.05043 0.0084,-0.100855 0.01155,-0.151283 0.0069,-0.08515 0.0126,-0.171124 0.01996,-0.256273 0.0042,-0.05208 0.0084,-0.103336 0.0126,-0.15459 0.0069,-0.08515 0.0147,-0.168645 0.02154,-0.25214 0.0053,-0.05126 0.01,-0.102509 0.01418,-0.153763 0.0079,-0.0835 0.01576,-0.166165 0.02416,-0.248834 0.0047,-0.05125 0.01,-0.101682 0.01523,-0.153763 0.0089,-0.08184 0.01681,-0.163684 0.02521,-0.2447 0.0058,-0.05126 0.01103,-0.101682 0.0168,-0.152937 0.0095,-0.08184 0.01891,-0.163684 0.02889,-0.244699 0.0053,-0.04877 0.01103,-0.09755 0.01681,-0.146324 0.01103,-0.08432 0.01996,-0.166164 0.03047,-0.248832 0.0074,-0.04712 0.01208,-0.09259 0.01891,-0.13971 0.01103,-0.08515 0.02206,-0.169471 0.03361,-0.25462 0.0058,-0.04299 0.01103,-0.08597 0.01786,-0.129789 0.01208,-0.08928 0.02469,-0.179391 0.03834,-0.268674 0.0058,-0.03637 0.0105,-0.0744 0.01576,-0.111602 0.0147,-0.09838 0.03046,-0.196752 0.04517,-0.294301 0.0047,-0.02728 0.0089,-0.05374 0.01261,-0.08102 0.05988,-0.376969 0.124481,-0.748152 0.193813,-1.111067 0.0047,-0.02315 0.0095,-0.04712 0.01418,-0.0711 0.01786,-0.0959 0.03624,-0.190965 0.05568,-0.285206 0.0069,-0.03472 0.01313,-0.06779 0.01996,-0.10251 0.01786,-0.08432 0.03467,-0.167817 0.05253,-0.250486 0.0084,-0.03803 0.01575,-0.07523 0.02469,-0.113256 0.01628,-0.07771 0.03309,-0.156244 0.05095,-0.234779 0.0095,-0.03968 0.01839,-0.08019 0.02784,-0.120696 0.01629,-0.07357 0.03309,-0.14715 0.05043,-0.219899 0.01,-0.04216 0.01944,-0.08267 0.02941,-0.124003 0.01733,-0.0711 0.03414,-0.14219 0.052,-0.213285 0.01,-0.04216 0.02049,-0.08267 0.03099,-0.124003 0.01786,-0.06944 0.03519,-0.138057 0.05305,-0.207498 0.0105,-0.04133 0.02154,-0.08184 0.03204,-0.123177 0.01733,-0.06861 0.03571,-0.135576 0.0541,-0.203365 0.01103,-0.0405 0.02259,-0.08102 0.03309,-0.120696 0.01891,-0.06779 0.03729,-0.133924 0.05568,-0.200059 0.01103,-0.03968 0.02206,-0.07936 0.03309,-0.118215 0.01996,-0.06696 0.03886,-0.133097 0.0583,-0.199232 0.01103,-0.0372 0.02259,-0.07523 0.03361,-0.112429 0.02049,-0.06779 0.04149,-0.13475 0.06093,-0.200885 0.01103,-0.03472 0.02259,-0.06945 0.03309,-0.103336 0.02206,-0.07027 0.04412,-0.138884 0.06618,-0.207499 0.0105,-0.03058 0.01996,-0.06118 0.02994,-0.09093 0.02521,-0.07523 0.05043,-0.14963 0.07616,-0.223205 0.0074,-0.02232 0.01523,-0.0463 0.02259,-0.06862 0.03204,-0.09011 0.06303,-0.179391 0.09559,-0.268674 0.0026,-0.0058 0.0042,-0.01157 0.0058,-0.01736 0.06933,-0.190965 0.140764,-0.376969 0.212196,-0.55884 0.0074,-0.01736 0.0147,-0.03555 0.02154,-0.05291 0.02889,-0.07027 0.05673,-0.141363 0.08509,-0.209979 0.01155,-0.02645 0.02311,-0.05208 0.03309,-0.07854 0.02626,-0.05952 0.05095,-0.120696 0.07668,-0.179391 0.0126,-0.02893 0.02521,-0.05704 0.03886,-0.0868 0.02364,-0.05456 0.04832,-0.109123 0.07248,-0.163684 0.01418,-0.03059 0.02889,-0.06035 0.04202,-0.09011 0.02416,-0.05126 0.04779,-0.102509 0.07195,-0.15211 0.01418,-0.03141 0.02994,-0.062 0.04464,-0.09259 0.02416,-0.04795 0.04727,-0.0959 0.07091,-0.143017 0.01523,-0.03141 0.03099,-0.06118 0.04675,-0.09176 0.02364,-0.04547 0.04727,-0.09094 0.07143,-0.136403 0.01576,-0.03059 0.03099,-0.06035 0.0478,-0.08928 0.02364,-0.04464 0.0478,-0.08763 0.07143,-0.131443 0.01628,-0.02893 0.03256,-0.05869 0.04937,-0.08763 0.02416,-0.04216 0.0478,-0.08432 0.07196,-0.12483 0.01681,-0.02811 0.03309,-0.05621 0.05043,-0.08432 0.02469,-0.0405 0.04937,-0.08102 0.07353,-0.120697 0.01681,-0.02645 0.03256,-0.05374 0.05042,-0.08102 0.02469,-0.03968 0.05043,-0.07936 0.07616,-0.117389 0.01628,-0.02563 0.03256,-0.05126 0.04937,-0.07523 0.02679,-0.03968 0.05305,-0.07854 0.07931,-0.116563 0.01523,-0.02315 0.03151,-0.04629 0.04727,-0.06779 0.02941,-0.0405 0.05725,-0.08019 0.08614,-0.119043 0.01365,-0.01819 0.02836,-0.03803 0.04097,-0.05704 0.03414,-0.04382 0.06775,-0.08598 0.100321,-0.128136 0.0105,-0.01322 0.02049,-0.02645 0.03046,-0.03885 0.08719,-0.109123 0.175955,-0.211631 0.26472,-0.308354 0.01313,-0.01405 0.02626,-0.02728 0.03887,-0.04133 0.03204,-0.0339 0.06303,-0.06696 0.09507,-0.09838 0.01628,-0.01736 0.03309,-0.03224 0.05042,-0.04877 0.02836,-0.02811 0.05673,-0.05539 0.08456,-0.08267 0.01891,-0.01654 0.03677,-0.03307 0.05515,-0.0496 0.02731,-0.0248 0.0541,-0.04877 0.08089,-0.07192 0.01996,-0.01654 0.03992,-0.03141 0.0583,-0.04795 0.02679,-0.02149 0.05358,-0.04382 0.07931,-0.06448 0.01996,-0.01571 0.04044,-0.03058 0.0604,-0.04464 0.02574,-0.01984 0.05253,-0.03885 0.07826,-0.05787 0.02101,-0.01488 0.04097,-0.02811 0.06145,-0.04216 0.02679,-0.01736 0.05305,-0.03472 0.07826,-0.05126 0.02101,-0.01322 0.04149,-0.02563 0.0625,-0.03803 0.02626,-0.01571 0.05305,-0.03059 0.07879,-0.04464 0.02101,-0.01157 0.04202,-0.02314 0.06355,-0.03472 0.02626,-0.01405 0.05253,-0.02646 0.07879,-0.03885 0.02101,-0.01075 0.04307,-0.02067 0.06408,-0.02976 0.02626,-0.01157 0.05305,-0.02232 0.07931,-0.0339 0.02154,-0.0083 0.04254,-0.01736 0.06355,-0.0248 0.02836,-0.0099 0.05515,-0.01901 0.08194,-0.02811 0.02154,-0.0058 0.04254,-0.01322 0.06355,-0.01984 0.02784,-0.0083 0.05515,-0.01571 0.08351,-0.02232 0.02049,-0.0049 0.04044,-0.01075 0.06145,-0.01571 0.02994,-0.0066 0.05883,-0.01157 0.08877,-0.01736 0.01891,-0.0033 0.03834,-0.0083 0.05725,-0.01075 0.03256,-0.0042 0.06565,-0.0074 0.09875,-0.01157 0.01575,-8.49e-4 0.03256,-0.0033 0.04885,-0.0049 0.0499,-0.0033 0.09875,-0.0049 0.147066,-0.0049 3.057415,-0.0016 5.668902,7.00865 5.980368,15.662408 z m -28.230002,-15.664061 12.270625,0 c 0.607176,0 1.100901,-0.775432 1.100901,-1.733562 0,-0.956476 -0.493199,-1.732735 -1.100901,-1.732735 l -6.189938,0 0,-6.225779 8.92433,0 0,7.958514 c 0,0.06035 0.001,0.11987 0.0058,0.177738 0.0037,0.05456 0.0084,0.108296 0.01523,0.161203 0.0998,0.794446 0.544672,1.394621 1.080416,1.394621 l 1.562585,0 c -0.01733,0.03059 -0.03519,0.06283 -0.05358,0.09342 -0.03624,0.062 -0.07196,0.124003 -0.107674,0.187657 -0.02469,0.04464 -0.04885,0.09011 -0.07459,0.13475 -0.03414,0.06283 -0.06828,0.126484 -0.101896,0.190138 -0.02521,0.04712 -0.0499,0.09424 -0.07406,0.14219 -0.03414,0.06531 -0.06775,0.130617 -0.100321,0.197579 -0.02469,0.04877 -0.04832,0.09672 -0.07248,0.146323 -0.03309,0.06861 -0.06618,0.137231 -0.09927,0.206672 -0.02311,0.0496 -0.04674,0.0992 -0.06986,0.14963 -0.03256,0.0711 -0.06565,0.14467 -0.09875,0.219072 -0.02311,0.0496 -0.04517,0.09838 -0.06723,0.148804 -0.03361,0.07771 -0.06775,0.157897 -0.100846,0.237259 -0.02049,0.04712 -0.04097,0.09507 -0.05988,0.143017 -0.03729,0.08928 -0.07406,0.180217 -0.1103,0.27198 -0.01628,0.0405 -0.03257,0.08019 -0.04885,0.120696 -0.05253,0.133097 -0.103997,0.267846 -0.155471,0.405077 -0.08561,0.229818 -0.167552,0.464597 -0.248438,0.70351 -0.02679,0.07853 -0.052,0.15955 -0.07826,0.238912 -0.05358,0.162031 -0.106623,0.324888 -0.158097,0.490225 -0.02994,0.09672 -0.05778,0.195099 -0.08719,0.292648 -0.0457,0.152937 -0.09034,0.3067 -0.134986,0.462118 -0.02941,0.104989 -0.05778,0.210804 -0.08666,0.317448 -0.04149,0.152936 -0.08089,0.305874 -0.120805,0.46129 -0.02836,0.10995 -0.05515,0.220726 -0.08299,0.331502 -0.03729,0.155417 -0.07511,0.313314 -0.111351,0.472865 -0.02574,0.111602 -0.05148,0.224032 -0.07669,0.337288 -0.03519,0.162857 -0.06986,0.328195 -0.103997,0.493532 -0.02311,0.110776 -0.04622,0.221552 -0.06828,0.333155 -0.03519,0.178564 -0.06881,0.358782 -0.101371,0.538173 -0.01839,0.102509 -0.03834,0.202538 -0.0562,0.305874 -0.03939,0.224859 -0.07668,0.453024 -0.112926,0.68119 -0.0105,0.06035 -0.01996,0.119043 -0.02941,0.179391 -0.04517,0.288513 -0.08719,0.579507 -0.126057,0.872981 -0.01155,0.09011 -0.02259,0.181871 -0.03414,0.272806 -0.02679,0.205846 -0.05253,0.411691 -0.07668,0.620016 -0.01313,0.117389 -0.02574,0.236432 -0.03782,0.353822 -0.02049,0.183524 -0.03887,0.367876 -0.05725,0.552226 -0.01208,0.128137 -0.02364,0.2571 -0.03519,0.385236 -0.0147,0.177738 -0.03046,0.356303 -0.04465,0.535693 -0.0105,0.133097 -0.02049,0.266194 -0.02994,0.400117 -0.01208,0.178565 -0.02416,0.356302 -0.03414,0.534866 -0.0084,0.13475 -0.01628,0.271153 -0.02311,0.405903 -0.0095,0.181871 -0.01786,0.362916 -0.02521,0.545614 -0.0052,0.133923 -0.01103,0.267846 -0.01575,0.40177 -0.0016,0.04877 -0.0042,0.09755 -0.0063,0.145496 l -3.38989,0 0,-3.113302 c 0,-0.957304 -0.492674,-1.732736 -1.100901,-1.732736 l -11.12613,0 c -0.608226,0 -1.1009,0.775432 -1.1009,1.732736 l 0,3.113302 -3.330013,0 C 17.1059,49.581337 19.716336,42.571034 22.772175,42.571034 Z m 8.477877,15.664061 0,3.466297 0,1.380568 -8.923805,0 0,-1.380568 0,-3.466297 0,-1.379741 8.923805,0 0,1.379741 z m 19.782589,23.292726 -34.269721,0 0,-19.826429 3.361001,0 0,3.11413 c 0,0.956476 0.492674,1.732735 1.1009,1.732735 l 11.126131,0 c 0.608226,0 1.1009,-0.775432 1.1009,-1.732735 l 0,-3.11413 3.58738,0 0,16.43288 c 0,0.761378 0.391303,1.378086 0.874523,1.378086 0.483745,0 0.875573,-0.616708 0.875573,-1.378086 l 0,-16.43288 12.243313,0 0,19.826429 z"
     id="path4-3" /><path
     style="fill:#ffffff"
     d="m 16.84322,71.610169 0,-9.533898 1.558529,0 c 1.454908,0 1.569357,0.149665 1.721398,2.25106 l 0.16287,2.251059 6.015291,0.150292 c 6.749455,0.168634 7.491065,-0.114845 7.491065,-2.863451 0,-1.634626 0.137082,-1.78896 1.588983,-1.78896 l 1.588983,0 0,8.778244 c 0,8.074929 0.07426,8.763983 0.926907,8.600256 0.83011,-0.1594 0.942105,-1.076111 1.072442,-8.778243 l 0.145536,-8.600257 5.81315,0 5.813151,0 0,9.533898 0,9.533899 -16.949152,0 -16.949153,0 0,-9.533899 z"
     id="path3360"
     inkscape:connector-curvature="0" /><path
     style="fill:#ffffff"
     d="m 39.314805,56.647246 c 0.135302,-0.655456 0.400326,-2.374109 0.588942,-3.81923 0.447856,-3.43135 2.118196,-7.844649 3.412282,-9.01578 2.534112,-2.293341 5.113053,0.815122 6.634563,7.996805 1.362907,6.433062 1.700209,6.029942 -5.045429,6.029942 -5.772307,0 -5.833662,-0.01308 -5.590358,-1.191737 z"
     id="path3362"
     inkscape:connector-curvature="0" /><path
     style="fill:#ffffff"
     d="m 17.478199,54.125627 c 0.507935,-4.252876 2.130146,-8.990372 3.504314,-10.233976 0.738442,-0.668281 2.393427,-0.88175 7.744699,-0.998952 5.804169,-0.127122 6.891455,-0.285444 7.389225,-1.075962 1.104358,-1.753845 -0.21285,-2.762916 -3.835704,-2.938409 l -3.255309,-0.15769 0,-2.887861 0,-2.887862 4.237288,0 4.237288,0 0,4.472085 c 0,3.871506 0.142248,4.571719 1.059219,5.21399 1.053414,0.737841 1.053609,0.758213 0.03549,3.717436 -0.563053,1.636541 -1.16936,4.116781 -1.347348,5.511645 -0.758438,5.943738 -0.771115,5.978912 -2.154834,5.978912 -1.123803,0 -1.300152,-0.24265 -1.300152,-1.788959 0,-2.748607 -0.74161,-3.032086 -7.491065,-2.863451 l -6.015291,0.150291 -0.16287,2.25106 c -0.149451,2.065599 -0.283386,2.251059 -1.625658,2.251059 l -1.462789,0 0.443499,-3.713356 z"
     id="path3364"
     inkscape:connector-curvature="0" /><path
     style="fill:#ffffff"
     d="m 22.669492,59.957627 0,-2.648305 4.237288,0 4.237288,0 0,2.648305 0,2.648305 -4.237288,0 -4.237288,0 0,-2.648305 z"
     id="path3366"
     inkscape:connector-curvature="0" /><path
     style="fill:#ffffff"
     d="M 14.03218,90.26099 C 12.603841,88.682468 11.056349,84.416944 9.959687,79.03553 8.9988781,74.320763 8.8991609,71.77738 8.9073371,52.194341 l 0.00903,-21.6329 1.5709189,-2.648305 c 0.864006,-1.456568 1.574984,-3.072894 1.579951,-3.591836 0.01436,-1.500328 1.136286,-1.564355 5.614314,-0.320403 4.607343,1.279875 7.021589,1.365864 21.010184,0.748327 5.6121,-0.24775 8.871822,-0.59661 8.871822,-0.949474 0,-0.384099 -3.835147,-0.455299 -12.314618,-0.228624 -9.619522,0.257151 -12.992697,0.167507 -15.412937,-0.409608 -1.704075,-0.406342 -3.174022,-0.81437 -3.266548,-0.906729 -0.09253,-0.09236 5.830317,-0.167925 13.161877,-0.167925 7.331559,0 15.95193,-0.17107 19.156379,-0.380156 5.204711,-0.339601 5.685007,-0.299224 4.502119,0.378477 -0.728284,0.417248 -1.993675,0.767079 -2.81198,0.777402 -0.940452,0.01186 -1.355855,0.232303 -1.129114,0.599179 0.227696,0.368418 1.20639,0.453293 2.679564,0.232376 1.604522,-0.240613 2.320852,-0.158903 2.320852,0.264733 0,0.337022 0.44101,1.245429 0.980023,2.018683 2.626165,3.767426 3.278589,8.992543 1.961197,15.706764 -0.564652,2.877804 -0.660687,7.327644 -0.429081,19.881757 l 0.298389,16.174128 -1.471315,4.482653 c -1.877275,5.719486 -3.329314,8.354259 -4.732531,8.587347 -0.609841,0.101297 -2.081489,-0.362749 -3.27033,-1.031213 -3.029573,-1.70348 -5.912272,-1.964598 -14.057602,-1.273348 -3.897275,0.330736 -8.87356,0.701573 -11.058411,0.824073 -2.184852,0.1225 -4.837355,0.586266 -5.894452,1.030588 -1.761197,0.74027 -1.990669,0.73196 -2.74286,-0.09932 z m 38.741628,-5.344714 c 1.082445,-0.686117 0.575039,-32.585708 -0.580195,-36.475636 -2.16898,-7.303434 -4.426152,-9.664018 -9.243966,-9.667474 l -2.760099,-0.002 -0.153037,-4.634533 -0.153036,-4.634534 -6.620763,0 -6.620763,0 -0.153036,4.634534 -0.153037,4.634533 -2.344423,0 c -4.074153,0 -6.87696,3.550801 -8.779792,11.122882 -0.900566,3.583688 -1.316721,33.693146 -0.479628,34.701779 0.553442,0.66686 3.422286,0.784285 18.992779,0.7774 10.087476,-0.0042 18.659524,-0.210096 19.048996,-0.456971 z"
     id="path3387"
     inkscape:connector-curvature="0" /><path
     style="fill:#ffffff"
     d="M 12.655826,87.897246 C 11.772818,86.076536 10.566145,82.165948 9.9743308,79.207055 8.9970117,74.320747 8.8991336,71.8428 8.9073371,52.194341 l 0.00903,-21.6329 1.5709189,-2.648305 c 0.864006,-1.456568 1.574984,-3.051347 1.579951,-3.543953 0.01544,-1.530827 0.92463,-1.592611 5.706366,-0.387776 4.351773,1.096499 5.364615,1.145938 16.794883,0.819793 7.810273,-0.222853 12.359975,-0.557807 12.711865,-0.935859 0.401537,-0.431392 -2.779274,-0.504013 -11.898997,-0.271667 -9.742948,0.248223 -13.120136,0.155476 -15.545352,-0.426922 -1.704075,-0.409221 -3.173069,-0.819604 -3.264431,-0.911963 -0.09136,-0.09236 6.06983,-0.173546 13.691538,-0.180417 7.621708,-0.0069 16.241126,-0.182215 19.154262,-0.389653 4.775611,-0.34006 5.16636,-0.301603 3.972458,0.39097 -0.728284,0.422471 -1.860435,0.776575 -2.51589,0.786898 -0.655456,0.01032 -1.191738,0.271721 -1.191738,0.580884 0,0.366054 0.831334,0.437449 2.383475,0.204691 1.707814,-0.256103 2.383475,-0.175871 2.383475,0.283027 0,0.352249 0.44101,1.273115 0.980023,2.046369 1.457677,2.091144 2.7277,6.305152 2.72688,9.047939 -3.99e-4,1.331845 -0.335866,4.328317 -0.745484,6.658825 -0.577865,3.287743 -0.682285,7.857432 -0.465969,20.391949 l 0.278792,16.154661 -1.623394,4.63688 c -2.860299,8.169847 -3.915812,9.103348 -7.814496,6.911182 -3.029816,-1.703618 -5.912711,-1.96464 -14.057602,-1.272808 -3.897275,0.331039 -8.898355,0.714391 -11.113512,0.851891 -2.215157,0.137506 -4.888911,0.60991 -5.941674,1.049783 -1.052765,0.439873 -2.02601,0.799767 -2.162769,0.799767 -0.136759,0 -0.971114,-1.489671 -1.854122,-3.310381 z m 40.098411,-3.151483 c 0.460744,-0.460742 0.634488,-4.285578 0.631574,-13.903602 -0.0056,-18.441484 -0.77951,-23.979211 -4.039705,-28.905698 -1.587909,-2.399492 -3.173488,-3.165277 -6.553797,-3.165277 l -2.602761,0 -0.153037,-4.634533 -0.153036,-4.634534 -6.313802,-0.150006 c -4.69509,-0.111547 -6.424369,0.02424 -6.745068,0.529661 -0.237196,0.373817 -0.434915,2.526859 -0.439376,4.78454 l -0.0081,4.104872 -2.465486,0 c -2.180382,0 -2.694636,0.240888 -4.447115,2.083126 -4.061972,4.27002 -5.231699,11.136784 -5.255252,30.85044 -0.01222,10.226747 0.109348,12.135656 0.817974,12.844279 0.724236,0.724237 3.186679,0.832325 18.961864,0.832325 13.394538,0 18.295542,-0.166001 18.765133,-0.635593 z"
     id="path3389"
     inkscape:connector-curvature="0" /><path
     style="fill:#ffffff"
     d="M 12.655826,87.897246 C 11.772818,86.076536 10.566145,82.165948 9.9743308,79.207055 8.9983229,74.327304 8.8983051,71.820419 8.8983051,52.237168 l 0,-21.590074 1.5889829,-2.815524 c 0.873941,-1.548537 1.588983,-3.162588 1.588983,-3.586779 0,-1.397011 1.01229,-1.443853 5.697334,-0.263635 4.342827,1.094009 5.368619,1.144886 16.481692,0.817463 6.68312,-0.196903 12.226178,-0.590115 12.711865,-0.90175 0.604305,-0.387745 -2.78842,-0.459856 -11.372723,-0.241723 -9.715506,0.246878 -12.915854,0.151796 -15.546454,-0.461882 -1.821877,-0.425015 -3.38588,-0.847824 -3.475561,-0.939577 -0.08968,-0.09175 5.952832,-0.188079 13.42781,-0.214058 7.474977,-0.02598 16.093516,-0.204703 19.152308,-0.397163 5.036976,-0.316929 5.436568,-0.276782 4.237289,0.425712 -0.728284,0.426602 -1.860435,0.784086 -2.51589,0.794409 -0.655456,0.01032 -1.191738,0.271721 -1.191738,0.580884 0,0.359344 0.812022,0.444512 2.25106,0.236099 2.131363,-0.30868 2.303733,-0.232956 3.241669,1.424114 2.78184,4.914731 3.642567,10.690289 2.352597,15.786147 -0.405334,1.601216 -0.5629,8.206949 -0.480089,20.127118 l 0.123266,17.743644 -1.41846,3.972458 c -2.772327,7.764015 -4.406505,9.375153 -7.470528,7.36518 -2.849265,-1.869089 -6.098594,-2.244545 -13.879402,-1.603739 -3.976888,0.327521 -9.056162,0.717346 -11.287275,0.866276 -2.231114,0.14893 -5.061663,0.625397 -6.29011,1.058819 -1.228447,0.433421 -2.307811,0.78804 -2.398588,0.78804 -0.09078,0 -0.887509,-1.489671 -1.770517,-3.310381 z m 40.215982,-3.575212 c 0.657353,-1.040773 0.648224,-24.278678 -0.012,-30.544489 -0.613284,-5.820334 -2.175315,-10.2689 -4.494227,-12.799271 -1.522848,-1.661714 -2.058209,-1.888902 -4.942836,-2.097557 l -3.235013,-0.233999 -0.152129,-4.5723 -0.152128,-4.572299 -6.015292,-0.150292 c -3.981618,-0.09948 -6.264758,0.05675 -6.753178,0.4621 -0.514593,0.427075 -0.737886,1.854626 -0.737886,4.717437 l 0,4.105045 -2.765898,0.265768 c -2.362947,0.22705 -3.00814,0.546002 -4.428679,2.189322 -3.676305,4.252858 -4.944523,12.052131 -4.962558,30.51867 -0.0114,11.671457 0.141614,13.054111 1.485856,13.426521 0.479902,0.13295 8.925664,0.205302 18.768358,0.160784 15.270738,-0.06907 17.969416,-0.19749 18.39761,-0.87544 z"
     id="path3391"
     inkscape:connector-curvature="0" /><path
     style="fill:#00ff00"
     d="M 12.655826,87.897246 C 11.772818,86.076536 10.566145,82.165948 9.9743308,79.207055 8.9974222,74.322797 8.8983051,71.821381 8.8983051,52.0514 l 0,-21.775841 1.3030159,-2.064111 c 0.716659,-1.135261 1.458106,-2.682035 1.647659,-3.437276 0.189553,-0.75524 0.563377,-1.50835 0.83072,-1.673577 0.267343,-0.165227 2.684001,0.221801 5.37035,0.860062 4.54898,1.080811 5.664977,1.135434 16.256964,0.795699 6.254981,-0.200626 11.736972,-0.598177 12.182204,-0.883445 0.533477,-0.341811 -3.254166,-0.407773 -11.107862,-0.193444 -11.186311,0.305276 -16.121415,-0.0326 -18.356888,-1.256781 -0.337284,-0.184702 5.85975,-0.382617 13.771187,-0.439811 7.911436,-0.05719 16.529557,-0.240136 19.151379,-0.406537 4.378625,-0.277903 4.659081,-0.2386 3.442797,0.482466 -0.728284,0.431758 -1.874502,0.79346 -2.547149,0.803783 -0.672648,0.01032 -1.089711,0.23443 -0.926806,0.498016 0.162905,0.263585 1.198168,0.358266 2.300585,0.210401 1.974757,-0.264871 2.025153,-0.226924 3.408283,2.566304 2.156939,4.355935 2.675575,6.735226 2.298053,10.542532 -0.18627,1.878524 -0.507759,12.472702 -0.714421,23.542618 l -0.375749,20.127118 -1.732489,4.237288 c -0.952869,2.330509 -2.025433,4.613035 -2.383475,5.072283 -1.045699,1.341277 -2.796597,1.513824 -4.437629,0.437325 -2.739369,-1.797002 -6.555031,-2.223516 -14.15453,-1.582198 -3.824091,0.322718 -8.853813,0.722469 -11.177159,0.888343 -2.323346,0.165868 -5.033862,0.639851 -6.02337,1.053294 -0.989509,0.413443 -1.99341,0.751716 -2.230893,0.751716 -0.237483,0 -1.154248,-1.489671 -2.037256,-3.310381 z m 40.028011,-3.2249 c 0.24264,-0.244295 0.42128,-7.513893 0.396977,-16.15466 C 53.034119,51.915461 52.618516,48.241992 50.268413,43.659257 48.523494,40.25664 46.889776,39.131499 43.319017,38.873214 l -3.170712,-0.229349 0,-4.067695 c 0,-2.457548 -0.251592,-4.319287 -0.635593,-4.703289 -0.415626,-0.415625 -2.608853,-0.635593 -6.337297,-0.635593 -6.749401,0 -6.798296,0.04165 -6.798296,5.791451 l 0,3.742447 -1.986229,0.002 c -3.12558,0.0031 -5.276175,1.667635 -7.028451,5.439839 -0.842499,1.813684 -1.791625,4.846867 -2.109171,6.740405 -0.71156,4.243068 -1.349831,27.989719 -0.843136,31.368602 0.321376,2.143093 0.556042,2.496536 1.798589,2.708935 2.523403,0.431356 36.017587,0.102076 36.475116,-0.358581 z"
     id="path3393"
     inkscape:connector-curvature="0" /></svg>